<?xml version="1.0" standalone="no"?>
<!DOCTYPE svg PUBLIC "-//W3C//DTD SVG 1.1//EN" "http://www.w3.org/Graphics/SVG/1.1/DTD/svg11.dtd" >
<svg xmlns="http://www.w3.org/2000/svg" xmlns:xlink="http://www.w3.org/1999/xlink" version="1.1">
<metadata>
Created by FontForge 20170910 at Wed Nov  1 21:49:55 2017
 By Jimmy Wärting
Copyright (c) 2017 by TypeType. Designer Ivan Gladkikh, technical designers Victoria Usmanova, Nadyr Rakhimov. All rights reserved.
</metadata>
<defs>
<font id="TTTravels-Thin" horiz-adv-x="1261" >
  <font-face 
    font-family="TT Travels Thin"
    font-weight="265"
    font-stretch="normal"
    units-per-em="2048"
    panose-1="2 0 5 3 2 0 0 2 0 3"
    ascent="1638"
    descent="-410"
    x-height="983"
    cap-height="1434"
    bbox="-328 -532 2945 1946"
    underline-thickness="0"
    underline-position="0"
    unicode-range="U+000D-FB06"
  />
<missing-glyph horiz-adv-x="0" 
 />
    <glyph glyph-name="uniFB00" unicode="ff" horiz-adv-x="1329" 
d="M1182 1454q60 0 115 -18q56 -20 79 -37l25 -19v-53q-6 9 -24 25q-17 14 -76 38q-61 23 -125 23q-123 0 -203 -83t-80 -255v-92h385v-41h-385v-942h-41v942h-561v-942h-41v942h-189v41h189v82q0 193 89 291t232 98q67 0 123.5 -21.5t89.5 -56.5q59 -62 80 -121l6 -22h4
q8 30 35 77q22 40 52 68q33 32 92 54t129 22zM773 1326q-79 87 -201 87t-202 -87q-79 -86 -79 -261v-82h561v82q0 175 -79 261z" />
    <glyph glyph-name="uniFB01" unicode="fi" horiz-adv-x="1077" 
d="M291 983h602v-983h-41v942h-561v-942h-41v942h-189v41h189v82q0 193 89 291t232 98q145 0 234 -86q88 -85 88 -262h-41q0 160 -78 234q-77 73 -203 73q-123 0 -201 -87q-79 -86 -79 -261v-82z" />
    <glyph glyph-name="uniFB02" unicode="fl" horiz-adv-x="1077" 
d="M893 1065v-1065h-41v942h-561v-942h-41v942h-189v41h189v82q0 193 89 291t233 98q143 0 232 -98t89 -291zM291 1065v-82h561v82q0 175 -79 261q-79 87 -201 87t-202 -87q-79 -86 -79 -261z" />
    <glyph glyph-name="uniFB03" unicode="ffi" horiz-adv-x="1679" 
d="M864 1255l6 -22h4q8 29 36 77q24 40 52 68q32 32 89 54t123 22q144 0 233 -86q88 -85 88 -262h-41q0 160 -78 234q-77 73 -202 73q-122 0 -202 -87q-79 -86 -79 -261v-82h602v-983h-41v942h-561v-942h-41v942h-561v-942h-41v942h-189v41h189v82q0 193 89 291t232 98
q67 0 123.5 -21.5t89.5 -56.5q59 -62 80 -121zM773 1326q-79 87 -201 87t-202 -87q-79 -86 -79 -261v-82h561v82q0 175 -79 261z" />
    <glyph glyph-name="uniFB04" unicode="ffl" horiz-adv-x="1679" 
d="M1495 1065v-1065h-41v942h-561v-942h-41v942h-561v-942h-41v942h-189v41h189v82q0 193 89 291t232 98q67 0 123.5 -21.5t89.5 -56.5q59 -62 80 -121l6 -22h4q8 29 36 77q24 40 52 68q32 32 89 54t123 22q143 0 232 -98t89 -291zM291 1065v-82h561v82q0 175 -79 261
q-79 87 -201 87t-202 -87q-79 -86 -79 -261zM893 1065v-82h561v82q0 175 -79 261q-79 87 -201 87t-202 -87q-79 -86 -79 -261z" />
    <glyph glyph-name="f_j.liga" unicode="fj" horiz-adv-x="1077" 
d="M852 -102v1044h-561v-942h-41v942h-189v41h189v82q0 193 89 291t232 98q145 0 234 -86q88 -85 88 -262h-41q0 160 -78 234q-77 73 -203 73q-123 0 -201 -87q-79 -86 -79 -261v-82h602v-1085q0 -172 -66.5 -250t-201.5 -78q-39 0 -90 16l-13 6v46q44 -27 103 -27
q109 0 168 63q59 65 59 224z" />
    <glyph glyph-name="f_k.liga" unicode="fk" horiz-adv-x="1728" 
d="M893 1065v-553l676 471h71l-675 -471l723 -512h-70l-725 512v-512h-41v942h-561v-942h-41v942h-189v41h189v82q0 193 89 291t233 98q143 0 232 -98t89 -291zM291 1065v-82h561v82q0 175 -79 261q-79 87 -201 87t-202 -87q-79 -86 -79 -261z" />
    <glyph glyph-name=".notdef" horiz-adv-x="0" 
 />
    <glyph glyph-name="glyph1" horiz-adv-x="0" 
 />
    <glyph glyph-name="glyph1" horiz-adv-x="0" 
 />
    <glyph glyph-name="glyph2" horiz-adv-x="681" 
 />
    <glyph glyph-name="uni000D" unicode="&#xd;" horiz-adv-x="0" 
 />
    <glyph glyph-name="space" unicode=" " horiz-adv-x="471" 
 />
    <glyph glyph-name="exclam" unicode="!" horiz-adv-x="532" 
d="M287 348h-41v1086h41v-1086zM266 0q-41 0 -41 41t41 41t41 -41t-41 -41z" />
    <glyph glyph-name="quotedbl" unicode="&#x22;" horiz-adv-x="675" 
d="M205 1434v-594h-41v594h41zM512 1434v-594h-41v594h41z" />
    <glyph glyph-name="numbersign" unicode="#" horiz-adv-x="1402" 
d="M809 0h-43l98 410h-481l-98 -410h-43l98 410h-258v41h268l129 532h-264v41h274l101 410h43l-101 -410h482l100 410h43l-100 -410h264v-41h-274l-129 -532h270v-41h-281zM1004 983h-482l-129 -532h481z" />
    <glyph glyph-name="dollar" unicode="$" horiz-adv-x="1361" 
d="M707 -266h-41v246q-220 7 -356 127q-136 118 -136 323v82h41v-82q0 -188 134 -299q133 -111 347 -111q206 0 334 101q127 100 127 258q0 89 -50.5 152.5t-137.5 95.5q-50 18 -112 34t-149 35t-127 29q-107 27 -186 62q-84 36 -136 109t-52 179q0 171 129 275
q130 103 330 104v246h41v-248q193 -8 312 -111q118 -103 118 -297v-40h-41v40q0 178 -119 274q-119 95 -305 95q-182 0 -303 -93t-121 -245q0 -95 50 -161.5t138 -100.5q39 -15 93 -30.5t88 -24t109.5 -25t98.5 -21.5q118 -28 196 -63.5t125 -98.5q52 -68 52 -171
q0 -177 -135 -287q-136 -111 -356 -112v-246z" />
    <glyph glyph-name="percent" unicode="%" horiz-adv-x="1654" 
d="M362 0h-51l983 1434h52zM185 923q-83 88 -83 222t83 222q82 87 221 87q138 0 220 -87q83 -88 83 -222t-83 -222q-82 -87 -220 -87t-221 87zM596 954q72 76 72 191t-72 192q-72 76 -190 76q-119 0 -191 -76q-72 -77 -72 -192t72 -191q72 -77 191 -77q118 0 190 77z
M1469 511q83 -88 83 -222t-83 -222q-83 -87 -220 -87t-220 87q-83 88 -83 222t83 222q83 87 220 87t220 -87zM1059 480q-72 -76 -72 -191t72 -192q71 -77 190 -77t191 77q71 77 71 192q0 114 -71 191q-72 77 -191 77t-190 -77z" />
    <glyph glyph-name="ampersand" unicode="&#x26;" horiz-adv-x="1384" 
d="M164 471q0 114 37 204q38 91 86 140q49 49 107 83q91 54 145 54l-316 418v64h912v-41h-873l809 -1071q23 60 23 149v471h41v-471q0 -104 -25 -168l-8 -22l211 -281h-51l-179 233q-5 -11 -12 -27q-7 -18 -44 -62q-37 -45 -80 -76q-43 -32 -124 -60q-78 -28 -174 -28
q-227 0 -356 140t-129 351zM205 471q0 -188 119 -319q118 -132 325 -132q84 0 160 26t121 65q85 71 114 137l11 26l-488 641q-66 0 -155 -55q-53 -32 -99 -80q-48 -50 -78 -131.5t-30 -177.5z" />
    <glyph glyph-name="quotesingle" unicode="'" horiz-adv-x="368" 
d="M205 1434v-594h-41v594h41z" />
    <glyph glyph-name="parenleft" unicode="(" horiz-adv-x="829" 
d="M349 -206q-185 307 -185 780q0 474 184 779q184 306 461 306v-41q-172 0 -311 -142q-140 -142 -216 -381q-77 -240 -77 -521t77 -521q76 -239 216 -382q139 -142 311 -142v-41q-275 0 -460 306z" />
    <glyph glyph-name="parenright" unicode=")" horiz-adv-x="829" 
d="M481 1353q185 -307 185 -779q0 -475 -184 -780q-184 -306 -462 -306v41q173 0 312 142q140 143 216 382q77 240 77 521t-77 521q-76 239 -216 381q-139 142 -312 142v41q276 0 461 -306z" />
    <glyph glyph-name="asterisk" unicode="*" horiz-adv-x="937" 
d="M475 1270h-12q-27 154 -27 293q0 43 33 43t33 -43q0 -66 -7 -135q-6 -60 -14 -117zM516 1221l-4 12q136 79 268 129q44 12 51 -19q8 -29 -28 -45q-57 -20 -129 -39q-76 -21 -115 -30zM389 1253l37 -20l-4 -12q-164 33 -287 77q-37 16 -29 45q7 31 52 19q46 -18 126 -55
q66 -33 105 -54zM512 1135l-23 39l11 6q117 -102 200 -215q27 -33 0 -54q-27 -18 -51 15q-30 39 -77 111q-43 65 -60 98zM406 1151l30 29l10 -6q-78 -139 -159 -248q-25 -33 -51 -15q-27 19 0 54q35 47 87 103q50 54 83 83z" />
    <glyph glyph-name="plus" unicode="+" horiz-adv-x="1011" 
d="M102 553v41h383v389h41v-389h383v-41h-383v-389h-41v389h-383z" />
    <glyph glyph-name="comma" unicode="," horiz-adv-x="327" 
d="M123 41q0 41 41 41t41 -59q0 -46 -8 -129q-7 -57 -17 -130l-8 -51h-12v246q0 31 -18 40q-19 9 -19 42z" />
    <glyph glyph-name="hyphen" unicode="-" horiz-adv-x="634" 
d="M102 451l430 178v-43l-430 -178v43z" />
    <glyph glyph-name="period" unicode="." horiz-adv-x="327" 
d="M164 0q-41 0 -41 41t41 41t41 -41t-41 -41z" />
    <glyph glyph-name="slash" unicode="/" horiz-adv-x="823" 
d="M43 -246h-43l780 1680h43z" />
    <glyph glyph-name="zero" unicode="0" horiz-adv-x="1576" 
d="M333 1242q170 212 456 212q285 0 455 -212q169 -211 169 -525t-169 -525q-170 -212 -455 -212q-286 0 -456 212q-169 211 -169 525t169 525zM1215 221q157 200 157 496t-157 496q-158 200 -426 200t-426 -200q-158 -202 -158 -496t158 -496q157 -201 426 -201t426 201z
" />
    <glyph glyph-name="one" unicode="1" horiz-adv-x="641" 
d="M354 1397l-313 -326v55l293 308h61v-1434h-41v1397z" />
    <glyph glyph-name="two" unicode="2" horiz-adv-x="1333" 
d="M1210 0h-1108v41q0 118 56 213t153 159q30 19 67 39.5t64 34.5t77 37t69.5 31.5t80 35t73.5 31.5q112 48 204 102q93 55 151 138t58 193q0 169 -135 264q-134 94 -340 94t-340 -94q-135 -95 -135 -264v-41h-41v41q0 193 147 296q145 103 369 103t370 -103
q146 -104 146 -296q0 -111 -56.5 -200.5t-152.5 -149.5q-30 -19 -66.5 -38.5t-64 -33.5t-76.5 -36t-69.5 -31t-80 -34.5l-73.5 -31.5q-129 -56 -215 -113.5t-140 -139.5q-59 -89 -59 -206h1067v-41z" />
    <glyph glyph-name="three" unicode="3" horiz-adv-x="1267" 
d="M1067 1393h-913v41h952v-64l-717 -500h229q236 0 382 -114q145 -115 145 -326t-146 -330q-147 -120 -380 -120q-235 0 -380 120q-147 118 -147 330v41h41v-41q0 -190 137 -300t349 -110t349 110q136 109 136 300q0 188 -135 294q-135 105 -351 105h-290v50z" />
    <glyph glyph-name="four" unicode="4" horiz-adv-x="1259" 
d="M41 446l893 988h59v-1004h205v-41h-205v-389h-41v389h-911v57zM952 1391l-872 -961h872v961z" />
    <glyph glyph-name="five" unicode="5" horiz-adv-x="1376" 
d="M727 942q231 0 379 -130q147 -130 147 -351t-147 -351q-148 -130 -379 -130q-207 0 -327 81q-52 33 -93 79q-49 56 -72.5 118.5t-27.5 108.5l-2 22h43q0 -18 14 -72q21 -80 82 -151q39 -46 88 -76t123 -49q78 -21 172 -21q213 0 349 121t136 320q0 198 -136 319t-349 121
q-92 0 -174.5 -25.5t-132.5 -64.5q-95 -74 -125 -139l-12 -27h-41v789h911v-41h-870v-664q12 26 62 74q37 37 84 66q49 31 130 52t168 21z" />
    <glyph glyph-name="six" unicode="6" horiz-adv-x="1429" 
d="M1212 1122l11 -37h-49q-1 4 -4.5 16t-6.5 20q-7 23 -42 78t-78 99q-42 42 -125 79q-83 36 -181 36q-254 0 -377 -197q-124 -197 -124 -509v-164h6q29 174 170 287q140 112 327 112q231 0 379 -130t148 -351t-144 -351q-145 -130 -383 -130q-250 0 -397 174t-147 430v164
q0 417 232 605q127 101 310 101q109 0 202 -38q91 -37 141 -92q104 -112 132 -202zM739 20q217 0 352 120q134 120 134 321q0 199 -136 320q-137 120 -350 120q-189 0 -325 -129q-138 -129 -138 -311q0 -185 134 -313t329 -128z" />
    <glyph glyph-name="seven" unicode="7" horiz-adv-x="1124" 
d="M1040 1393h-999v41h1032v-68l-747 -1366h-47z" />
    <glyph glyph-name="eight" unicode="8" horiz-adv-x="1441" 
d="M1278 375q0 -195 -151 -295t-406 -100q-254 0 -405 100q-152 101 -152 295q0 85 35 157t89 112q105 78 191 97l35 9v4q-10 1 -32 8q-22 6 -74 33q-53 25 -94 60t-72 98q-33 63 -33 139q0 167 140 265q139 97 372 97q232 0 372 -97q140 -98 140 -265q0 -73 -30.5 -137
t-77.5 -101q-92 -73 -167 -92l-30 -8v-4q11 -1 38 -8q22 -8 84 -33q57 -26 106 -65q46 -37 84 -109q38 -73 38 -160zM346 638q-141 -92 -141 -263q0 -172 141 -263q142 -92 375 -92q232 0 375 92q141 91 141 263q0 171 -141 263q-142 91 -375 91q-235 0 -375 -91zM380 1325
q-130 -88 -130 -233q0 -146 130 -234t341 -88t341 88t130 234q0 145 -130 233t-341 88t-341 -88z" />
    <glyph glyph-name="nine" unicode="9" horiz-adv-x="1429" 
d="M199 311l-13 37h50q7 -21 12 -35q6 -19 43 -78q33 -55 80 -100q44 -43 129 -79q84 -36 186 -36q258 0 383 198q125 199 125 509v164h-6q-28 -173 -170 -286t-328 -113q-232 0 -378 130q-148 130 -148 351t145 351q143 130 381 130q250 0 398 -174q147 -174 147 -430v-164
q0 -419 -235 -605q-128 -101 -314 -101q-115 0 -206 38q-94 38 -145 92q-109 114 -136 201zM690 1413q-217 0 -351 -119q-134 -120 -134 -321q0 -199 136 -320t349 -121q189 0 326 130q137 129 137 311q0 185 -134 313q-133 127 -329 127z" />
    <glyph glyph-name="colon" unicode=":" horiz-adv-x="327" 
d="M164 0q-41 0 -41 41t41 41t41 -41t-41 -41zM164 901q-41 0 -41 41t41 41t41 -41t-41 -41z" />
    <glyph glyph-name="semicolon" unicode=";" horiz-adv-x="327" 
d="M164 901q-41 0 -41 41t41 41t41 -41t-41 -41zM123 41q0 41 41 41t41 -59q0 -46 -8 -129q-7 -57 -17 -130l-8 -51h-12v246q0 31 -18 40q-19 9 -19 42z" />
    <glyph glyph-name="less" unicode="&#x3c;" horiz-adv-x="1187" 
d="M1065 -20l-983 479v65l983 480v-46l-959 -466l959 -467v-45z" />
    <glyph glyph-name="equal" unicode="=" horiz-adv-x="1003" 
d="M102 731v41h820v-41h-820zM102 367v41h820v-41h-820z" />
    <glyph glyph-name="greater" unicode="&#x3e;" horiz-adv-x="1167" 
d="M123 1004l983 -480v-65l-983 -479v45l958 467l-958 466v46z" />
    <glyph glyph-name="question" unicode="?" horiz-adv-x="1167" 
d="M555 0q-41 0 -41 41t41 41t41 -41t-41 -41zM739 623v32h41v-32q0 -187 -225 -189q-114 0 -181 49t-67 140q0 100 74 154q74 55 180 74q140 26 211 40q106 20 179 81q73 60 73 169q0 132 -130 202t-329 70q-194 0 -318 -83q-124 -82 -124 -232v-51h-41v51q0 172 135 264
q136 92 348 92q220 0 360 -79q140 -80 140 -234q0 -121 -73 -188q-75 -69 -179 -91q-108 -24 -211 -42q-108 -20 -180 -64q-74 -45 -74 -133q0 -70 57 -109t150 -39q184 1 184 148z" />
    <glyph glyph-name="at" unicode="@" horiz-adv-x="1986" 
d="M1004 -369q-392 0 -616 243q-224 244 -224 649q0 406 223 648q224 242 617 242q392 0 616 -242q223 -242 223 -649q0 -236 -83 -343t-206 -107q-102 0 -163 64q-62 64 -62 171h-4q0 -1 -3.5 -9t-6.5 -14.5t-12 -21t-23 -31.5q-30 -39 -65 -67q-40 -32 -105.5 -54
t-136.5 -22q-188 0 -293 126t-105 304t105 304q104 126 293 126q73 0 137 -21.5t103 -54.5q78 -68 100 -118l10 -23h6v197h41v-621q0 -93 50 -143.5t134 -50.5q248 17 248 409q0 377 -209 613q-208 235 -589 235q-382 0 -590 -235q-209 -236 -209 -613q0 -375 209 -613
q208 -235 590 -235q102 0 191 19q91 19 132 39l43 18v-49q-140 -70 -366 -70zM1237 791q-92 116 -264 116t-264 -116q-93 -117 -93 -273t93 -272q91 -117 264 -117q167 0 262 116q94 115 94 273q0 155 -92 273z" />
    <glyph glyph-name="A" unicode="A" horiz-adv-x="1386" 
d="M1325 0h-45l-164 395h-846l-164 -395h-45l596 1434h72zM1098 436l-406 975l-405 -975h811z" />
    <glyph glyph-name="B" unicode="B" horiz-adv-x="1478" 
d="M1249 1085q0 -75 -22.5 -137t-58.5 -96q-73 -70 -128 -84l-24 -6q11 -1 34 -6q26 -6 77 -29q54 -25 97 -60q42 -36 77 -110q34 -72 34 -168q0 -195 -134.5 -292t-387.5 -97h-567v1434h588q191 0 303 -94t112 -255zM1294 389q0 153 -104 251q-104 97 -316 97h-587v-696
h526q231 0 356 87.5t125 260.5zM1208 1085q0 138 -100 223t-274 85h-547v-615h587q142 0 239 80q95 80 95 227z" />
    <glyph glyph-name="C" unicode="C" horiz-adv-x="1652" 
d="M347 190q-183 208 -183 527q0 316 182 527q182 210 494 210q122 0 225.5 -30.5t171.5 -82.5q67 -52 117 -112q98 -122 141 -316l4 -32h-41q0 3 -2 13t-3 17q-3 21 -19 74q-35 117 -114 218q-50 65 -112 107.5t-156 72.5q-98 30 -212 30q-293 0 -464 -198
q-171 -199 -171 -498t171 -498t464 -199q157 0 280 56q122 56 183 133q124 158 147 289l8 55h41q-1 -5 -2.5 -16.5t-2.5 -15.5q-3 -18 -20 -80q-39 -130 -120 -235q-53 -69 -120 -115.5t-166 -77.5q-104 -33 -228 -33q-312 0 -493 210z" />
    <glyph glyph-name="D" unicode="D" horiz-adv-x="1576" 
d="M246 1434h481q311 0 499 -204q187 -203 187 -513t-187 -513q-188 -204 -499 -204h-481v1434zM1196 234q176 193 176 483t-176 484q-176 192 -469 192h-440v-1352h440q294 0 469 193z" />
    <glyph glyph-name="E" unicode="E" horiz-adv-x="1351" 
d="M1208 0h-962v1434h962v-41h-921v-643h811v-41h-811v-668h921v-41z" />
    <glyph glyph-name="F" unicode="F" horiz-adv-x="1290" 
d="M287 0h-41v1434h962v-41h-921v-717h778v-41h-778v-635z" />
    <glyph glyph-name="G" unicode="G" horiz-adv-x="1740" 
d="M860 676v41h656v-717h-41v451h-5q-5 -20 -15 -50q-9 -27 -58 -114q-45 -80 -111 -143q-65 -62 -183 -113q-119 -51 -263 -51q-306 0 -490 211q-186 210 -186 526t188 527q188 210 498 210q115 0 216 -29.5t170 -79.5q65 -47 119 -108q104 -120 154 -305l7 -31h-41
q-1 8 -6 29q-5 18 -24 72q-41 111 -124 209q-55 63 -116.5 105t-151.5 69q-93 28 -203 28q-294 0 -469 -198q-176 -200 -176 -498q0 -297 174 -497t461 -200q142 0 259 53q115 53 183 129q69 78 113 171q78 163 78 303h-613z" />
    <glyph glyph-name="H" unicode="H" horiz-adv-x="1576" 
d="M1331 0h-41v717h-1003v-717h-41v1434h41v-676h1003v676h41v-1434z" />
    <glyph glyph-name="I" unicode="I" horiz-adv-x="1105" 
d="M532 1393h-409v41h860v-41h-410v-1352h410v-41h-860v41h409v1352z" />
    <glyph glyph-name="J" unicode="J" horiz-adv-x="1269" 
d="M102 451v61h41v-61q0 -197 114 -314t317 -117q202 0 316 117t114 314v942h-699v41h739v-983q0 -211 -126 -341q-127 -130 -344 -130q-218 0 -345 130t-127 341z" />
    <glyph glyph-name="K" unicode="K" horiz-adv-x="1280" 
d="M1239 0h-68l-884 727v-727h-41v1434h41v-707l837 707h64l-836 -705z" />
    <glyph glyph-name="L" unicode="L" horiz-adv-x="1269" 
d="M287 41h942v-41h-983v1434h41v-1393z" />
    <glyph glyph-name="M" unicode="M" horiz-adv-x="1818" 
d="M938 430h-57l-594 969v-1399h-41v1434h67l596 -975l596 975h68v-1434h-41v1399z" />
    <glyph glyph-name="N" unicode="N" horiz-adv-x="1607" 
d="M1362 0h-68l-1007 1399v-1399h-41v1434h67l1008 -1399v1399h41v-1434z" />
    <glyph glyph-name="O" unicode="O" horiz-adv-x="1699" 
d="M1349 1244q187 -209 187 -527q0 -319 -187 -527q-187 -210 -499 -210q-310 0 -498 210q-188 209 -188 527q0 316 188 527q188 210 498 210q312 0 499 -210zM381 1215q-176 -200 -176 -498t176 -498q175 -199 469 -199t469 199q176 200 176 498t-176 498
q-175 198 -469 198t-469 -198z" />
    <glyph glyph-name="P" unicode="P" horiz-adv-x="1392" 
d="M727 471h-440v-471h-41v1434h481q242 0 382 -125t140 -356q0 -232 -140 -357t-382 -125zM1081 626q127 112 127 326q0 213 -127 327t-354 114h-440v-881h440q227 0 354 114z" />
    <glyph glyph-name="Q" unicode="Q" horiz-adv-x="1699" 
d="M1536 717q0 -304 -172 -510q-173 -207 -463 -225q7 -14 19 -34q11 -21 61 -77q48 -54 114 -97q67 -43 179 -77q117 -35 252 -35v-41q-151 0 -274 37q-125 38 -194 89q-68 50 -119 103.5t-71 92.5l-18 37q-310 0 -498 210q-188 209 -188 527q0 316 188 527
q188 210 498 210q312 0 499 -210q187 -209 187 -527zM381 1215q-176 -200 -176 -498t176 -498q175 -199 469 -199t469 199q176 200 176 498t-176 498q-175 198 -469 198t-469 -198z" />
    <glyph glyph-name="R" unicode="R" horiz-adv-x="1437" 
d="M1305 0h-45l-416 614h-557v-614h-41v1434h604q174 0 287 -117q112 -116 112 -293q0 -104 -40.5 -188.5t-103.5 -131.5q-119 -88 -214 -88zM1208 1024q0 158 -99 264q-99 105 -259 105h-563v-738h563q157 0 258 104q100 103 100 265z" />
    <glyph glyph-name="S" unicode="S" horiz-adv-x="1443" 
d="M1219 1004h-41v40q0 182 -132 276q-134 93 -333 93q-196 0 -330 -91q-135 -92 -135 -247q0 -102 55 -171t150 -101q42 -14 100 -27.5t96.5 -21t118 -20.5t107.5 -18q105 -19 200 -52q89 -33 148 -104q57 -71 57 -181q0 -182 -156 -290q-157 -109 -397 -109
q-246 0 -399 117q-154 115 -154 333v82h41v-82q0 -196 144 -302q143 -108 368 -108q222 0 367 100q145 99 145 259q0 98 -55 162.5t-150 95.5q-54 17 -121 31t-161.5 29.5t-138.5 23.5q-111 19 -201 54q-91 35 -147 110q-58 76 -58 190q0 178 146 279q145 100 360 100
q221 0 364 -102q142 -103 142 -308v-40z" />
    <glyph glyph-name="T" unicode="T" horiz-adv-x="1269" 
d="M614 1393h-573v41h1188v-41h-574v-1393h-41v1393z" />
    <glyph glyph-name="U" unicode="U" horiz-adv-x="1576" 
d="M1191 102q-161 -122 -402 -122q-242 0 -403 122t-161 349v983h41v-983q0 -207 150 -319q148 -112 373 -112q224 0 373 112q149 113 149 319v983h41v-983q0 -227 -161 -349z" />
    <glyph glyph-name="V" unicode="V" horiz-adv-x="1341" 
d="M82 1434h47l543 -1403l540 1403h48l-553 -1434h-72z" />
    <glyph glyph-name="W" unicode="W" horiz-adv-x="2029" 
d="M977 1434h76l420 -1403l397 1403h47l-410 -1434h-71l-422 1403l-420 -1403h-72l-409 1434h47l399 -1403z" />
    <glyph glyph-name="X" unicode="X" horiz-adv-x="1282" 
d="M115 0h-54l553 758l-491 676h53l465 -639l465 639h53l-491 -676l553 -758h-54l-526 721z" />
    <glyph glyph-name="Y" unicode="Y" horiz-adv-x="1300" 
d="M680 0h-41v567l-578 867h50l548 -824l531 824h49l-559 -867v-567z" />
    <glyph glyph-name="Z" unicode="Z" horiz-adv-x="1290" 
d="M1122 1393h-979v41h1012v-68l-1022 -1325h1055v-41h-1086v68z" />
    <glyph glyph-name="bracketleft" unicode="[" horiz-adv-x="675" 
d="M287 -471h368v-41h-409v2171h409v-41h-368v-2089z" />
    <glyph glyph-name="backslash" unicode="\" horiz-adv-x="823" 
d="M0 1434h43l780 -1680h-43z" />
    <glyph glyph-name="bracketright" unicode="]" horiz-adv-x="675" 
d="M430 -512h-410v41h369v2089h-369v41h410v-2171z" />
    <glyph glyph-name="asciicircum" unicode="^" horiz-adv-x="1075" 
d="M506 1434h63l404 -717h-45l-391 692l-390 -692h-45z" />
    <glyph glyph-name="underscore" unicode="_" horiz-adv-x="860" 
d="M-41 -143h942v-41h-942v41z" />
    <glyph glyph-name="grave" unicode="`" horiz-adv-x="483" 
d="M61 1516h54l307 -328h-53z" />
    <glyph glyph-name="a" unicode="a" horiz-adv-x="1267" 
d="M1157 -10q-66 0 -106 34q-41 33 -47 66l-9 35q-10 -9 -53 -41q-33 -24 -143 -64q-108 -40 -219 -40q-196 0 -326 76q-131 75 -131 215q0 138 131 215q131 75 326 75q116 0 218 -28q101 -28 150 -58l47 -31v211q0 110 -62 184q-64 73 -144 98q-84 26 -179 26
q-97 0 -174.5 -25t-115.5 -62q-75 -74 -87 -135l-4 -24h-43q0 33 34 100q24 49 65 87q40 37 127 69q84 31 198 31q175 0 300 -85q126 -85 126 -264v-501q0 -54 30.5 -88.5t90.5 -34.5q28 0 62 14l8 4v-41q-27 -18 -70 -18zM580 20q117 0 219 40q106 42 151 79l45 41v211
q-19 16 -49 36q-31 21 -140 58q-110 35 -226 35q-176 0 -296 -63q-120 -65 -120 -187q0 -123 120 -186q119 -64 296 -64z" />
    <glyph glyph-name="b" unicode="b" horiz-adv-x="1339" 
d="M225 0h-41v1434h41v-717h4q7 20 14 32q7 15 47 68q37 49 86 87q48 38 135 69q86 31 189 31q230 0 373 -142q144 -142 144 -370q0 -227 -143 -370q-143 -142 -374 -142q-98 0 -184.5 28.5t-139.5 72.5q-100 84 -134 157l-13 28h-4v-266zM700 963q-213 0 -344 -134
q-131 -136 -131 -337t129 -336q129 -136 347 -136q217 0 346 134q129 133 129 338q0 204 -129 338q-130 133 -347 133z" />
    <glyph glyph-name="c" unicode="c" horiz-adv-x="1243" 
d="M267 123q-144 143 -144 369q0 225 144 369q143 143 366 143q121 0 220 -38q96 -37 148 -92q102 -111 121 -202l8 -37h-43q-1 10 -8 36q-5 19 -35 78q-30 55 -75 99q-44 42 -134 79q-90 36 -202 36q-211 0 -340 -134q-129 -135 -129 -337q0 -204 129 -337
q129 -135 340 -135q115 0 202 34q90 35 134 82q92 98 112 179l6 33h43q-1 -9 -8 -39q-6 -26 -39 -89q-35 -65 -83 -112q-49 -49 -147 -88q-96 -40 -220 -40q-223 0 -366 143z" />
    <glyph glyph-name="d" unicode="d" horiz-adv-x="1339" 
d="M1114 1434h41v-1434h-41v266h-4q-6 -15 -13 -31q-13 -24 -47 -69q-37 -49 -86 -87q-51 -39 -136 -68q-86 -31 -189 -31q-230 0 -372 142q-144 142 -144 370t144 370q142 142 372 142q98 0 184.5 -29t140.5 -73q97 -81 134 -157l12 -28h4v717zM639 963q-217 0 -346 -133
q-129 -134 -129 -338t129 -338t346 -134t346 136q129 135 129 336q0 203 -131 337t-344 134z" />
    <glyph glyph-name="e" unicode="e" horiz-adv-x="1247" 
d="M1135 492q0 -25 -5 -62h-964q1 -14 6 -44q5 -29 34 -98q30 -72 75 -125q45 -54 140 -98q95 -45 218 -45q89 0 166 22t122 56q90 68 109 117l11 23h45q-1 -2 -4.5 -11.5t-6.5 -15.5q-7 -18 -42 -63q-34 -45 -81 -79q-45 -34 -132 -61q-84 -28 -187 -28q-230 0 -372 142
q-144 142 -144 370q0 226 142 369q141 143 364 143q222 0 365 -143q141 -144 141 -369zM1094 471v21q0 205 -127 338t-338 133t-338 -133t-127 -338v-21h930z" />
    <glyph glyph-name="f" unicode="f" horiz-adv-x="727" 
d="M291 1077v-94h385v-41h-385v-942h-41v942h-189v41h189v88q0 201 91 292t239 91q60 0 115 -18q56 -20 79 -37l25 -19v-53q-6 9 -24 25q-17 14 -76 38q-61 23 -126 23q-133 0 -207.5 -86.5t-74.5 -249.5z" />
    <glyph glyph-name="g" unicode="g" horiz-adv-x="1140" 
d="M72 -123q0 63 28.5 117.5t71.5 85.5q81 58 156 74l28 6v4q-1 0 -9 1t-11.5 2t-12 2.5t-14.5 4.5t-15.5 7t-19 10t-20.5 14q-39 29 -39 71q0 41 38 71q38 31 75 38l39 8v4q-28 8 -74 35q-35 20 -65 51q-31 32 -52.5 86.5t-21.5 116.5q0 152 110 235t295 83h510v-41h-276
v-5q22 -8 60 -35q33 -25 53 -50q59 -75 59 -187q0 -151 -110 -234t-296 -83q-303 0 -303 -92q0 -93 303 -93q220 0 354 -82q134 -83 134 -225t-134 -225q-134 -82 -354 -82t-353 82q-134 83 -134 225zM882 -320q124 70 124 197t-124 197q-124 69 -323 69h-20
q-190 -4 -308 -73q-118 -70 -118 -193q0 -127 124 -197q123 -69 322 -69t323 69zM195 686q0 -131 94 -201q95 -71 254 -75h16q165 0 266 71q99 71 99 205q0 136 -99 206q-101 71 -266 71t-265 -71q-99 -70 -99 -206z" />
    <glyph glyph-name="h" unicode="h" horiz-adv-x="1241" 
d="M1077 0h-41v543q0 214 -113 318q-114 102 -292 102q-199 0 -302 -123q-104 -124 -104 -308v-532h-41v1434h41v-686h4q7 30 47 89q27 42 70 78q39 32 117 61q75 28 168 28q198 0 323 -114q123 -114 123 -347v-543z" />
    <glyph glyph-name="i" unicode="i" horiz-adv-x="409" 
d="M184 983h41v-983h-41v983zM205 1352q-41 0 -41 41t41 41t41 -41t-41 -41z" />
    <glyph glyph-name="j" unicode="j" horiz-adv-x="432" 
d="M207 -102v1085h41v-1085q0 -172 -66.5 -250t-201.5 -78q-37 0 -91 16l-12 6v46q43 -27 103 -27q110 0 168 63q59 65 59 224zM227 1352q-41 0 -41 41t41 41t41 -41t-41 -41z" />
    <glyph glyph-name="k" unicode="k" horiz-adv-x="1060" 
d="M1020 0h-70l-725 512v-512h-41v1434h41v-922l676 471h72l-676 -471z" />
    <glyph glyph-name="l" unicode="l" horiz-adv-x="409" 
d="M184 1434h41v-1434h-41v1434z" />
    <glyph glyph-name="m" unicode="m" horiz-adv-x="1806" 
d="M1642 0h-40v563q0 195 -87.5 297.5t-246.5 102.5q-155 0 -242.5 -98.5t-91.5 -282.5v-582h-41v584q0 161 -82 270t-252 109q-155 0 -242.5 -98.5t-91.5 -282.5v-582h-41v983h41v-178h4q6 23 41 69q27 35 59 60q36 29 98 49.5t132 20.5q83 0 151 -26t106 -67
q76 -82 89 -141l6 -27h4q8 36 38 91q24 45 59 80q39 38 107 64t149 26q178 0 276 -114.5t98 -326.5v-563z" />
    <glyph glyph-name="n" unicode="n" horiz-adv-x="1241" 
d="M1077 0h-41v543q0 214 -113 318q-114 102 -292 102q-199 0 -302 -123q-104 -124 -104 -308v-532h-41v983h41v-235h4q7 30 47 89q27 42 70 78q39 32 117 61q75 28 168 28q198 0 323 -114q123 -114 123 -347v-543z" />
    <glyph glyph-name="o" unicode="o" horiz-adv-x="1277" 
d="M267 122q-144 142 -144 370t144 370q142 142 372 142t373 -142q143 -143 143 -370t-143 -370q-143 -142 -373 -142t-372 142zM985 830q-129 133 -346 133t-346 -133q-129 -134 -129 -338t129 -338t346 -134t346 134q129 133 129 338q0 204 -129 338z" />
    <glyph glyph-name="p" unicode="p" horiz-adv-x="1339" 
d="M225 -410h-41v1393h41v-266h4q7 20 14 32q7 15 47 68q37 49 86 87q48 38 135 69q86 31 189 31q230 0 373 -142q144 -142 144 -370q0 -227 -143 -370q-143 -142 -374 -142q-98 0 -184.5 28.5t-139.5 72.5q-100 84 -134 157l-13 28h-4v-676zM700 20q216 0 347 134
q129 133 129 338q0 204 -129 338q-129 133 -346 133q-218 0 -347 -135q-129 -136 -129 -336q0 -203 131 -337q130 -135 344 -135z" />
    <glyph glyph-name="q" unicode="q" horiz-adv-x="1339" 
d="M1114 983h41v-1393h-41v676h-4q-6 -15 -13 -31q-13 -24 -47 -69q-37 -49 -86 -87q-51 -39 -136 -68q-86 -31 -189 -31q-230 0 -372 142q-144 142 -144 370t144 370q142 142 372 142q98 0 184.5 -29t140.5 -73q97 -81 134 -157l12 -28h4v266zM639 20q213 0 344 135
q131 134 131 337q0 201 -129 336t-346 135t-346 -133q-129 -134 -129 -338t129 -338t346 -134z" />
    <glyph glyph-name="r" unicode="r" horiz-adv-x="794" 
d="M631 1004q42 0 104 -13l19 -4v-41q-62 15 -123 17q-198 0 -301 -136q-105 -137 -105 -325v-502h-41v983h41v-250h4q8 19 12 29q10 23 38 65q31 48 71 82q41 35 116 65t165 30z" />
    <glyph glyph-name="s" unicode="s" horiz-adv-x="1138" 
d="M123 317v43h41v-43q0 -144 116 -221q115 -76 289 -76q181 0 293 58q113 57 113 186q0 90 -85 138q-88 48 -207 64q-88 12 -244 37q-121 19 -207 75q-85 55 -85 157q0 125 113 197q112 72 299 72q189 0 302 -79q114 -79 114 -218h-41q0 123 -103 190q-103 66 -272 66
q-165 0 -268 -59q-103 -60 -103 -169q0 -91 85 -137t207 -63q128 -17 244 -36q119 -19 207 -76q85 -55 85 -159q0 -145 -124 -214q-124 -70 -323 -70q-196 0 -320 88q-126 87 -126 249z" />
    <glyph glyph-name="t" unicode="t" horiz-adv-x="876" 
d="M250 348v594h-189v41h189v246h41v-246h463v-41h-463v-586q0 -336 282 -336q68 0 122 19q54 18 77 39l23 18v-47q-85 -71 -222 -69q-161 -1 -242 91.5t-81 276.5z" />
    <glyph glyph-name="u" unicode="u" 
d="M184 983h41v-543q0 -215 114 -317q113 -103 292 -103q198 0 302 123q103 122 103 308v532h41v-983h-41v236h-4q-8 -34 -46 -90q-30 -44 -71 -77q-39 -33 -116 -61q-75 -28 -168 -28q-198 0 -323 114q-124 112 -124 346v543z" />
    <glyph glyph-name="v" unicode="v" horiz-adv-x="1044" 
d="M958 983h46l-449 -983h-66l-448 983h45l436 -956z" />
    <glyph glyph-name="w" unicode="w" horiz-adv-x="1533" 
d="M1427 983h46l-306 -983h-65l-336 950l-334 -950h-65l-306 983h45l293 -954l334 954h68l334 -954z" />
    <glyph glyph-name="x" unicode="x" horiz-adv-x="995" 
d="M94 983h49l355 -430l354 430h49l-379 -459l432 -524h-49l-407 494l-408 -494h-49l432 524z" />
    <glyph glyph-name="y" unicode="y" horiz-adv-x="1064" 
d="M20 983h48l469 -940l458 940h49l-499 -1024q-64 -131 -79 -157q-28 -50 -70 -113q-44 -66 -89 -92.5t-102 -26.5q-58 0 -90 16l-13 4v41q45 -20 103 -20q95 0 184 143q34 59 107 205l16 33z" />
    <glyph glyph-name="z" unicode="z" horiz-adv-x="1034" 
d="M895 942h-772v41h809v-59l-815 -883h835v-41h-870v59z" />
    <glyph glyph-name="braceleft" unicode="{" horiz-adv-x="731" 
d="M666 -492h45v-40h-45q-379 0 -379 389v481q0 100 -49 157.5t-136 57.5v41h9q84 4 130 60.5t46 154.5v481q0 389 379 389h45v-41h-45q-165 0 -251.5 -88.5t-86.5 -259.5v-481q0 -84 -31 -142q-32 -59 -59 -75l-31 -17v-4q33 -20 42 -27q19 -16 37 -41q42 -67 42 -165v-481
q0 -171 86.5 -260t251.5 -89z" />
    <glyph glyph-name="bar" unicode="|" horiz-adv-x="655" 
d="M348 -532h-41v2109h41v-2109z" />
    <glyph glyph-name="braceright" unicode="}" horiz-adv-x="731" 
d="M20 -532v40h46q165 0 251 89t86 260v481q0 107 43 166q37 52 66 61l12 6v4q-24 14 -41 29q-21 15 -37 41q-43 63 -43 164v481q0 171 -86.5 259.5t-250.5 88.5h-46v41h46q380 0 378 -389v-481q0 -98 46.5 -154.5t130.5 -60.5h8v-41q-87 0 -136 -57.5t-49 -157.5v-481
q0 -389 -378 -389h-46z" />
    <glyph glyph-name="asciitilde" unicode="~" horiz-adv-x="1124" 
d="M805 621q-71 0 -132 -37q-63 -38 -102 -81q-39 -44 -106 -81t-146 -37q-90 0 -153 48q-64 48 -64 145q0 42 13 71l2 8h41q-14 -27 -15 -79q0 -72 49 -112t127 -40q71 0 132 37t102 81t108 81q65 37 144 37q89 0 154 -48q63 -50 63 -145q0 -48 -10 -72l-4 -8h-41
q14 28 14 80q0 72 -49 112t-127 40z" />
    <glyph glyph-name="uni00A0" unicode="&#xa0;" horiz-adv-x="471" 
 />
    <glyph glyph-name="exclamdown" unicode="&#xa1;" horiz-adv-x="532" 
d="M287 -410h-41v1045h41v-1045zM266 901q-41 0 -41 41t41 41t41 -41t-41 -41z" />
    <glyph glyph-name="cent" unicode="&#xa2;" horiz-adv-x="1243" 
d="M169 264q-46 99 -46 228q0 127 46 228q47 103 119 161q149 123 324 123v266h41v-266q119 -2 212 -42t141 -93q46 -52 76.5 -105.5t39.5 -91.5l8 -37h-43q-1 10 -8 36q-5 19 -35 78q-30 55 -75 99q-44 42 -134 79q-90 36 -202 36q-211 0 -340 -134q-129 -135 -129 -337
q0 -204 129 -337q129 -135 340 -135q115 0 202 34q90 35 134 82q92 98 112 179l6 33h43q-1 -2 -2 -10.5t-5.5 -23t-12.5 -36.5q-31 -83 -91 -148q-40 -44 -87.5 -73.5t-118.5 -51.5q-72 -23 -160 -25v-267h-41v267q-137 4 -258 74t-185 210z" />
    <glyph glyph-name="sterling" unicode="&#xa3;" horiz-adv-x="1148" 
d="M307 635h-205v41h205v424q0 159 109 256q109 98 270 98t271 -98q108 -99 108 -256v-21h-41v21q0 142 -95 228q-94 85 -242 85q-149 0 -243 -85q-96 -86 -96 -228v-424h471v-41h-471v-594h719v-41h-965v41h205v594z" />
    <glyph glyph-name="currency" unicode="&#xa4;" horiz-adv-x="1351" 
d="M287 573h-205v41h205v820h399q240 0 381 -114t141 -316q0 -203 -141 -317t-381 -114h-358v-245h503v-41h-503v-287h-41v287h-205v41h205v245zM1039 717q128 102 128 287q0 183 -128 287q-128 102 -353 102h-358v-779h358q226 0 353 103z" />
    <glyph glyph-name="yen" unicode="&#xa5;" horiz-adv-x="1382" 
d="M584 711h-359v41h332l-455 682h50l548 -824l531 824h49l-440 -682h336v-41h-363l-92 -144v-157h455v-41h-455v-369h-41v369h-455v41h455v157z" />
    <glyph glyph-name="brokenbar" unicode="&#xa6;" horiz-adv-x="655" 
d="M307 1577h41v-905h-41v905zM348 -532h-41v917h41v-917z" />
    <glyph glyph-name="section" unicode="&#xa7;" 
d="M1047 1126h-41v33q0 114 -100 184t-275 70q-174 0 -274 -70q-101 -71 -101 -184q0 -111 99.5 -174t275.5 -63q204 0 325 -88t121 -240q0 -66 -25.5 -123t-64.5 -91q-76 -67 -139 -81l-27 -8v-6q36 -8 88 -33q44 -21 76 -49q36 -31 62 -84t26 -113q0 -139 -121 -220
q-122 -81 -321 -81q-201 0 -322 81t-121 220v76h41v-76q0 -123 111 -192q112 -68 291 -68t291 68q110 69 110 192q0 120 -108 191q-110 69 -293 69q-204 0 -325 88q-122 89 -122 240q0 67 26 125t66 90q82 67 140 80l26 8v6q-33 8 -78 30q-39 19 -70 45q-33 29 -56 77
t-23 104q0 129 111 212q110 83 305 83q193 0 305 -83q111 -83 111 -212v-33zM631 881q-181 0 -293 -76q-113 -77 -113 -211q0 -135 112 -211t294 -76q181 0 294 77q111 76 111 210t-111 211q-112 76 -294 76z" />
    <glyph glyph-name="dieresis" unicode="&#xa8;" horiz-adv-x="532" 
d="M102 1290q-41 0 -41 41t41 41t41 -41t-41 -41zM430 1290q-41 0 -41 41t41 41t41 -41t-41 -41z" />
    <glyph glyph-name="copyright" unicode="&#xa9;" horiz-adv-x="1781" 
d="M1420 186q-200 -206 -529 -206q-330 0 -528 206q-199 205 -199 531t199 531q198 206 528 206q329 0 529 -206q198 -206 198 -531t-198 -531zM387 215q181 -195 504 -195q321 0 504 195q182 196 182 502t-182 502q-183 194 -504 194q-322 0 -504 -194q-182 -196 -182 -502
t182 -502zM632 461q-100 101 -100 256q0 153 100 256q99 102 263 102q81 0 148 -26.5t104 -67.5q74 -82 88 -145l6 -27h-43q-9 34 -33 78q-24 41 -53 69q-34 32 -92 55t-125 23q-147 0 -234 -93q-88 -92 -88 -224t88 -224q87 -94 234 -94q69 0 127 22.5t90 57.5
q67 72 80 123l6 23h43q-10 -43 -35 -93q-23 -45 -59 -81q-39 -38 -106.5 -65.5t-145.5 -27.5q-164 0 -263 103z" />
    <glyph glyph-name="ordfeminine" unicode="&#xaa;" horiz-adv-x="899" 
d="M829 932q-53 0 -84 24t-34 52l-2 26q-7 -11 -40 -39q-26 -21 -53 -34q-78 -39 -190 -39q-152 0 -238 58.5t-86 160.5q0 97 92 159q92 60 232 60q87 0 159 -20q70 -21 97 -42l27 -18v92q0 246 -271 246q-71 0 -124.5 -18.5t-79.5 -46.5q-48 -53 -54 -99l-2 -20h-43
q0 28 21 78q17 38 45 68q31 33 94.5 56t142.5 23q310 0 312 -287v-297q0 -54 16.5 -78t62.5 -24l50 8v-41q-21 -8 -50 -8zM426 963q122 0 195 46q53 35 79 72l9 15v133q-15 15 -41 32q-28 16 -54 26q-85 32 -188 32q-118 0 -201 -48q-82 -48 -82 -130q0 -84 75.5 -131
t207.5 -47z" />
    <glyph glyph-name="guillemotleft" unicode="&#xab;" horiz-adv-x="784" 
d="M346 113l-285 379l285 378h49l-284 -378l284 -379h-49zM633 113l-285 379l285 378h49l-285 -378l285 -379h-49z" />
    <glyph glyph-name="logicalnot" unicode="&#xac;" horiz-adv-x="921" 
d="M819 348h-41v246h-717v41h758v-287z" />
    <glyph glyph-name="uni00AD" unicode="&#xad;" horiz-adv-x="552" 
d="M61 532l431 179v-43l-431 -179v43z" />
    <glyph glyph-name="registered" unicode="&#xae;" horiz-adv-x="1032" 
d="M214 737q-112 122 -112 297t112 297q112 123 303 123q189 0 302 -123q111 -123 111 -297t-111 -297q-113 -123 -302 -123q-191 0 -303 123zM790 768q99 112 99 267q0 154 -99 266q-100 112 -274 112t-273 -112q-100 -112 -100 -266q0 -155 100 -267q99 -113 273 -113
q173 0 274 113zM674 852h-45l-86 143h-13h-104v-143h-41v369h145q140 0 142 -113q0 -40 -21 -68t-45 -32l-22 -7zM426 1036h104q101 0 101 72t-101 72h-104v-144z" />
    <glyph glyph-name="overscore" unicode="&#xaf;" horiz-adv-x="614" 
d="M553 1311h-492v41h492v-41z" />
    <glyph glyph-name="degree" unicode="&#xb0;" horiz-adv-x="880" 
d="M686 854q-92 -96 -245 -96q-155 0 -246 96q-93 96 -93 252t93 252q91 96 246 96q153 0 245 -96q92 -97 92 -252t-92 -252zM656 1327q-81 86 -216 86t-216 -86q-81 -85 -81 -221t81 -221q81 -86 216 -86t216 86q81 85 81 221t-81 221z" />
    <glyph glyph-name="plusminus" unicode="&#xb1;" horiz-adv-x="931" 
d="M61 225v41h383v348h-383v41h383v389h41v-389h385v-41h-385v-348h385v-41h-809z" />
    <glyph glyph-name="uni00B2" unicode="&#xb2;" horiz-adv-x="765" 
d="M723 860h-662v41q0 110 65 178q64 65 156 94q107 31 182 50q93 23 156 70q64 48 64 130t-71 139q-73 56 -199 56t-199 -62q-72 -63 -72 -153v-21h-41v21q0 113 83 185q83 71 229 71t229 -65q82 -66 82 -171q0 -97 -64 -152q-64 -56 -156 -79q-45 -11 -182 -47
q-93 -26 -156 -83q-65 -59 -65 -161h621v-41z" />
    <glyph glyph-name="uni00B3" unicode="&#xb3;" horiz-adv-x="817" 
d="M666 1597h-562v41h603v-63l-443 -250h150q166 0 249 -60.5t82 -181.5q0 -117 -86.5 -180t-244.5 -63t-245 63.5t-87 179.5v47h41v-47q0 -95 76.5 -148.5t214.5 -53.5t214.5 53.5t76.5 148.5q0 97 -74 149t-217 52h-209v49z" />
    <glyph glyph-name="acute" unicode="&#xb4;" horiz-adv-x="483" 
d="M115 1188h-54l308 328h53z" />
    <glyph glyph-name="mu" unicode="&#xb5;" horiz-adv-x="1308" 
d="M225 -410h-41v1393h41v-543q0 -215 114 -317q113 -103 292 -103q198 0 302 123q103 122 103 308v532h41v-788q0 -164 121 -164q28 0 62 14l8 4v-41q-27 -18 -70 -18q-73 0 -117.5 52t-44.5 144v50h-4q-8 -34 -46 -90q-30 -44 -71 -77q-39 -33 -116 -61q-75 -28 -168 -28
q-85 0 -159.5 22t-118.5 56q-40 31 -70.5 65t-40.5 57l-11 23h-6v-613z" />
    <glyph glyph-name="paragraph" unicode="&#xb6;" horiz-adv-x="962" 
d="M41 1112q0 156 95 239t243 83h502v-41h-154v-1925h-41v1925h-266v-1925h-41v1323q-147 0 -242 84q-96 83 -96 237z" />
    <glyph glyph-name="middot" unicode="&#xb7;" horiz-adv-x="471" 
d="M236 471q-41 0 -41 41t41 41q40 0 40 -41t-40 -41z" />
    <glyph glyph-name="cedilla" unicode="&#xb8;" horiz-adv-x="471" 
d="M236 -143h-82v41l104 122h53l-104 -122h29q85 0 129.5 -37t44.5 -101q0 -63 -44.5 -100t-129.5 -37q-83 0 -129 41.5t-46 106.5h41q0 -49 35.5 -78t98.5 -29q133 0 133 96q0 97 -133 97z" />
    <glyph glyph-name="uni00B9" unicode="&#xb9;" horiz-adv-x="456" 
d="M211 1602l-211 -203v55l190 184h62v-778h-41v742z" />
    <glyph glyph-name="ordmasculine" unicode="&#xba;" horiz-adv-x="937" 
d="M204 1030q-102 106 -102 261q0 153 102 261q101 107 265 107t266 -107q101 -109 101 -261q0 -154 -101 -261q-102 -108 -266 -108t-265 108zM705 1060q90 98 90 230q0 134 -90 231q-91 97 -236 97t-235 -97q-91 -97 -91 -231q0 -133 91 -230q90 -97 235 -97t236 97z" />
    <glyph glyph-name="guillemotright" unicode="&#xbb;" horiz-adv-x="784" 
d="M389 870h49l285 -378l-285 -379h-49l285 379zM102 870h50l284 -378l-284 -379h-50l285 379z" />
    <glyph glyph-name="onequarter" unicode="&#xbc;" horiz-adv-x="1452" 
d="M190 0h-47l983 1434h48zM293 1397l-211 -203v55l190 185h62v-779h-41v742zM702 236l500 542h60v-559h129v-41h-129v-178h-41v178h-519v58zM1221 737l-482 -518h482v518z" />
    <glyph glyph-name="onehalf" unicode="&#xbd;" horiz-adv-x="1630" 
d="M190 0h-47l983 1434h48zM293 1397l-211 -203v55l190 185h62v-779h-41v742zM1526 0h-662v41q0 110 65 178q64 65 156 94q107 31 182 50q93 23 156 70q64 48 64 130t-72 139q-73 56 -198 56q-126 0 -199 -62q-72 -63 -72 -153v-21h-41v21q0 113 83 185q83 71 229 71
t229 -65q82 -66 82 -171q0 -97 -64 -152q-64 -56 -156 -79q-45 -11 -182 -47q-93 -26 -156 -83q-65 -59 -65 -161h621v-41z" />
    <glyph glyph-name="threequarters" unicode="&#xbe;" horiz-adv-x="1783" 
d="M522 0h-47l983 1434h47zM1034 236l500 542h59v-559h129v-41h-129v-178h-41v178h-518v58zM1552 737l-481 -518h481v518zM645 1393h-561v41h602v-64l-442 -250h149q332 0 332 -241q0 -117 -86.5 -180.5t-244.5 -63.5t-245.5 63.5t-87.5 180.5v47h41v-47q0 -94 76.5 -148.5
t214.5 -54.5t214.5 53.5t76.5 149.5q0 97 -73 148.5t-218 51.5h-209v49z" />
    <glyph glyph-name="questiondown" unicode="&#xbf;" horiz-adv-x="1290" 
d="M674 983q41 0 41 -41t-41 -41t-41 41t41 41zM489 360v-32h-40v32q0 188 225 189q114 0 181 -49t67 -140q0 -100 -74 -153q-73 -52 -179 -69q-38 -6 -108.5 -17.5t-102.5 -16.5q-105 -18 -179 -72q-74 -56 -74 -159q0 -131 129 -197q130 -65 330 -65q194 0 319 83
q123 82 123 232v51h41v-51q0 -172 -135 -264q-136 -92 -348 -92q-220 0 -360 74q-140 75 -140 229q0 115 74 178q75 62 179 83q118 22 211 35q105 15 179 59t74 132q0 70 -57 109t-150 39q-185 -2 -185 -148z" />
    <glyph glyph-name="Agrave" unicode="&#xc0;" horiz-adv-x="1386" 
d="M1325 0h-45l-164 395h-846l-164 -395h-45l596 1434h72zM1098 436l-406 975l-405 -975h811zM350 1946h53l308 -328h-54z" />
    <glyph glyph-name="Aacute" unicode="&#xc1;" horiz-adv-x="1386" 
d="M1325 0h-45l-164 395h-846l-164 -395h-45l596 1434h72zM1098 436l-406 975l-405 -975h811zM721 1618h-53l307 328h53z" />
    <glyph glyph-name="Acircumflex" unicode="&#xc2;" horiz-adv-x="1386" 
d="M1325 0h-45l-164 395h-846l-164 -395h-45l596 1434h72zM1098 436l-406 975l-405 -975h811zM662 1946h63l276 -328h-51l-258 305l-256 -305h-51z" />
    <glyph glyph-name="Atilde" unicode="&#xc3;" horiz-adv-x="1386" 
d="M1325 0h-45l-164 395h-846l-164 -395h-45l596 1434h72zM1098 436l-406 975l-405 -975h811zM868 1792q-40 0 -87 -27q-47 -29 -81 -60q-37 -32 -86 -59q-50 -28 -98 -28q-75 0 -115.5 39t-40.5 102l9 60h41q-8 -27 -9 -60q0 -100 115 -100q60 0 169 87t183 87
q75 0 115.5 -39t40.5 -102l-8 -60h-41q8 29 8 60q0 100 -115 100z" />
    <glyph glyph-name="Adieresis" unicode="&#xc4;" horiz-adv-x="1386" 
d="M1325 0h-45l-164 395h-846l-164 -395h-45l596 1434h72zM1098 436l-406 975l-405 -975h811zM528 1700q-41 0 -41 41t41 41t41 -41t-41 -41zM856 1700q-41 0 -41 41t41 41t41 -41t-41 -41z" />
    <glyph glyph-name="Aring" unicode="&#xc5;" horiz-adv-x="1386" 
d="M1325 0h-45l-164 395h-846l-164 -395h-45l596 1434h72zM1098 436l-406 975l-405 -975h811zM820 1604q-46 -48 -128 -48t-128 48q-46 46 -46 121q0 74 46 120q47 47 128 47t128 -47q46 -46 46 -120q0 -75 -46 -121zM791 1814q-34 37 -98 37q-65 0 -99 -37
q-35 -38 -35 -89.5t35 -89.5t99 -38q63 0 98 38t35 89.5t-35 89.5z" />
    <glyph glyph-name="AE" unicode="&#xc6;" horiz-adv-x="1880" 
d="M1737 0h-819v395h-668l-164 -395h-45l596 1434h1100v-41h-779v-643h668v-41h-668v-668h779v-41zM918 1393h-254l-398 -957h652v957z" />
    <glyph glyph-name="Ccedilla" unicode="&#xc7;" horiz-adv-x="1652" 
d="M823 -143h-82v41l70 84q-299 8 -473 216t-174 519q0 316 182 527q182 210 494 210q122 0 225.5 -30.5t171.5 -82.5q67 -52 117 -112q98 -122 141 -316l4 -32h-41q0 3 -2 13t-3 17q-3 21 -19 74q-35 117 -114 218q-50 65 -112 107.5t-156 72.5q-98 30 -212 30
q-293 0 -464 -198q-171 -199 -171 -498t171 -498t464 -199q157 0 280 56q122 56 183 133q124 158 147 289l8 55h41q-1 -4 -2.5 -15t-2.5 -16q-4 -23 -19 -78q-35 -125 -116 -231q-52 -69 -116 -115t-160 -79q-99 -35 -219 -37l-69 -84h28q85 0 129.5 -37t44.5 -101
q0 -63 -44.5 -100t-129.5 -37q-83 0 -128.5 41.5t-45.5 106.5h41q0 -49 35.5 -78t97.5 -29q133 0 133 96q0 97 -133 97z" />
    <glyph glyph-name="Egrave" unicode="&#xc8;" horiz-adv-x="1351" 
d="M1208 0h-962v1434h962v-41h-921v-643h811v-41h-811v-668h921v-41zM436 1946h53l308 -328h-54z" />
    <glyph glyph-name="Eacute" unicode="&#xc9;" horiz-adv-x="1351" 
d="M1208 0h-962v1434h962v-41h-921v-643h811v-41h-811v-668h921v-41zM745 1618h-53l307 328h54z" />
    <glyph glyph-name="Ecircumflex" unicode="&#xca;" horiz-adv-x="1351" 
d="M1208 0h-962v1434h962v-41h-921v-643h811v-41h-811v-668h921v-41zM692 1946h64l276 -328h-51l-258 305l-256 -305h-51z" />
    <glyph glyph-name="Edieresis" unicode="&#xcb;" horiz-adv-x="1351" 
d="M1208 0h-962v1434h962v-41h-921v-643h811v-41h-811v-668h921v-41zM571 1700q-41 0 -41 41t41 41t41 -41t-41 -41zM899 1700q-41 0 -41 41t41 41t41 -41t-41 -41z" />
    <glyph glyph-name="Igrave" unicode="&#xcc;" horiz-adv-x="1105" 
d="M532 1393h-409v41h860v-41h-410v-1352h410v-41h-860v41h409v1352zM223 1946h53l308 -328h-54z" />
    <glyph glyph-name="Iacute" unicode="&#xcd;" horiz-adv-x="1105" 
d="M532 1393h-409v41h860v-41h-410v-1352h410v-41h-860v41h409v1352zM575 1618h-53l307 328h54z" />
    <glyph glyph-name="Icircumflex" unicode="&#xce;" horiz-adv-x="1105" 
d="M532 1393h-409v41h860v-41h-410v-1352h410v-41h-860v41h409v1352zM522 1946h64l276 -328h-51l-258 305l-256 -305h-51z" />
    <glyph glyph-name="Idieresis" unicode="&#xcf;" horiz-adv-x="1105" 
d="M532 1393h-409v41h860v-41h-410v-1352h410v-41h-860v41h409v1352zM389 1700q-41 0 -41 41t41 41t41 -41t-41 -41zM717 1700q-41 0 -41 41t41 41t41 -41t-41 -41z" />
    <glyph glyph-name="Eth" unicode="&#xd0;" horiz-adv-x="1597" 
d="M266 717h-225v41h225v676h482q312 0 499 -204q187 -203 187 -513t-187 -513q-187 -204 -499 -204h-482v717zM1217 234q176 193 176 483t-176 484q-177 192 -469 192h-441v-635h369v-41h-369v-676h441q294 0 469 193z" />
    <glyph glyph-name="Ntilde" unicode="&#xd1;" horiz-adv-x="1607" 
d="M1362 0h-68l-1007 1399v-1399h-41v1434h67l1008 -1399v1399h41v-1434zM1022 1792q-72 0 -169 -87q-37 -32 -86 -59q-49 -28 -97 -28q-75 0 -115.5 39t-40.5 102l8 60h41q-8 -29 -8 -60q0 -100 115 -100q60 0 169 87t183 87q75 0 115.5 -39t40.5 -102l-9 -60h-41
q8 27 9 60q0 100 -115 100z" />
    <glyph glyph-name="Ograve" unicode="&#xd2;" horiz-adv-x="1699" 
d="M1349 1244q187 -209 187 -527q0 -319 -187 -527q-187 -210 -499 -210q-310 0 -498 210q-188 209 -188 527q0 316 188 527q188 210 498 210q312 0 499 -210zM381 1215q-176 -200 -176 -498t176 -498q175 -199 469 -199t469 199q176 200 176 498t-176 498
q-175 198 -469 198t-469 -198zM518 1946h53l308 -328h-54z" />
    <glyph glyph-name="Oacute" unicode="&#xd3;" horiz-adv-x="1699" 
d="M1349 1244q187 -209 187 -527q0 -319 -187 -527q-187 -210 -499 -210q-310 0 -498 210q-188 209 -188 527q0 316 188 527q188 210 498 210q312 0 499 -210zM381 1215q-176 -200 -176 -498t176 -498q175 -199 469 -199t469 199q176 200 176 498t-176 498
q-175 198 -469 198t-469 -198zM883 1618h-54l308 328h53z" />
    <glyph glyph-name="Ocircumflex" unicode="&#xd4;" horiz-adv-x="1699" 
d="M1349 1244q187 -209 187 -527q0 -319 -187 -527q-187 -210 -499 -210q-310 0 -498 210q-188 209 -188 527q0 316 188 527q188 210 498 210q312 0 499 -210zM381 1215q-176 -200 -176 -498t176 -498q175 -199 469 -199t469 199q176 200 176 498t-176 498
q-175 198 -469 198t-469 -198zM819 1946h64l276 -328h-51l-258 305l-256 -305h-51z" />
    <glyph glyph-name="Otilde" unicode="&#xd5;" horiz-adv-x="1699" 
d="M1349 1244q187 -209 187 -527q0 -319 -187 -527q-187 -210 -499 -210q-310 0 -498 210q-188 209 -188 527q0 316 188 527q188 210 498 210q312 0 499 -210zM381 1215q-176 -200 -176 -498t176 -498q175 -199 469 -199t469 199q176 200 176 498t-176 498
q-175 198 -469 198t-469 -198zM1020 1792q-72 0 -169 -87q-37 -32 -86 -59q-49 -28 -97 -28q-75 0 -115.5 39t-40.5 102l8 60h41q-8 -29 -8 -60q0 -100 115 -100q59 0 169 87q109 87 183 87q75 0 115.5 -39t40.5 -102l-9 -60h-41q8 27 9 60q0 100 -115 100z" />
    <glyph glyph-name="Odieresis" unicode="&#xd6;" horiz-adv-x="1699" 
d="M1349 1244q187 -209 187 -527q0 -319 -187 -527q-187 -210 -499 -210q-310 0 -498 210q-188 209 -188 527q0 316 188 527q188 210 498 210q312 0 499 -210zM381 1215q-176 -200 -176 -498t176 -498q175 -199 469 -199t469 199q176 200 176 498t-176 498
q-175 198 -469 198t-469 -198zM686 1700q-41 0 -41 41t41 41t41 -41t-41 -41zM1014 1700q-41 0 -41 41t41 41t41 -41t-41 -41z" />
    <glyph glyph-name="multiply" unicode="&#xd7;" horiz-adv-x="729" 
d="M61 848l29 29l275 -275l274 275l29 -29l-275 -275l275 -274l-29 -29l-274 275l-275 -275l-29 29l275 274z" />
    <glyph glyph-name="Oslash" unicode="&#xd8;" horiz-adv-x="1699" 
d="M256 324l-195 -121v47l177 110q-74 137 -74 357q0 316 188 527q188 210 498 210q124 0 230 -36q104 -35 170 -86q132 -106 173 -185l19 -37l196 123v-47l-178 -111q76 -146 76 -358q0 -318 -187 -527q-187 -210 -499 -210q-122 0 -229 36q-105 34 -171 86q-63 49 -110 99
t-66 86zM1495 717q0 88 -18 172q-21 89 -35 123l-19 41l-1132 -707q7 -14 19 -34q13 -24 59 -79q45 -55 104 -100q57 -43 159 -78t218 -35q294 0 469 199q176 200 176 498zM205 717q0 -88 18 -172q16 -82 35 -123l16 -39l1133 704q-10 20 -18 35q-18 30 -59 79
q-48 57 -104 99q-58 44 -159 78q-102 35 -217 35q-294 0 -469 -198q-176 -200 -176 -498z" />
    <glyph glyph-name="Ugrave" unicode="&#xd9;" horiz-adv-x="1576" 
d="M1191 102q-161 -122 -402 -122q-242 0 -403 122t-161 349v983h41v-983q0 -207 150 -319q148 -112 373 -112q224 0 373 112q149 113 149 319v983h41v-983q0 -227 -161 -349zM498 1946h53l307 -328h-53z" />
    <glyph glyph-name="Uacute" unicode="&#xda;" horiz-adv-x="1576" 
d="M1191 102q-161 -122 -402 -122q-242 0 -403 122t-161 349v983h41v-983q0 -207 150 -319q148 -112 373 -112q224 0 373 112q149 113 149 319v983h41v-983q0 -227 -161 -349zM809 1618h-53l307 328h53z" />
    <glyph glyph-name="Ucircumflex" unicode="&#xdb;" horiz-adv-x="1576" 
d="M1191 102q-161 -122 -402 -122q-242 0 -403 122t-161 349v983h41v-983q0 -207 150 -319q148 -112 373 -112q224 0 373 112q149 113 149 319v983h41v-983q0 -227 -161 -349zM758 1946h63l277 -328h-51l-259 305l-256 -305h-51z" />
    <glyph glyph-name="Udieresis" unicode="&#xdc;" horiz-adv-x="1576" 
d="M1191 102q-161 -122 -402 -122q-242 0 -403 122t-161 349v983h41v-983q0 -207 150 -319q148 -112 373 -112q224 0 373 112q149 113 149 319v983h41v-983q0 -227 -161 -349zM625 1700q-41 0 -41 41t41 41t41 -41t-41 -41zM952 1700q-41 0 -41 41t41 41t41 -41t-41 -41z
" />
    <glyph glyph-name="Yacute" unicode="&#xdd;" horiz-adv-x="1300" 
d="M680 0h-41v567l-578 867h50l548 -824l531 824h49l-559 -867v-567zM674 1618h-53l307 328h53z" />
    <glyph glyph-name="Thorn" unicode="&#xde;" horiz-adv-x="1413" 
d="M768 287h-481v-287h-41v1434h41v-271h481q243 0 383 -111q139 -112 139 -327t-139 -326q-139 -112 -383 -112zM768 1122h-481v-794h481q231 0 356 101t125 296t-125 296t-356 101z" />
    <glyph glyph-name="germandbls" unicode="&#xdf;" horiz-adv-x="1296" 
d="M422 152l-8 20h45q8 -22 35 -53q22 -26 54 -46q88 -53 232 -53q352 0 353 316q0 96 -64 166q-65 69 -141 102q-74 32 -140 84q-65 51 -65 119q0 27 15 54t27.5 40.5t47 43t42.5 37.5q71 66 71 165q0 123 -89 195q-89 71 -231 71q-154 0 -245 -90t-91 -268v-1055h-41v942
h-188v41h188v72q0 195 103 297q102 102 274 102q161 0 262 -84q99 -84 99 -223q0 -71 -32 -127q-30 -53 -70 -82q-101 -71 -101 -131q0 -52 65 -99q62 -45 140 -80q77 -36 140 -110q65 -77 65 -182q0 -356 -394 -356q-86 0 -157 18.5t-109 48.5q-78 62 -92 105z" />
    <glyph glyph-name="agrave" unicode="&#xe0;" horiz-adv-x="1267" 
d="M1157 -10q-66 0 -106 34q-41 33 -47 66l-9 35q-10 -9 -53 -41q-33 -24 -143 -64q-108 -40 -219 -40q-196 0 -326 76q-131 75 -131 215q0 138 131 215q131 75 326 75q116 0 218 -28q101 -28 150 -58l47 -31v211q0 110 -62 184q-64 73 -144 98q-84 26 -179 26
q-97 0 -174.5 -25t-115.5 -62q-75 -74 -87 -135l-4 -24h-43q0 33 34 100q24 49 65 87q40 37 127 69q84 31 198 31q175 0 300 -85q126 -85 126 -264v-501q0 -54 30.5 -88.5t90.5 -34.5q28 0 62 14l8 4v-41q-27 -18 -70 -18zM580 20q117 0 219 40q106 42 151 79l45 41v211
q-19 16 -49 36q-31 21 -140 58q-110 35 -226 35q-176 0 -296 -63q-120 -65 -120 -187q0 -123 120 -186q119 -64 296 -64zM291 1536h53l307 -328h-53z" />
    <glyph glyph-name="aacute" unicode="&#xe1;" horiz-adv-x="1267" 
d="M1157 -10q-66 0 -106 34q-41 33 -47 66l-9 35q-10 -9 -53 -41q-33 -24 -143 -64q-108 -40 -219 -40q-196 0 -326 76q-131 75 -131 215q0 138 131 215q131 75 326 75q116 0 218 -28q101 -28 150 -58l47 -31v211q0 110 -62 184q-64 73 -144 98q-84 26 -179 26
q-97 0 -174.5 -25t-115.5 -62q-75 -74 -87 -135l-4 -24h-43q0 33 34 100q24 49 65 87q40 37 127 69q84 31 198 31q175 0 300 -85q126 -85 126 -264v-501q0 -54 30.5 -88.5t90.5 -34.5q28 0 62 14l8 4v-41q-27 -18 -70 -18zM580 20q117 0 219 40q106 42 151 79l45 41v211
q-19 16 -49 36q-31 21 -140 58q-110 35 -226 35q-176 0 -296 -63q-120 -65 -120 -187q0 -123 120 -186q119 -64 296 -64zM631 1208h-53l307 328h53z" />
    <glyph glyph-name="acircumflex" unicode="&#xe2;" horiz-adv-x="1267" 
d="M1157 -10q-66 0 -106 34q-41 33 -47 66l-9 35q-10 -9 -53 -41q-33 -24 -143 -64q-108 -40 -219 -40q-196 0 -326 76q-131 75 -131 215q0 138 131 215q131 75 326 75q116 0 218 -28q101 -28 150 -58l47 -31v211q0 110 -62 184q-64 73 -144 98q-84 26 -179 26
q-97 0 -174.5 -25t-115.5 -62q-75 -74 -87 -135l-4 -24h-43q0 33 34 100q24 49 65 87q40 37 127 69q84 31 198 31q175 0 300 -85q126 -85 126 -264v-501q0 -54 30.5 -88.5t90.5 -34.5q28 0 62 14l8 4v-41q-27 -18 -70 -18zM580 20q117 0 219 40q106 42 151 79l45 41v211
q-19 16 -49 36q-31 21 -140 58q-110 35 -226 35q-176 0 -296 -63q-120 -65 -120 -187q0 -123 120 -186q119 -64 296 -64zM580 1536h63l277 -328h-52l-258 305l-256 -305h-51z" />
    <glyph glyph-name="atilde" unicode="&#xe3;" horiz-adv-x="1267" 
d="M1157 -10q-66 0 -106 34q-41 33 -47 66l-9 35q-10 -9 -53 -41q-33 -24 -143 -64q-108 -40 -219 -40q-196 0 -326 76q-131 75 -131 215q0 138 131 215q131 75 326 75q116 0 218 -28q101 -28 150 -58l47 -31v211q0 110 -62 184q-64 73 -144 98q-84 26 -179 26
q-97 0 -174.5 -25t-115.5 -62q-75 -74 -87 -135l-4 -24h-43q0 33 34 100q24 49 65 87q40 37 127 69q84 31 198 31q175 0 300 -85q126 -85 126 -264v-501q0 -54 30.5 -88.5t90.5 -34.5q28 0 62 14l8 4v-41q-27 -18 -70 -18zM580 20q117 0 219 40q106 42 151 79l45 41v211
q-19 16 -49 36q-31 21 -140 58q-110 35 -226 35q-176 0 -296 -63q-120 -65 -120 -187q0 -123 120 -186q119 -64 296 -64zM795 1423q-41 0 -87 -27q-49 -30 -82 -59q-35 -31 -86 -60q-50 -28 -98 -28q-76 0 -115.5 38.5t-39.5 103.5l8 59h41q-8 -29 -8 -59q0 -99 114 -101
q60 0 169 87q110 87 184 87q75 0 115 -39t40 -102l-8 -59h-41q8 29 8 59q1 50 -27.5 75t-86.5 25z" />
    <glyph glyph-name="adieresis" unicode="&#xe4;" horiz-adv-x="1267" 
d="M1157 -10q-66 0 -106 34q-41 33 -47 66l-9 35q-10 -9 -53 -41q-33 -24 -143 -64q-108 -40 -219 -40q-196 0 -326 76q-131 75 -131 215q0 138 131 215q131 75 326 75q116 0 218 -28q101 -28 150 -58l47 -31v211q0 110 -62 184q-64 73 -144 98q-84 26 -179 26
q-97 0 -174.5 -25t-115.5 -62q-75 -74 -87 -135l-4 -24h-43q0 33 34 100q24 49 65 87q40 37 127 69q84 31 198 31q175 0 300 -85q126 -85 126 -264v-501q0 -54 30.5 -88.5t90.5 -34.5q28 0 62 14l8 4v-41q-27 -18 -70 -18zM580 20q117 0 219 40q106 42 151 79l45 41v211
q-19 16 -49 36q-31 21 -140 58q-110 35 -226 35q-176 0 -296 -63q-120 -65 -120 -187q0 -123 120 -186q119 -64 296 -64zM451 1290q-41 0 -41 41t41 41t41 -41t-41 -41zM778 1290q-41 0 -41 41t41 41t41 -41t-41 -41z" />
    <glyph glyph-name="aring" unicode="&#xe5;" horiz-adv-x="1267" 
d="M1157 -10q-66 0 -106 34q-41 33 -47 66l-9 35q-10 -9 -53 -41q-33 -24 -143 -64q-108 -40 -219 -40q-196 0 -326 76q-131 75 -131 215q0 138 131 215q131 75 326 75q116 0 218 -28q101 -28 150 -58l47 -31v211q0 110 -62 184q-64 73 -144 98q-84 26 -179 26
q-97 0 -174.5 -25t-115.5 -62q-75 -74 -87 -135l-4 -24h-43q0 33 34 100q24 49 65 87q40 37 127 69q84 31 198 31q175 0 300 -85q126 -85 126 -264v-501q0 -54 30.5 -88.5t90.5 -34.5q28 0 62 14l8 4v-41q-27 -18 -70 -18zM580 20q117 0 219 40q106 42 151 79l45 41v211
q-19 16 -49 36q-31 21 -140 58q-110 35 -226 35q-176 0 -296 -63q-120 -65 -120 -187q0 -123 120 -186q119 -64 296 -64zM740 1235q-47 -47 -128 -47t-128 47q-46 46 -46 121t46 121q47 47 128 47t128 -47q46 -46 46 -121t-46 -121zM711 1445q-35 38 -98 38q-64 0 -99 -38
t-35 -89t35 -89t99 -38q63 0 98 38t35 89t-35 89z" />
    <glyph glyph-name="ae" unicode="&#xe6;" horiz-adv-x="2050" 
d="M1503 -20q-105 0 -192.5 34.5t-137.5 89.5q-103 111 -124 191l-11 35h-4q-2 -6 -12 -38q-7 -22 -44 -84q-35 -60 -85 -107q-48 -45 -140 -83q-89 -38 -204 -38q-201 0 -313 73q-113 72 -113 203q0 129 107.5 197.5t308.5 68.5h477q0 192 -120 317q-120 124 -286 124
q-91 0 -165.5 -24.5t-115.5 -62.5q-80 -75 -93 -135l-7 -24h-43q1 10 8 32q4 16 32 68q25 49 68 87q42 37 125 69q81 31 191 31q88 0 165.5 -30.5t125.5 -78.5q92 -92 121 -166l12 -33h4q8 21 13 33q8 22 42 74q34 54 77 94q44 41 122 74t170 33q217 0 336 -134
q119 -136 119 -348l-2 -41h-858q0 -181 121 -320q120 -141 325 -141q71 0 135 22.5t102 55.5q77 67 99 117l8 23h47q-1 -2 -4.5 -11.5t-6.5 -15.5q-8 -20 -37 -63q-32 -47 -71 -79q-40 -34 -113 -61q-72 -28 -159 -28zM549 20q218 0 343 140q124 139 124 321h-477
q-375 0 -375 -225q0 -113 102 -174.5t283 -61.5zM1057 522h819q0 190 -105 316q-107 125 -309 125q-172 0 -288 -125q-117 -124 -117 -316z" />
    <glyph glyph-name="ccedilla" unicode="&#xe7;" horiz-adv-x="1243" 
d="M614 -143h-82v41l72 84q-211 10 -346 151t-135 359q0 225 144 369q143 143 366 143q121 0 220 -38q96 -37 148 -92q102 -111 121 -202l8 -37h-43q-1 10 -8 36q-5 19 -35 78q-30 55 -75 99q-44 42 -134 79q-90 36 -202 36q-211 0 -340 -134q-129 -135 -129 -337
q0 -204 129 -337q129 -135 340 -135q115 0 202 34q90 35 134 82q92 98 112 179l6 33h43q-1 -12 -8 -37q-7 -27 -37 -86q-31 -62 -79 -110q-49 -48 -140 -88t-211 -45l-69 -84h28q85 0 129.5 -37t44.5 -101q0 -63 -44.5 -100t-129.5 -37q-83 0 -128.5 41.5t-45.5 106.5h41
q0 -49 35.5 -78t97.5 -29q132 0 134 96q0 97 -134 97z" />
    <glyph glyph-name="egrave" unicode="&#xe8;" horiz-adv-x="1247" 
d="M1135 492q0 -25 -5 -62h-964q1 -14 6 -44q5 -29 34 -98q30 -72 75 -125q45 -54 140 -98q95 -45 218 -45q89 0 166 22t122 56q90 68 109 117l11 23h45q-1 -2 -4.5 -11.5t-6.5 -15.5q-7 -18 -42 -63q-34 -45 -81 -79q-45 -34 -132 -61q-84 -28 -187 -28q-230 0 -372 142
q-144 142 -144 370q0 226 142 369q141 143 364 143q222 0 365 -143q141 -144 141 -369zM1094 471v21q0 205 -127 338t-338 133t-338 -133t-127 -338v-21h930zM289 1536h53l307 -328h-53z" />
    <glyph glyph-name="eacute" unicode="&#xe9;" horiz-adv-x="1247" 
d="M1135 492q0 -25 -5 -62h-964q1 -14 6 -44q5 -29 34 -98q30 -72 75 -125q45 -54 140 -98q95 -45 218 -45q89 0 166 22t122 56q90 68 109 117l11 23h45q-1 -2 -4.5 -11.5t-6.5 -15.5q-7 -18 -42 -63q-34 -45 -81 -79q-45 -34 -132 -61q-84 -28 -187 -28q-230 0 -372 142
q-144 142 -144 370q0 226 142 369q141 143 364 143q222 0 365 -143q141 -144 141 -369zM1094 471v21q0 205 -127 338t-338 133t-338 -133t-127 -338v-21h930zM649 1208h-53l307 328h53z" />
    <glyph glyph-name="ecircumflex" unicode="&#xea;" horiz-adv-x="1247" 
d="M1135 492q0 -25 -5 -62h-964q1 -14 6 -44q5 -29 34 -98q30 -72 75 -125q45 -54 140 -98q95 -45 218 -45q89 0 166 22t122 56q90 68 109 117l11 23h45q-1 -2 -4.5 -11.5t-6.5 -15.5q-7 -18 -42 -63q-34 -45 -81 -79q-45 -34 -132 -61q-84 -28 -187 -28q-230 0 -372 142
q-144 142 -144 370q0 226 142 369q141 143 364 143q222 0 365 -143q141 -144 141 -369zM1094 471v21q0 205 -127 338t-338 133t-338 -133t-127 -338v-21h930zM588 1536h63l277 -328h-51l-259 305l-256 -305h-51z" />
    <glyph glyph-name="edieresis" unicode="&#xeb;" horiz-adv-x="1247" 
d="M1135 492q0 -25 -5 -62h-964q1 -14 6 -44q5 -29 34 -98q30 -72 75 -125q45 -54 140 -98q95 -45 218 -45q89 0 166 22t122 56q90 68 109 117l11 23h45q-1 -2 -4.5 -11.5t-6.5 -15.5q-7 -18 -42 -63q-34 -45 -81 -79q-45 -34 -132 -61q-84 -28 -187 -28q-230 0 -372 142
q-144 142 -144 370q0 226 142 369q141 143 364 143q222 0 365 -143q141 -144 141 -369zM1094 471v21q0 205 -127 338t-338 133t-338 -133t-127 -338v-21h930zM465 1290q-41 0 -41 41t41 41t41 -41t-41 -41zM793 1290q-41 0 -41 41t41 41t41 -41t-41 -41z" />
    <glyph glyph-name="igrave" unicode="&#xec;" horiz-adv-x="409" 
d="M184 983h41v-983h-41v983zM-133 1536h53l307 -328h-53z" />
    <glyph glyph-name="iacute" unicode="&#xed;" horiz-adv-x="409" 
d="M184 983h41v-983h-41v983zM236 1208h-54l307 328h54z" />
    <glyph glyph-name="icircumflex" unicode="&#xee;" horiz-adv-x="409" 
d="M184 983h41v-983h-41v983zM174 1536h64l276 -328h-51l-258 305l-256 -305h-51z" />
    <glyph glyph-name="idieresis" unicode="&#xef;" horiz-adv-x="409" 
d="M184 983h41v-983h-41v983zM41 1290q-41 0 -41 41t41 41t41 -41t-41 -41zM369 1290q-41 0 -41 41t41 41t41 -41t-41 -41z" />
    <glyph glyph-name="eth" unicode="&#xf0;" horiz-adv-x="1265" 
d="M516 1194l-37 12l53 168q-121 36 -184 41l-24 2l8 37q94 -6 213 -43l49 152l37 -13l-49 -151q25 -7 59 -18q39 -15 128 -67q93 -54 165 -126q71 -71 130 -203q58 -129 58 -289v-112q0 -254 -142 -429t-376 -175q-223 0 -357 134t-134 347t134 347t357 134q186 0 320 -113
q133 -114 151 -286h6v133q0 157 -53 286q-53 128 -128 200q-72 69 -146.5 117.5t-130.5 66.5l-54 16zM604 20q184 0 310 127t126 314q0 185 -126 312q-126 128 -310 128q-205 0 -327 -125q-123 -124 -123 -315t123 -316q122 -125 327 -125z" />
    <glyph glyph-name="ntilde" unicode="&#xf1;" horiz-adv-x="1241" 
d="M1077 0h-41v543q0 214 -113 318q-114 102 -292 102q-199 0 -302 -123q-104 -124 -104 -308v-532h-41v983h41v-235h4q7 30 47 89q27 42 70 78q39 32 117 61q75 28 168 28q198 0 323 -114q123 -114 123 -347v-543zM799 1423q-41 0 -87 -27q-49 -30 -82 -59q-35 -31 -86 -60
q-49 -28 -98 -28q-76 0 -115.5 38.5t-39.5 103.5l8 59h41q-8 -29 -8 -59q0 -99 114 -101q60 0 169 87t184 87t115 -39t40 -102l-8 -59h-41q8 29 8 59q1 50 -27.5 75t-86.5 25z" />
    <glyph glyph-name="ograve" unicode="&#xf2;" horiz-adv-x="1277" 
d="M267 122q-144 142 -144 370t144 370q142 142 372 142t373 -142q143 -143 143 -370t-143 -370q-143 -142 -373 -142t-372 142zM985 830q-129 133 -346 133t-346 -133q-129 -134 -129 -338t129 -338t346 -134t346 134q129 133 129 338q0 204 -129 338zM305 1536h53
l308 -328h-54z" />
    <glyph glyph-name="oacute" unicode="&#xf3;" horiz-adv-x="1277" 
d="M267 122q-144 142 -144 370t144 370q142 142 372 142t373 -142q143 -143 143 -370t-143 -370q-143 -142 -373 -142t-372 142zM985 830q-129 133 -346 133t-346 -133q-129 -134 -129 -338t129 -338t346 -134t346 134q129 133 129 338q0 204 -129 338zM668 1208h-54
l308 328h53z" />
    <glyph glyph-name="ocircumflex" unicode="&#xf4;" horiz-adv-x="1277" 
d="M267 122q-144 142 -144 370t144 370q142 142 372 142t373 -142q143 -143 143 -370t-143 -370q-143 -142 -373 -142t-372 142zM985 830q-129 133 -346 133t-346 -133q-129 -134 -129 -338t129 -338t346 -134t346 134q129 133 129 338q0 204 -129 338zM608 1536h64
l276 -328h-51l-258 305l-256 -305h-51z" />
    <glyph glyph-name="otilde" unicode="&#xf5;" horiz-adv-x="1277" 
d="M267 122q-144 142 -144 370t144 370q142 142 372 142t373 -142q143 -143 143 -370t-143 -370q-143 -142 -373 -142t-372 142zM985 830q-129 133 -346 133t-346 -133q-129 -134 -129 -338t129 -338t346 -134t346 134q129 133 129 338q0 204 -129 338zM815 1423
q-41 0 -87 -27q-49 -30 -82 -59q-35 -31 -86 -60q-49 -28 -97 -28q-76 0 -116 39t-40 103l8 59h41q-8 -29 -8 -59q0 -100 115 -101q59 0 169 87t183 87q75 0 115.5 -39t40.5 -102l-8 -59h-41q8 29 8 59q0 100 -115 100z" />
    <glyph glyph-name="odieresis" unicode="&#xf6;" horiz-adv-x="1277" 
d="M267 122q-144 142 -144 370t144 370q142 142 372 142t373 -142q143 -143 143 -370t-143 -370q-143 -142 -373 -142t-372 142zM985 830q-129 133 -346 133t-346 -133q-129 -134 -129 -338t129 -338t346 -134t346 134q129 133 129 338q0 204 -129 338zM475 1290
q-41 0 -41 41t41 41t41 -41t-41 -41zM803 1290q-41 0 -41 41t41 41t41 -41t-41 -41z" />
    <glyph glyph-name="divide" unicode="&#xf7;" horiz-adv-x="839" 
d="M61 553h717v-41h-717v41zM420 184q-41 0 -41 41t41 41t41 -41t-41 -41zM420 799q-41 0 -41 41t41 41t41 -41t-41 -41z" />
    <glyph glyph-name="oslash" unicode="&#xf8;" horiz-adv-x="1290" 
d="M221 182l-149 -100v47l129 88q-72 102 -72 275q0 228 144 370q142 142 372 142q84 0 160.5 -20t123.5 -52q90 -60 126 -111l14 -20l150 100v-47l-129 -88q72 -103 71 -274q0 -226 -143 -369q-145 -143 -373 -143q-84 0 -159.5 19.5t-123.5 51.5q-92 61 -126 111z
M1120 492q0 70 -15 132t-32 91l-16 28l-801 -538q9 -19 57 -64q32 -31 74 -57q45 -27 114.5 -45.5t143.5 -18.5q217 0 346 134q129 133 129 338zM645 963q-217 0 -346 -133q-129 -134 -129 -338q0 -72 16 -133q15 -66 31 -93l16 -26l801 538q-10 22 -56 65q-31 28 -75 56
q-45 27 -114.5 45.5t-143.5 18.5z" />
    <glyph glyph-name="ugrave" unicode="&#xf9;" 
d="M184 983h41v-543q0 -215 114 -317q113 -103 292 -103q198 0 302 123q103 122 103 308v532h41v-983h-41v236h-4q-8 -34 -46 -90q-30 -44 -71 -77q-39 -33 -116 -61q-75 -28 -168 -28q-198 0 -323 114q-124 112 -124 346v543zM307 1536h53l308 -328h-54z" />
    <glyph glyph-name="uacute" unicode="&#xfa;" 
d="M184 983h41v-543q0 -215 114 -317q113 -103 292 -103q198 0 302 123q103 122 103 308v532h41v-983h-41v236h-4q-8 -34 -46 -90q-30 -44 -71 -77q-39 -33 -116 -61q-75 -28 -168 -28q-198 0 -323 114q-124 112 -124 346v543zM639 1208h-53l307 328h53z" />
    <glyph glyph-name="ucircumflex" unicode="&#xfb;" 
d="M184 983h41v-543q0 -215 114 -317q113 -103 292 -103q198 0 302 123q103 122 103 308v532h41v-983h-41v236h-4q-8 -34 -46 -90q-30 -44 -71 -77q-39 -33 -116 -61q-75 -28 -168 -28q-198 0 -323 114q-124 112 -124 346v543zM598 1536h64l276 -328h-51l-258 305l-256 -305
h-51z" />
    <glyph glyph-name="udieresis" unicode="&#xfc;" 
d="M184 983h41v-543q0 -215 114 -317q113 -103 292 -103q198 0 302 123q103 122 103 308v532h41v-983h-41v236h-4q-8 -34 -46 -90q-30 -44 -71 -77q-39 -33 -116 -61q-75 -28 -168 -28q-198 0 -323 114q-124 112 -124 346v543zM477 1290q-41 0 -41 41t41 41t41 -41t-41 -41z
M805 1290q-41 0 -41 41t41 41t41 -41t-41 -41z" />
    <glyph glyph-name="yacute" unicode="&#xfd;" horiz-adv-x="1064" 
d="M20 983h48l469 -940l458 940h49l-499 -1024q-64 -131 -79 -157q-28 -50 -70 -113q-44 -66 -89 -92.5t-102 -26.5q-58 0 -90 16l-13 4v41q45 -20 103 -20q95 0 184 143q34 59 107 205l16 33zM545 1208h-53l307 328h53z" />
    <glyph glyph-name="thorn" unicode="&#xfe;" horiz-adv-x="1339" 
d="M225 -410h-41v1844h41v-717h4q7 20 14 32q7 15 47 68q37 49 86 87q48 38 135 69q86 31 189 31q230 0 373 -142q144 -142 144 -370q0 -227 -143 -370q-143 -142 -374 -142q-98 0 -184.5 28.5t-139.5 72.5q-100 84 -134 157l-13 28h-4v-676zM700 20q216 0 347 134
q129 133 129 338q0 204 -129 338q-129 133 -346 133q-218 0 -347 -135q-129 -136 -129 -336q0 -203 131 -337q130 -135 344 -135z" />
    <glyph glyph-name="ydieresis" unicode="&#xff;" horiz-adv-x="1064" 
d="M20 983h48l469 -940l458 940h49l-499 -1024q-64 -131 -79 -157q-28 -50 -70 -113q-44 -66 -89 -92.5t-102 -26.5q-58 0 -90 16l-13 4v41q45 -20 103 -20q95 0 184 143q34 59 107 205l16 33zM377 1290q-41 0 -41 41t41 41t41 -41t-41 -41zM705 1290q-41 0 -41 41t41 41
q40 0 40 -41t-40 -41z" />
    <glyph glyph-name="Amacron" unicode="&#x100;" horiz-adv-x="1386" 
d="M1325 0h-45l-164 395h-846l-164 -395h-45l596 1434h72zM1098 436l-406 975l-405 -975h811zM938 1700h-492v41h492v-41z" />
    <glyph glyph-name="amacron" unicode="&#x101;" horiz-adv-x="1267" 
d="M1157 -10q-66 0 -106 34q-41 33 -47 66l-9 35q-10 -9 -53 -41q-33 -24 -143 -64q-108 -40 -219 -40q-196 0 -326 76q-131 75 -131 215q0 138 131 215q131 75 326 75q116 0 218 -28q101 -28 150 -58l47 -31v211q0 110 -62 184q-64 73 -144 98q-84 26 -179 26
q-97 0 -174.5 -25t-115.5 -62q-75 -74 -87 -135l-4 -24h-43q0 33 34 100q24 49 65 87q40 37 127 69q84 31 198 31q175 0 300 -85q126 -85 126 -264v-501q0 -54 30.5 -88.5t90.5 -34.5q28 0 62 14l8 4v-41q-27 -18 -70 -18zM580 20q117 0 219 40q106 42 151 79l45 41v211
q-19 16 -49 36q-31 21 -140 58q-110 35 -226 35q-176 0 -296 -63q-120 -65 -120 -187q0 -123 120 -186q119 -64 296 -64zM862 1311h-491v41h491v-41z" />
    <glyph glyph-name="Abreve" unicode="&#x102;" horiz-adv-x="1386" 
d="M1325 0h-45l-164 395h-846l-164 -395h-45l596 1434h72zM1098 436l-406 975l-405 -975h811zM870 1688q-65 -50 -177 -50t-177 50t-65 127v4h41v-4q0 -59 53.5 -97.5t146.5 -38.5q94 0 147.5 38t53.5 98v4h41v-4q0 -78 -64 -127z" />
    <glyph glyph-name="abreve" unicode="&#x103;" horiz-adv-x="1267" 
d="M1157 -10q-66 0 -106 34q-41 33 -47 66l-9 35q-10 -9 -53 -41q-33 -24 -143 -64q-108 -40 -219 -40q-196 0 -326 76q-131 75 -131 215q0 138 131 215q131 75 326 75q116 0 218 -28q101 -28 150 -58l47 -31v211q0 110 -62 184q-64 73 -144 98q-84 26 -179 26
q-97 0 -174.5 -25t-115.5 -62q-75 -74 -87 -135l-4 -24h-43q0 33 34 100q24 49 65 87q40 37 127 69q84 31 198 31q175 0 300 -85q126 -85 126 -264v-501q0 -54 30.5 -88.5t90.5 -34.5q28 0 62 14l8 4v-41q-27 -18 -70 -18zM580 20q117 0 219 40q106 42 151 79l45 41v211
q-19 16 -49 36q-31 21 -140 58q-110 35 -226 35q-176 0 -296 -63q-120 -65 -120 -187q0 -123 120 -186q119 -64 296 -64zM794 1278q-64 -49 -177 -49t-177 49q-65 50 -65 127v4h41v-4q0 -59 53.5 -97t147.5 -38q93 0 146.5 38t53.5 97v4h41v-4q0 -78 -64 -127z" />
    <glyph glyph-name="Aogonek" unicode="&#x104;" horiz-adv-x="1386" 
d="M657 1434h72l596 -1434q-58 -31 -114 -95q-44 -50 -44 -98q0 -40 33 -67t89 -27t88 31.5t32 81.5h41q0 -63 -40 -109q-40 -45 -122 -45q-80 0 -121 41t-41 94q0 55 37 104q39 51 74 75l39 24l-160 385h-846l-164 -395h-45zM1098 436l-406 975l-405 -975h811z" />
    <glyph glyph-name="aogonek" unicode="&#x105;" horiz-adv-x="1267" 
d="M1227 49v-41q-32 -17 -49 -28q-30 -17 -77 -69q-48 -53 -48 -104q0 -40 32.5 -67t88.5 -27t88 31.5t32 81.5h41q0 -63 -40 -109q-41 -45 -121 -45t-121 41t-41 94q0 49 31 95q30 47 61 69l31 21q-59 5 -92 38q-35 33 -42 64l-6 31q-10 -9 -53 -41q-33 -24 -143 -64
q-108 -40 -219 -40q-196 0 -326 76q-131 75 -131 215q0 138 131 215q131 75 326 75q116 0 218 -28q101 -28 150 -58l47 -31v211q0 110 -62 184q-64 73 -144 98q-84 26 -179 26q-97 0 -174.5 -25t-115.5 -62q-75 -74 -87 -135l-4 -24h-43q0 33 34 100q24 49 65 87
q40 37 127 69q84 31 198 31q175 0 300 -85q126 -85 126 -264v-501q0 -54 30.5 -88.5t90.5 -34.5q28 0 62 14zM580 20q117 0 219 40q106 42 151 79l45 41v211q-19 16 -49 36q-31 21 -140 58q-110 35 -226 35q-176 0 -296 -63q-120 -65 -120 -187q0 -123 120 -186
q119 -64 296 -64z" />
    <glyph glyph-name="Cacute" unicode="&#x106;" horiz-adv-x="1652" 
d="M347 190q-183 208 -183 527q0 316 182 527q182 210 494 210q122 0 225.5 -30.5t171.5 -82.5q67 -52 117 -112q98 -122 141 -316l4 -32h-41q0 3 -2 13t-3 17q-3 21 -19 74q-35 117 -114 218q-50 65 -112 107.5t-156 72.5q-98 30 -212 30q-293 0 -464 -198
q-171 -199 -171 -498t171 -498t464 -199q157 0 280 56q122 56 183 133q124 158 147 289l8 55h41q-1 -5 -2.5 -16.5t-2.5 -15.5q-3 -18 -20 -80q-39 -130 -120 -235q-53 -69 -120 -115.5t-166 -77.5q-104 -33 -228 -33q-312 0 -493 210zM877 1618h-54l307 328h54z" />
    <glyph glyph-name="cacute" unicode="&#x107;" horiz-adv-x="1243" 
d="M267 123q-144 143 -144 369q0 225 144 369q143 143 366 143q121 0 220 -38q96 -37 148 -92q102 -111 121 -202l8 -37h-43q-1 10 -8 36q-5 19 -35 78q-30 55 -75 99q-44 42 -134 79q-90 36 -202 36q-211 0 -340 -134q-129 -135 -129 -337q0 -204 129 -337
q129 -135 340 -135q115 0 202 34q90 35 134 82q92 98 112 179l6 33h43q-1 -9 -8 -39q-6 -26 -39 -89q-35 -65 -83 -112q-49 -49 -147 -88q-96 -40 -220 -40q-223 0 -366 143zM662 1208h-54l307 328h54z" />
    <glyph glyph-name="Ccircumflex" unicode="&#x108;" horiz-adv-x="1652" 
d="M347 190q-183 208 -183 527q0 316 182 527q182 210 494 210q122 0 225.5 -30.5t171.5 -82.5q67 -52 117 -112q98 -122 141 -316l4 -32h-41q0 3 -2 13t-3 17q-3 21 -19 74q-35 117 -114 218q-50 65 -112 107.5t-156 72.5q-98 30 -212 30q-293 0 -464 -198
q-171 -199 -171 -498t171 -498t464 -199q157 0 280 56q122 56 183 133q124 158 147 289l8 55h41q-1 -5 -2.5 -16.5t-2.5 -15.5q-3 -18 -20 -80q-39 -130 -120 -235q-53 -69 -120 -115.5t-166 -77.5q-104 -33 -228 -33q-312 0 -493 210zM809 1946h63l277 -328h-51l-258 305
l-256 -305h-52z" />
    <glyph glyph-name="ccircumflex" unicode="&#x109;" horiz-adv-x="1243" 
d="M267 123q-144 143 -144 369q0 225 144 369q143 143 366 143q121 0 220 -38q96 -37 148 -92q102 -111 121 -202l8 -37h-43q-1 10 -8 36q-5 19 -35 78q-30 55 -75 99q-44 42 -134 79q-90 36 -202 36q-211 0 -340 -134q-129 -135 -129 -337q0 -204 129 -337
q129 -135 340 -135q115 0 202 34q90 35 134 82q92 98 112 179l6 33h43q-1 -9 -8 -39q-6 -26 -39 -89q-35 -65 -83 -112q-49 -49 -147 -88q-96 -40 -220 -40q-223 0 -366 143zM604 1536h64l276 -328h-51l-258 305l-256 -305h-51z" />
    <glyph glyph-name="Ccaron" unicode="&#x10c;" horiz-adv-x="1652" 
d="M347 190q-183 208 -183 527q0 316 182 527q182 210 494 210q122 0 225.5 -30.5t171.5 -82.5q67 -52 117 -112q98 -122 141 -316l4 -32h-41q0 3 -2 13t-3 17q-3 21 -19 74q-35 117 -114 218q-50 65 -112 107.5t-156 72.5q-98 30 -212 30q-293 0 -464 -198
q-171 -199 -171 -498t171 -498t464 -199q157 0 280 56q122 56 183 133q124 158 147 289l8 55h41q-1 -5 -2.5 -16.5t-2.5 -15.5q-3 -18 -20 -80q-39 -130 -120 -235q-53 -69 -120 -115.5t-166 -77.5q-104 -33 -228 -33q-312 0 -493 210zM1098 1946h51l-277 -328h-63l-277 328
h52l256 -306z" />
    <glyph glyph-name="ccaron" unicode="&#x10d;" horiz-adv-x="1243" 
d="M267 123q-144 143 -144 369q0 225 144 369q143 143 366 143q121 0 220 -38q96 -37 148 -92q102 -111 121 -202l8 -37h-43q-1 10 -8 36q-5 19 -35 78q-30 55 -75 99q-44 42 -134 79q-90 36 -202 36q-211 0 -340 -134q-129 -135 -129 -337q0 -204 129 -337
q129 -135 340 -135q115 0 202 34q90 35 134 82q92 98 112 179l6 33h43q-1 -9 -8 -39q-6 -26 -39 -89q-35 -65 -83 -112q-49 -49 -147 -88q-96 -40 -220 -40q-223 0 -366 143zM893 1536h51l-276 -328h-64l-276 328h51l256 -305z" />
    <glyph glyph-name="Dcaron" unicode="&#x10e;" horiz-adv-x="1576" 
d="M246 1434h481q311 0 499 -204q187 -203 187 -513t-187 -513q-188 -204 -499 -204h-481v1434zM1196 234q176 193 176 483t-176 484q-176 192 -469 192h-440v-1352h440q294 0 469 193zM973 1946h51l-276 -328h-64l-276 328h51l256 -306z" />
    <glyph glyph-name="dcaron" unicode="&#x10f;" horiz-adv-x="1421" 
d="M1114 1434h41v-1434h-41v266h-4q-6 -15 -13 -31q-13 -24 -47 -69q-37 -49 -86 -87q-51 -39 -136 -68q-86 -31 -189 -31q-230 0 -372 142q-144 142 -144 370t144 370q142 142 372 142q98 0 184.5 -29t140.5 -73q97 -81 134 -157l12 -28h4v717zM639 963q-217 0 -346 -133
q-129 -134 -129 -338t129 -338t346 -134t346 136q129 135 129 336q0 203 -131 337t-344 134zM1360 1393q0 41 41 41t41 -60q0 -47 -8 -108q-8 -52 -17 -88l-8 -31h-12v164q0 31 -18 40q-19 9 -19 42z" />
    <glyph glyph-name="Dcroat" unicode="&#x110;" horiz-adv-x="1597" 
d="M266 717h-225v41h225v676h482q312 0 499 -204q187 -203 187 -513t-187 -513q-187 -204 -499 -204h-482v717zM1217 234q176 193 176 483t-176 484q-177 192 -469 192h-441v-635h369v-41h-369v-676h441q294 0 469 193z" />
    <glyph glyph-name="dslash" unicode="&#x111;" horiz-adv-x="1341" 
d="M250 111q-137 134 -137 348t137 348q136 133 348 133q90 0 171 -26.5t129 -67.5q101 -86 126 -141l14 -29h4v512h-438v41h438v205h41v-205h279v-41h-279v-1188h-41v242h-4q-6 -14 -13 -28q-8 -18 -45 -64q-34 -44 -81 -80t-126 -64q-82 -29 -175 -29q-211 0 -348 134z
M277 775q-123 -125 -123 -316q0 -192 123 -317q121 -124 321 -124q195 0 320 122q124 121 124 319q0 192 -122 317q-123 123 -322 123q-200 0 -321 -124z" />
    <glyph glyph-name="Emacron" unicode="&#x112;" horiz-adv-x="1351" 
d="M1208 0h-962v1434h962v-41h-921v-643h811v-41h-811v-668h921v-41zM973 1700h-492v41h492v-41z" />
    <glyph glyph-name="emacron" unicode="&#x113;" horiz-adv-x="1247" 
d="M1135 492q0 -25 -5 -62h-964q1 -14 6 -44q5 -29 34 -98q30 -72 75 -125q45 -54 140 -98q95 -45 218 -45q89 0 166 22t122 56q90 68 109 117l11 23h45q-1 -2 -4.5 -11.5t-6.5 -15.5q-7 -18 -42 -63q-34 -45 -81 -79q-45 -34 -132 -61q-84 -28 -187 -28q-230 0 -372 142
q-144 142 -144 370q0 226 142 369q141 143 364 143q222 0 365 -143q141 -144 141 -369zM1094 471v21q0 205 -127 338t-338 133t-338 -133t-127 -338v-21h930zM870 1311h-491v41h491v-41z" />
    <glyph glyph-name="Edotaccent" unicode="&#x116;" horiz-adv-x="1351" 
d="M1208 0h-962v1434h962v-41h-921v-643h811v-41h-811v-668h921v-41zM733 1700q-41 0 -41 41t41 41t41 -41t-41 -41z" />
    <glyph glyph-name="edotaccent" unicode="&#x117;" horiz-adv-x="1247" 
d="M1135 492q0 -25 -5 -62h-964q1 -14 6 -44q5 -29 34 -98q30 -72 75 -125q45 -54 140 -98q95 -45 218 -45q89 0 166 22t122 56q90 68 109 117l11 23h45q-1 -2 -4.5 -11.5t-6.5 -15.5q-7 -18 -42 -63q-34 -45 -81 -79q-45 -34 -132 -61q-84 -28 -187 -28q-230 0 -372 142
q-144 142 -144 370q0 226 142 369q141 143 364 143q222 0 365 -143q141 -144 141 -369zM1094 471v21q0 205 -127 338t-338 133t-338 -133t-127 -338v-21h930zM629 1290q-41 0 -41 41t41 41t41 -41t-41 -41z" />
    <glyph glyph-name="Eogonek" unicode="&#x118;" horiz-adv-x="1351" 
d="M1149 0h-903v1434h962v-41h-921v-643h811v-41h-811v-668h921v-41q-56 -30 -113 -95q-44 -50 -44 -98q0 -40 32.5 -67t88.5 -27t88 31.5t32 81.5h41q0 -63 -40 -109q-41 -45 -122 -45q-79 0 -120 41t-41 94q0 50 35 99q33 48 69 71z" />
    <glyph glyph-name="eogonek" unicode="&#x119;" horiz-adv-x="1247" 
d="M1135 492q0 -25 -5 -62h-964q1 -14 6 -44q5 -29 34 -98q30 -72 75 -125q45 -54 140 -98q95 -45 218 -45q89 0 166 22t122 56q90 68 109 117l11 23h45q-9 -21 -11 -25q-7 -15 -39 -58q-30 -40 -74 -76q-45 -36 -123 -63.5t-167 -33.5q-45 -26 -92 -88q-35 -47 -35 -87
t32.5 -67t88.5 -27t88.5 31.5t32.5 81.5h41q0 -63 -40 -109q-41 -45 -122 -45q-80 0 -121 41t-41 94q0 47 27 90q26 44 53 62l26 21q-220 7 -357 149q-136 140 -136 363q0 226 142 369q141 143 364 143q222 0 365 -143q141 -144 141 -369zM1094 471v21q0 205 -127 338
t-338 133t-338 -133t-127 -338v-21h930z" />
    <glyph glyph-name="Ecaron" unicode="&#x11a;" horiz-adv-x="1351" 
d="M1208 0h-962v1434h962v-41h-921v-643h811v-41h-811v-668h921v-41zM983 1946h51l-276 -328h-64l-276 328h51l256 -306z" />
    <glyph glyph-name="ecaron" unicode="&#x11b;" horiz-adv-x="1247" 
d="M1135 492q0 -25 -5 -62h-964q1 -14 6 -44q5 -29 34 -98q30 -72 75 -125q45 -54 140 -98q95 -45 218 -45q89 0 166 22t122 56q90 68 109 117l11 23h45q-1 -2 -4.5 -11.5t-6.5 -15.5q-7 -18 -42 -63q-34 -45 -81 -79q-45 -34 -132 -61q-84 -28 -187 -28q-230 0 -372 142
q-144 142 -144 370q0 226 142 369q141 143 364 143q222 0 365 -143q141 -144 141 -369zM1094 471v21q0 205 -127 338t-338 133t-338 -133t-127 -338v-21h930zM883 1536h51l-277 -328h-63l-277 328h52l256 -305z" />
    <glyph glyph-name="Gbreve" unicode="&#x11e;" horiz-adv-x="1740" 
d="M860 676v41h656v-717h-41v451h-5q-5 -20 -15 -50q-9 -27 -58 -114q-45 -80 -111 -143q-65 -62 -183 -113q-119 -51 -263 -51q-306 0 -490 211q-186 210 -186 526t188 527q188 210 498 210q115 0 216 -29.5t170 -79.5q65 -47 119 -108q104 -120 154 -305l7 -31h-41
q-1 8 -6 29q-5 18 -24 72q-41 111 -124 209q-55 63 -116.5 105t-151.5 69q-93 28 -203 28q-294 0 -469 -198q-176 -200 -176 -498q0 -297 174 -497t461 -200q142 0 259 53q115 53 183 129q69 78 113 171q78 163 78 303h-613zM1017 1688q-65 -50 -177 -50t-177 50t-65 127v4
h41v-4q0 -59 53.5 -97.5t147.5 -38.5q93 0 146.5 38t53.5 98v4h41v-4q0 -78 -64 -127z" />
    <glyph glyph-name="gbreve" unicode="&#x11f;" horiz-adv-x="1099" 
d="M41 -123q0 63 28.5 117.5t71.5 85.5q80 57 154 74l31 6v4q-1 0 -9 1t-11.5 2t-12 2.5t-15 4.5t-15.5 7t-19 10t-21 14q-39 29 -39 71q0 41 38 71q38 31 77 38l37 8v4q-28 8 -74 35q-35 20 -65 51q-31 32 -52.5 86.5t-21.5 116.5q0 152 110 235t295 83h510v-41h-276v-5
q24 -9 61 -35q33 -26 52 -50q59 -75 59 -187q0 -152 -109 -234q-110 -83 -297 -83q-303 0 -303 -92q0 -93 303 -93q220 0 354 -82q134 -83 134 -225t-134 -225q-133 -82 -353 -82q-221 0 -354 82q-134 83 -134 225zM851 -320q124 70 124 197t-124 197q-124 69 -323 69h-20
q-190 -4 -308 -73q-118 -70 -118 -193q0 -127 124 -197q125 -69 323 -69q197 0 322 69zM164 686q0 -131 94 -201q95 -71 254 -75h16q165 0 266 71q99 71 99 205q0 136 -99 206q-101 71 -266 71t-265 -71q-99 -70 -99 -206zM677 1278q-64 -49 -177 -49t-177 49
q-65 50 -65 127v4h41v-4q0 -59 53.5 -97t147.5 -38q93 0 146.5 38t53.5 97v4h41v-4q0 -78 -64 -127z" />
    <glyph glyph-name="uni0122" unicode="&#x122;" horiz-adv-x="1740" 
d="M860 676v41h656v-717h-41v451h-5q-5 -20 -15 -50q-9 -27 -58 -114q-45 -80 -111 -143q-65 -62 -183 -113q-119 -51 -263 -51q-306 0 -490 211q-186 210 -186 526t188 527q188 210 498 210q115 0 216 -29.5t170 -79.5q65 -47 119 -108q104 -120 154 -305l7 -31h-41
q-1 8 -6 29q-5 18 -24 72q-41 111 -124 209q-55 63 -116.5 105t-151.5 69q-93 28 -203 28q-294 0 -469 -198q-176 -200 -176 -498q0 -297 174 -497t461 -200q142 0 259 53q115 53 183 129q69 78 113 171q78 163 78 303h-613zM811 -266q0 41 41 41t41 -60q0 -47 -8 -109
q-7 -54 -17 -87l-8 -31h-12v164q0 31 -18 40q-19 9 -19 42z" />
    <glyph glyph-name="uni0123" unicode="&#x123;" horiz-adv-x="1099" 
d="M41 -123q0 63 28.5 117.5t71.5 85.5q80 57 154 74l31 6v4q-1 0 -9 1t-11.5 2t-12 2.5t-15 4.5t-15.5 7t-19 10t-21 14q-39 29 -39 71q0 41 38 71q38 31 77 38l37 8v4q-28 8 -74 35q-35 20 -65 51q-31 32 -52.5 86.5t-21.5 116.5q0 152 110 235t295 83h510v-41h-276v-5
q24 -9 61 -35q33 -26 52 -50q59 -75 59 -187q0 -152 -109 -234q-110 -83 -297 -83q-303 0 -303 -92q0 -93 303 -93q220 0 354 -82q134 -83 134 -225t-134 -225q-133 -82 -353 -82q-221 0 -354 82q-134 83 -134 225zM851 -320q124 70 124 197t-124 197q-124 69 -323 69h-20
q-190 -4 -308 -73q-118 -70 -118 -193q0 -127 124 -197q125 -69 323 -69q197 0 322 69zM164 686q0 -131 94 -201q95 -71 254 -75h16q165 0 266 71q99 71 99 205q0 136 -99 206q-101 71 -266 71t-265 -71q-99 -70 -99 -206zM586 1270q0 -41 -41 -41t-41 59q0 47 8 109
q6 46 16 88l9 31h12v-164q0 -31 19 -40q18 -9 18 -42z" />
    <glyph glyph-name="Imacron" unicode="&#x12a;" horiz-adv-x="1105" 
d="M532 1393h-409v41h860v-41h-410v-1352h410v-41h-860v41h409v1352zM799 1700h-492v41h492v-41z" />
    <glyph glyph-name="imacron" unicode="&#x12b;" horiz-adv-x="409" 
d="M184 983h41v-983h-41v983zM451 1311h-492v41h492v-41z" />
    <glyph glyph-name="Iogonek" unicode="&#x12e;" horiz-adv-x="1105" 
d="M889 -23l35 23h-801v41h409v1352h-409v41h860v-41h-410v-1352h410v-41q-58 -31 -114 -95q-44 -50 -44 -98q0 -40 33 -67t89 -27t88 31.5t32 81.5h41q0 -63 -40 -109q-40 -45 -122 -45q-80 0 -121 41t-41 94q0 50 35 99q32 46 70 71z" />
    <glyph glyph-name="iogonek" unicode="&#x12f;" horiz-adv-x="409" 
d="M145 -8l39 22v969h41v-983q-56 -30 -113 -95q-44 -50 -44 -98q0 -40 32.5 -67t88.5 -27t88 31.5t32 81.5h41q0 -63 -40 -109q-40 -45 -122 -45q-79 0 -120 41t-41 94q0 55 40 107q39 52 78 78zM205 1352q-41 0 -41 41t41 41t41 -41t-41 -41z" />
    <glyph glyph-name="Idot" unicode="&#x130;" horiz-adv-x="1105" 
d="M532 1393h-409v41h860v-41h-410v-1352h410v-41h-860v41h409v1352zM547 1688q-41 0 -41 41q0 40 41 40t41 -40q0 -41 -41 -41z" />
    <glyph glyph-name="dotlessi" unicode="&#x131;" horiz-adv-x="409" 
d="M184 983h41v-983h-41v983z" />
    <glyph glyph-name="uni0136" unicode="&#x136;" horiz-adv-x="1280" 
d="M1239 0h-68l-884 727v-727h-41v1434h41v-707l837 707h64l-836 -705zM657 -266q0 41 41 41t41 -60q0 -47 -8 -109q-6 -49 -16 -87l-8 -31h-13v164q0 31 -18 40q-19 9 -19 42z" />
    <glyph glyph-name="uni0137" unicode="&#x137;" horiz-adv-x="1060" 
d="M1020 0h-70l-725 512v-512h-41v1434h41v-922l676 471h72l-676 -471zM553 -266q0 41 41 41t41 -60q0 -47 -8 -109q-8 -52 -17 -87l-8 -31h-12v164q0 31 -18 40q-19 9 -19 42z" />
    <glyph glyph-name="Lacute" unicode="&#x139;" horiz-adv-x="1269" 
d="M287 41h942v-41h-983v1434h41v-1393zM295 1597h-53l307 328h53z" />
    <glyph glyph-name="lacute" unicode="&#x13a;" horiz-adv-x="409" 
d="M184 1434h41v-1434h-41v1434zM233 1618h-53l307 328h54z" />
    <glyph glyph-name="uni013B" unicode="&#x13b;" horiz-adv-x="1269" 
d="M287 41h942v-41h-983v1434h41v-1393zM719 -266q0 41 41 41t41 -60q0 -47 -8 -109q-8 -52 -17 -87l-8 -31h-12v164q0 31 -18 40q-19 9 -19 42z" />
    <glyph glyph-name="uni013C" unicode="&#x13c;" horiz-adv-x="409" 
d="M184 1434h41v-1434h-41v1434zM164 -266q0 41 41 41t41 -60q0 -47 -8 -109q-8 -52 -17 -87l-8 -31h-12v164q0 31 -18 40q-19 9 -19 42z" />
    <glyph glyph-name="Lcaron" unicode="&#x13d;" horiz-adv-x="1269" 
d="M287 41h942v-41h-983v1434h41v-1393zM594 1393q0 41 41 41t41 -60q0 -47 -8 -108q-8 -52 -17 -88l-8 -31h-12v164q0 31 -18 40q-19 9 -19 42z" />
    <glyph glyph-name="lcaron" unicode="&#x13e;" horiz-adv-x="491" 
d="M184 1434h41v-1434h-41v1434zM430 1393q0 41 41 41t41 -60q0 -47 -8 -108q-7 -55 -17 -88l-8 -31h-12v164q0 31 -18 40q-19 9 -19 42z" />
    <glyph glyph-name="Lslash" unicode="&#x141;" horiz-adv-x="1269" 
d="M246 600l-205 -108v43l205 108v791h41v-770l348 186v-43l-348 -186v-580h942v-41h-983v600z" />
    <glyph glyph-name="lslash" unicode="&#x142;" horiz-adv-x="542" 
d="M246 641l-205 -109v43l205 109v750h41v-729l215 116v-43l-215 -116v-662h-41v641z" />
    <glyph glyph-name="Nacute" unicode="&#x143;" horiz-adv-x="1607" 
d="M1362 0h-68l-1007 1399v-1399h-41v1434h67l1008 -1399v1399h41v-1434zM862 1618h-53l307 328h53z" />
    <glyph glyph-name="nacute" unicode="&#x144;" horiz-adv-x="1241" 
d="M1077 0h-41v543q0 214 -113 318q-114 102 -292 102q-199 0 -302 -123q-104 -124 -104 -308v-532h-41v983h41v-235h4q7 30 47 89q27 42 70 78q39 32 117 61q75 28 168 28q198 0 323 -114q123 -114 123 -347v-543zM641 1208h-53l307 328h53z" />
    <glyph glyph-name="uni0145" unicode="&#x145;" horiz-adv-x="1607" 
d="M1362 0h-68l-1007 1399v-1399h-41v1434h67l1008 -1399v1399h41v-1434zM791 -266q0 41 41 41q40 0 40 -60q0 -47 -8 -109q-6 -49 -16 -87l-8 -31h-13v164q0 31 -18 40t-18 42z" />
    <glyph glyph-name="uni0146" unicode="&#x146;" horiz-adv-x="1241" 
d="M1077 0h-41v543q0 214 -113 318q-114 102 -292 102q-199 0 -302 -123q-104 -124 -104 -308v-532h-41v983h41v-235h4q7 30 47 89q27 42 70 78q39 32 117 61q75 28 168 28q198 0 323 -114q123 -114 123 -347v-543zM592 -266q0 41 41 41t41 -60q0 -47 -8 -109
q-8 -52 -17 -87l-8 -31h-12v164q0 31 -18 40q-19 9 -19 42z" />
    <glyph glyph-name="Ncaron" unicode="&#x147;" horiz-adv-x="1607" 
d="M1362 0h-68l-1007 1399v-1399h-41v1434h67l1008 -1399v1399h41v-1434zM1106 1946h51l-276 -328h-64l-276 328h51l256 -306z" />
    <glyph glyph-name="ncaron" unicode="&#x148;" horiz-adv-x="1241" 
d="M1077 0h-41v543q0 214 -113 318q-114 102 -292 102q-199 0 -302 -123q-104 -124 -104 -308v-532h-41v983h41v-235h4q7 30 47 89q27 42 70 78q39 32 117 61q75 28 168 28q198 0 323 -114q123 -114 123 -347v-543zM887 1536h51l-276 -328h-64l-276 328h51l256 -305z" />
    <glyph glyph-name="Omacron" unicode="&#x14c;" horiz-adv-x="1699" 
d="M1349 1244q187 -209 187 -527q0 -319 -187 -527q-187 -210 -499 -210q-310 0 -498 210q-188 209 -188 527q0 316 188 527q188 210 498 210q312 0 499 -210zM381 1215q-176 -200 -176 -498t176 -498q175 -199 469 -199t469 199q176 200 176 498t-176 498
q-175 198 -469 198t-469 -198zM1096 1700h-492v41h492v-41z" />
    <glyph glyph-name="omacron" unicode="&#x14d;" horiz-adv-x="1277" 
d="M267 122q-144 142 -144 370t144 370q142 142 372 142t373 -142q143 -143 143 -370t-143 -370q-143 -142 -373 -142t-372 142zM985 830q-129 133 -346 133t-346 -133q-129 -134 -129 -338t129 -338t346 -134t346 134q129 133 129 338q0 204 -129 338zM885 1311h-492v41
h492v-41z" />
    <glyph glyph-name="Ohungarumlaut" unicode="&#x150;" horiz-adv-x="1699" 
d="M1349 1244q187 -209 187 -527q0 -319 -187 -527q-187 -210 -499 -210q-310 0 -498 210q-188 209 -188 527q0 316 188 527q188 210 498 210q312 0 499 -210zM381 1215q-176 -200 -176 -498t176 -498q175 -199 469 -199t469 199q176 200 176 498t-176 498
q-175 198 -469 198t-469 -198zM715 1618h-56l349 328h55zM1001 1618h-55l348 328h56z" />
    <glyph glyph-name="ohungarumlaut" unicode="&#x151;" horiz-adv-x="1277" 
d="M267 122q-144 142 -144 370t144 370q142 142 372 142t373 -142q143 -143 143 -370t-143 -370q-143 -142 -373 -142t-372 142zM985 830q-129 133 -346 133t-346 -133q-129 -134 -129 -338t129 -338t346 -134t346 134q129 133 129 338q0 204 -129 338zM502 1208h-56
l349 328h55zM788 1208h-55l348 328h56z" />
    <glyph glyph-name="OE" unicode="&#x152;" horiz-adv-x="1976" 
d="M361 202q-197 202 -197 515q0 312 197 515q196 202 550 202h922v-41h-778v-643h667v-41h-667v-668h778v-41h-922q-354 0 -550 202zM1014 1393h-103q-337 0 -521 -190q-185 -191 -185 -486q0 -294 185 -485t521 -191h103v1352z" />
    <glyph glyph-name="oe" unicode="&#x153;" horiz-adv-x="2013" 
d="M123 494q0 217 123 364q123 146 332 146q99 0 182.5 -34t129.5 -87q90 -105 109 -187l11 -34h4q2 15 9 37q9 26 38 82q33 62 74 104q43 44 126 82q81 37 185 37q209 0 332 -146q123 -147 123 -366l-3 -52h-864q0 -16 3 -44q3 -31 28 -102q26 -74 65 -128q38 -54 125 -100
q85 -46 201 -46q82 0 150.5 22t106.5 56q75 65 89 117l6 23h50q-7 -32 -42 -90q-29 -47 -68 -79q-44 -37 -122 -63t-170 -26q-105 0 -191 36q-84 34 -130 86q-94 105 -113 185l-8 37h-4q-2 -15 -9 -37q-8 -23 -38 -82q-32 -61 -74 -106q-43 -46 -126 -82q-81 -37 -185 -37
q-209 0 -332 148q-123 147 -123 366zM991 475q0 215 -104 352q-105 136 -309 136q-197 0 -305 -136q-109 -136 -109 -333q0 -198 109 -335q108 -139 305 -139q195 0 305 137q108 137 108 318zM1860 481v11q0 198 -109 334q-110 137 -305 137q-203 0 -308 -136
q-106 -136 -106 -346h828z" />
    <glyph glyph-name="Racute" unicode="&#x154;" horiz-adv-x="1437" 
d="M1305 0h-45l-416 614h-557v-614h-41v1434h604q174 0 287 -117q112 -116 112 -293q0 -104 -40.5 -188.5t-103.5 -131.5q-119 -88 -214 -88zM1208 1024q0 158 -99 264q-99 105 -259 105h-563v-738h563q157 0 258 104q100 103 100 265zM698 1618h-53l307 328h54z" />
    <glyph glyph-name="racute" unicode="&#x155;" horiz-adv-x="794" 
d="M631 1004q42 0 104 -13l19 -4v-41q-62 15 -123 17q-198 0 -301 -136q-105 -137 -105 -325v-502h-41v983h41v-250h4q8 19 12 29q10 23 38 65q31 48 71 82q41 35 116 65t165 30zM469 1208h-53l307 328h53z" />
    <glyph glyph-name="uni0156" unicode="&#x156;" horiz-adv-x="1437" 
d="M1305 0h-45l-416 614h-557v-614h-41v1434h604q174 0 287 -117q112 -116 112 -293q0 -104 -40.5 -188.5t-103.5 -131.5q-119 -88 -214 -88zM1208 1024q0 158 -99 264q-99 105 -259 105h-563v-738h563q157 0 258 104q100 103 100 265zM700 -266q0 41 41 41t41 -60
q0 -47 -8 -109q-6 -49 -16 -87l-8 -31h-13v164q0 31 -18 40q-19 9 -19 42z" />
    <glyph glyph-name="uni0157" unicode="&#x157;" horiz-adv-x="794" 
d="M631 1004q42 0 104 -13l19 -4v-41q-62 15 -123 17q-198 0 -301 -136q-105 -137 -105 -325v-502h-41v983h41v-250h4q8 19 12 29q10 23 38 65q31 48 71 82q41 35 116 65t165 30zM164 -266q0 41 41 41t41 -60q0 -47 -8 -109q-8 -52 -17 -87l-8 -31h-12v164q0 31 -18 40
q-19 9 -19 42z" />
    <glyph glyph-name="Rcaron" unicode="&#x158;" horiz-adv-x="1437" 
d="M1305 0h-45l-416 614h-557v-614h-41v1434h604q174 0 287 -117q112 -116 112 -293q0 -104 -40.5 -188.5t-103.5 -131.5q-119 -88 -214 -88zM1208 1024q0 158 -99 264q-99 105 -259 105h-563v-738h563q157 0 258 104q100 103 100 265zM963 1946h51l-277 -328h-63l-277 328
h52l256 -306z" />
    <glyph glyph-name="rcaron" unicode="&#x159;" horiz-adv-x="794" 
d="M631 1004q42 0 104 -13l19 -4v-41q-62 15 -123 17q-198 0 -301 -136q-105 -137 -105 -325v-502h-41v983h41v-250h4q8 19 12 29q10 23 38 65q31 48 71 82q41 35 116 65t165 30zM729 1536h51l-276 -328h-64l-276 328h51l256 -305z" />
    <glyph glyph-name="Sacute" unicode="&#x15a;" horiz-adv-x="1443" 
d="M1219 1004h-41v40q0 182 -132 276q-134 93 -333 93q-196 0 -330 -91q-135 -92 -135 -247q0 -102 55 -171t150 -101q42 -14 100 -27.5t96.5 -21t118 -20.5t107.5 -18q105 -19 200 -52q89 -33 148 -104q57 -71 57 -181q0 -182 -156 -290q-157 -109 -397 -109
q-246 0 -399 117q-154 115 -154 333v82h41v-82q0 -196 144 -302q143 -108 368 -108q222 0 367 100q145 99 145 259q0 98 -55 162.5t-150 95.5q-54 17 -121 31t-161.5 29.5t-138.5 23.5q-111 19 -201 54q-91 35 -147 110q-58 76 -58 190q0 178 146 279q145 100 360 100
q221 0 364 -102q142 -103 142 -308v-40zM731 1618h-53l307 328h53z" />
    <glyph glyph-name="sacute" unicode="&#x15b;" horiz-adv-x="1138" 
d="M123 317v43h41v-43q0 -144 116 -221q115 -76 289 -76q181 0 293 58q113 57 113 186q0 90 -85 138q-88 48 -207 64q-88 12 -244 37q-121 19 -207 75q-85 55 -85 157q0 125 113 197q112 72 299 72q189 0 302 -79q114 -79 114 -218h-41q0 123 -103 190q-103 66 -272 66
q-165 0 -268 -59q-103 -60 -103 -169q0 -91 85 -137t207 -63q128 -17 244 -36q119 -19 207 -76q85 -55 85 -159q0 -145 -124 -214q-124 -70 -323 -70q-196 0 -320 88q-126 87 -126 249zM565 1208h-53l307 328h53z" />
    <glyph glyph-name="Scedilla" unicode="&#x15e;" horiz-adv-x="1443" 
d="M739 -143h-82v41l70 82q-246 0 -399 117q-154 115 -154 333v82h41v-82q0 -196 144 -302q143 -108 368 -108q222 0 367 100q145 99 145 259q0 98 -55 162.5t-150 95.5q-54 17 -121 31t-161.5 29.5t-138.5 23.5q-111 19 -201 54q-91 35 -147 110q-58 76 -58 190
q0 178 146 279q145 100 360 100q221 0 364 -102q142 -103 142 -308v-40h-41v40q0 182 -132 276q-134 93 -333 93q-196 0 -330 -91q-135 -92 -135 -247q0 -102 55 -171t150 -101q42 -14 100 -27.5t96.5 -21t118 -20.5t107.5 -18q105 -19 200 -52q89 -33 148 -104
q57 -71 57 -181q0 -172 -139 -278q-140 -107 -361 -119l-69 -84h28q85 0 129.5 -37t44.5 -101q0 -63 -44.5 -100t-129.5 -37q-83 0 -128.5 41.5t-45.5 106.5h41q0 -49 35.5 -78t97.5 -29q133 0 133 96q0 97 -133 97z" />
    <glyph glyph-name="scedilla" unicode="&#x15f;" horiz-adv-x="1138" 
d="M551 -143h-82v41l72 84q-181 6 -300 93q-118 87 -118 242v43h41v-43q0 -144 116 -221q115 -76 289 -76q181 0 293 58q113 57 113 186q0 90 -85 138q-88 48 -207 64q-88 12 -244 37q-121 19 -207 75q-85 55 -85 157q0 125 113 197q112 72 299 72q189 0 302 -79
q114 -79 114 -218h-41q0 123 -103 190q-103 66 -272 66q-165 0 -268 -59q-103 -60 -103 -169q0 -91 85 -137t207 -63q128 -17 244 -36q119 -19 207 -76q85 -55 85 -159q0 -141 -117 -210q-115 -69 -307 -74l-70 -82h29q85 0 129.5 -37t44.5 -101q0 -63 -44.5 -100
t-129.5 -37q-83 0 -128.5 41.5t-45.5 106.5h41q0 -49 35 -78t98 -29q133 0 133 96q0 97 -133 97z" />
    <glyph glyph-name="Scaron" unicode="&#x160;" horiz-adv-x="1443" 
d="M1219 1004h-41v40q0 182 -132 276q-134 93 -333 93q-196 0 -330 -91q-135 -92 -135 -247q0 -102 55 -171t150 -101q42 -14 100 -27.5t96.5 -21t118 -20.5t107.5 -18q105 -19 200 -52q89 -33 148 -104q57 -71 57 -181q0 -182 -156 -290q-157 -109 -397 -109
q-246 0 -399 117q-154 115 -154 333v82h41v-82q0 -196 144 -302q143 -108 368 -108q222 0 367 100q145 99 145 259q0 98 -55 162.5t-150 95.5q-54 17 -121 31t-161.5 29.5t-138.5 23.5q-111 19 -201 54q-91 35 -147 110q-58 76 -58 190q0 178 146 279q145 100 360 100
q221 0 364 -102q142 -103 142 -308v-40zM979 1946h51l-276 -328h-64l-276 328h51l256 -306z" />
    <glyph glyph-name="scaron" unicode="&#x161;" horiz-adv-x="1138" 
d="M123 317v43h41v-43q0 -144 116 -221q115 -76 289 -76q181 0 293 58q113 57 113 186q0 90 -85 138q-88 48 -207 64q-88 12 -244 37q-121 19 -207 75q-85 55 -85 157q0 125 113 197q112 72 299 72q189 0 302 -79q114 -79 114 -218h-41q0 123 -103 190q-103 66 -272 66
q-165 0 -268 -59q-103 -60 -103 -169q0 -91 85 -137t207 -63q128 -17 244 -36q119 -19 207 -76q85 -55 85 -159q0 -145 -124 -214q-124 -70 -323 -70q-196 0 -320 88q-126 87 -126 249zM809 1536h51l-276 -328h-64l-276 328h51l256 -305z" />
    <glyph glyph-name="uni0162" unicode="&#x162;" horiz-adv-x="1269" 
d="M614 1393h-573v41h1188v-41h-574v-1393h-41v1393zM594 -266q0 41 41 41t41 -60q0 -47 -8 -109q-8 -52 -17 -87l-8 -31h-12v164q0 31 -18 40q-19 9 -19 42z" />
    <glyph glyph-name="uni0163" unicode="&#x163;" horiz-adv-x="876" 
d="M250 348v594h-189v41h189v246h41v-246h463v-41h-463v-586q0 -336 282 -336q68 0 122 19q54 18 77 39l23 18v-47q-85 -71 -222 -69q-161 -1 -242 91.5t-81 276.5zM467 -266q0 41 41 41t41 -60q0 -47 -8 -109q-8 -52 -17 -87l-8 -31h-12v164q0 31 -18 40q-19 9 -19 42z" />
    <glyph glyph-name="Tcaron" unicode="&#x164;" horiz-adv-x="1269" 
d="M614 1393h-573v41h1188v-41h-574v-1393h-41v1393zM893 1946h51l-276 -328h-64l-276 328h51l256 -306z" />
    <glyph glyph-name="tcaron" unicode="&#x165;" horiz-adv-x="921" 
d="M250 348v594h-189v41h189v246h41v-246h463v-41h-463v-586q0 -336 282 -336q68 0 122 19q54 18 77 39l23 18v-47q-85 -71 -222 -69q-161 -1 -242 91.5t-81 276.5zM799 1188q0 41 41 41t41 -60q0 -47 -8 -108q-8 -49 -17 -88l-8 -31h-12v164q0 31 -18 40q-19 9 -19 42z" />
    <glyph glyph-name="Umacron" unicode="&#x16a;" horiz-adv-x="1576" 
d="M1191 102q-161 -122 -402 -122q-242 0 -403 122t-161 349v983h41v-983q0 -207 150 -319q148 -112 373 -112q224 0 373 112q149 113 149 319v983h41v-983q0 -227 -161 -349zM1034 1700h-491v41h491v-41z" />
    <glyph glyph-name="umacron" unicode="&#x16b;" 
d="M184 983h41v-543q0 -215 114 -317q113 -103 292 -103q198 0 302 123q103 122 103 308v532h41v-983h-41v236h-4q-8 -34 -46 -90q-30 -44 -71 -77q-39 -33 -116 -61q-75 -28 -168 -28q-198 0 -323 114q-124 112 -124 346v543zM895 1311h-492v41h492v-41z" />
    <glyph glyph-name="Uring" unicode="&#x16e;" horiz-adv-x="1576" 
d="M1191 102q-161 -122 -402 -122q-242 0 -403 122t-161 349v983h41v-983q0 -207 150 -319q148 -112 373 -112q224 0 373 112q149 113 149 319v983h41v-983q0 -227 -161 -349zM917 1604q-47 -48 -128 -48t-128 48q-47 47 -47 121q0 73 47 120t128 47t128 -47q46 -46 46 -120
q0 -75 -46 -121zM887 1814q-34 37 -98 37q-65 0 -99 -37q-35 -38 -35 -89.5t35 -89.5t99 -38q63 0 98 38t35 89.5t-35 89.5z" />
    <glyph glyph-name="uring" unicode="&#x16f;" 
d="M184 983h41v-543q0 -215 114 -317q113 -103 292 -103q198 0 302 123q103 122 103 308v532h41v-983h-41v236h-4q-8 -34 -46 -90q-30 -44 -71 -77q-39 -33 -116 -61q-75 -28 -168 -28q-198 0 -323 114q-124 112 -124 346v543zM759 1235q-47 -47 -128 -47t-128 47
q-46 46 -46 121t46 121q47 47 128 47t128 -47q46 -46 46 -121t-46 -121zM729 1445q-35 38 -98 38t-98 -38t-35 -89t35 -89t98 -38t98 38t35 89t-35 89z" />
    <glyph glyph-name="Uhungarumlaut" unicode="&#x170;" horiz-adv-x="1576" 
d="M1191 102q-161 -122 -402 -122q-242 0 -403 122t-161 349v983h41v-983q0 -207 150 -319q148 -112 373 -112q224 0 373 112q149 113 149 319v983h41v-983q0 -227 -161 -349zM666 1618h-56l348 328h56zM952 1618h-55l348 328h55z" />
    <glyph glyph-name="uhungarumlaut" unicode="&#x171;" 
d="M184 983h41v-543q0 -215 114 -317q113 -103 292 -103q198 0 302 123q103 122 103 308v532h41v-983h-41v236h-4q-8 -34 -46 -90q-30 -44 -71 -77q-39 -33 -116 -61q-75 -28 -168 -28q-198 0 -323 114q-124 112 -124 346v543zM500 1208h-56l349 328h55zM786 1208h-55
l348 328h56z" />
    <glyph glyph-name="Uogonek" unicode="&#x172;" horiz-adv-x="1576" 
d="M1352 1434v-983q0 -217 -145 -337t-371 -132q-1 -1 -7.5 -5t-8.5 -6t-9 -7t-11 -8.5t-11.5 -10.5t-13.5 -14t-14.5 -17t-16.5 -21q-35 -46 -35 -86t32.5 -67t88.5 -27t88 31.5t32 81.5h41q0 -63 -40 -109q-41 -45 -122 -45q-79 0 -120 41t-41 94q0 47 27 90q26 44 53 62
l26 21q-240 5 -393 125q-156 120 -156 346v983h41v-983q0 -207 150 -319q148 -112 373 -112q224 0 373 112q149 113 149 319v983h41z" />
    <glyph glyph-name="uogonek" unicode="&#x173;" 
d="M997 -8l39 24v220h-4q-8 -34 -46 -90q-30 -44 -71 -77q-39 -33 -116 -61q-75 -28 -168 -28q-198 0 -323 114q-124 112 -124 346v543h41v-543q0 -215 114 -317q113 -103 292 -103q198 0 302 123q103 122 103 308v532h41v-983q-13 -8 -43 -27q-28 -18 -70 -66
q-44 -50 -44 -100q0 -40 32.5 -67t88.5 -27t88 31.5t32 81.5h41q0 -63 -40 -109q-40 -45 -122 -45q-79 0 -120 41t-41 94q0 55 40 107q39 52 78 78z" />
    <glyph glyph-name="Ydieresis" unicode="&#x178;" horiz-adv-x="1300" 
d="M680 0h-41v567l-578 867h50l548 -824l531 824h49l-559 -867v-567zM496 1700q-41 0 -41 41t41 41t41 -41t-41 -41zM823 1700q-41 0 -41 41t41 41t41 -41t-41 -41z" />
    <glyph glyph-name="Zacute" unicode="&#x179;" horiz-adv-x="1290" 
d="M1122 1393h-979v41h1012v-68l-1022 -1325h1055v-41h-1086v68zM666 1618h-54l308 328h53z" />
    <glyph glyph-name="zacute" unicode="&#x17a;" horiz-adv-x="1034" 
d="M895 942h-772v41h809v-59l-815 -883h835v-41h-870v59zM551 1208h-53l307 328h53z" />
    <glyph glyph-name="Zdotaccent" unicode="&#x17b;" horiz-adv-x="1290" 
d="M1122 1393h-979v41h1012v-68l-1022 -1325h1055v-41h-1086v68zM649 1700q-41 0 -41 41t41 41t41 -41t-41 -41z" />
    <glyph glyph-name="zdotaccent" unicode="&#x17c;" horiz-adv-x="1034" 
d="M895 942h-772v41h809v-59l-815 -883h835v-41h-870v59zM539 1290q-41 0 -41 41t41 41t41 -41t-41 -41z" />
    <glyph glyph-name="Zcaron" unicode="&#x17d;" horiz-adv-x="1290" 
d="M1122 1393h-979v41h1012v-68l-1022 -1325h1055v-41h-1086v68zM909 1946h52l-277 -328h-63l-277 328h51l256 -306z" />
    <glyph glyph-name="zcaron" unicode="&#x17e;" horiz-adv-x="1034" 
d="M895 942h-772v41h809v-59l-815 -883h835v-41h-870v59zM780 1536h51l-276 -328h-63l-277 328h51l256 -305z" />
    <glyph glyph-name="florin" unicode="&#x192;" horiz-adv-x="866" 
d="M449 942l-222 -1044q-72 -328 -329 -328q-75 0 -119 20l-17 7l11 41q59 -27 127 -27q109 0 181 63q71 65 105 224l222 1044h-189l10 41h189l16 82q40 192 145 291q104 98 238 98q63 0 112 -21.5t72 -53.5q42 -62 48 -117v-23h-41q0 24 -11 61q-11 31 -28 53
q-20 25 -63 42.5t-97 17.5q-119 0 -207.5 -88.5t-126.5 -259.5l-16 -82h385l-10 -41h-385z" />
    <glyph glyph-name="uni0218" unicode="&#x218;" horiz-adv-x="1443" 
d="M1219 1004h-41v40q0 182 -132 276q-134 93 -333 93q-196 0 -330 -91q-135 -92 -135 -247q0 -102 55 -171t150 -101q42 -14 100 -27.5t96.5 -21t118 -20.5t107.5 -18q105 -19 200 -52q89 -33 148 -104q57 -71 57 -181q0 -182 -156 -290q-157 -109 -397 -109
q-246 0 -399 117q-154 115 -154 333v82h41v-82q0 -196 144 -302q143 -108 368 -108q222 0 367 100q145 99 145 259q0 98 -55 162.5t-150 95.5q-54 17 -121 31t-161.5 29.5t-138.5 23.5q-111 19 -201 54q-91 35 -147 110q-58 76 -58 190q0 178 146 279q145 100 360 100
q221 0 364 -102q142 -103 142 -308v-40zM682 -266q0 41 41 41t41 -60q0 -47 -8 -109q-7 -54 -17 -87l-8 -31h-12v164q0 31 -18 40q-19 9 -19 42z" />
    <glyph glyph-name="uni0219" unicode="&#x219;" horiz-adv-x="1138" 
d="M123 317v43h41v-43q0 -144 116 -221q115 -76 289 -76q181 0 293 58q113 57 113 186q0 90 -85 138q-88 48 -207 64q-88 12 -244 37q-121 19 -207 75q-85 55 -85 157q0 125 113 197q112 72 299 72q189 0 302 -79q114 -79 114 -218h-41q0 123 -103 190q-103 66 -272 66
q-165 0 -268 -59q-103 -60 -103 -169q0 -91 85 -137t207 -63q128 -17 244 -36q119 -19 207 -76q85 -55 85 -159q0 -145 -124 -214q-124 -70 -323 -70q-196 0 -320 88q-126 87 -126 249zM518 -266q0 41 41 41t41 -60q0 -47 -8 -109q-7 -54 -17 -87l-8 -31h-12v164
q0 31 -18 40q-19 9 -19 42z" />
    <glyph glyph-name="uni021A" unicode="&#x21a;" horiz-adv-x="1269" 
d="M614 1393h-573v41h1188v-41h-574v-1393h-41v1393zM594 -266q0 41 41 41t41 -60q0 -47 -8 -109q-8 -52 -17 -87l-8 -31h-12v164q0 31 -18 40q-19 9 -19 42z" />
    <glyph glyph-name="uni021B" unicode="&#x21b;" horiz-adv-x="876" 
d="M250 348v594h-189v41h189v246h41v-246h463v-41h-463v-586q0 -336 282 -336q68 0 122 19q54 18 77 39l23 18v-47q-85 -71 -222 -69q-161 -1 -242 91.5t-81 276.5zM467 -266q0 41 41 41t41 -60q0 -47 -8 -109q-8 -52 -17 -87l-8 -31h-12v164q0 31 -18 40q-19 9 -19 42z" />
    <glyph glyph-name="uni02BC" unicode="&#x2bc;" horiz-adv-x="204" 
d="M61 1393q0 41 41 41t41 -60q0 -47 -8 -108q-6 -49 -16 -88l-8 -31h-13v164q0 31 -18 40q-19 9 -19 42z" />
    <glyph glyph-name="circumflex" unicode="&#x2c6;" horiz-adv-x="739" 
d="M338 1516h63l277 -328h-51l-258 305l-256 -305h-52z" />
    <glyph glyph-name="caron" unicode="&#x2c7;" horiz-adv-x="739" 
d="M627 1516h51l-277 -328h-63l-277 328h52l256 -306z" />
    <glyph glyph-name="breve" unicode="&#x2d8;" horiz-adv-x="606" 
d="M481 1262q-65 -50 -178 -50q-112 0 -177 50t-65 127v4h41v-4q0 -59 54 -97.5t147 -38.5q94 0 147.5 38t53.5 98v4h41v-4q0 -78 -64 -127z" />
    <glyph glyph-name="dotaccent" unicode="&#x2d9;" horiz-adv-x="204" 
d="M102 1290q-41 0 -41 41t41 41t41 -41t-41 -41z" />
    <glyph glyph-name="ring" unicode="&#x2da;" horiz-adv-x="471" 
d="M364 1292q-47 -47 -128 -47t-128 47t-47 121t47 121t128 47t128 -47q46 -46 46 -121t-46 -121zM334 1502q-35 38 -98 38q-64 0 -99 -38t-35 -89t35 -89t99 -38q63 0 98 38t35 89t-35 89z" />
    <glyph glyph-name="ogonek" unicode="&#x2db;" horiz-adv-x="446" 
d="M166 -23l35 23h59q-58 -31 -114 -95q-44 -50 -44 -98q0 -40 33 -67t89 -27t88 31.5t32 81.5h41q0 -63 -40 -109q-41 -45 -122 -45q-80 0 -121 41t-41 94q0 50 35 99q32 46 70 71z" />
    <glyph glyph-name="tilde" unicode="&#x2dc;" horiz-adv-x="786" 
d="M569 1403q-41 0 -87 -27q-46 -28 -81 -60q-37 -32 -86 -59q-50 -28 -98 -28q-75 0 -115.5 39t-40.5 102l9 60h41q-7 -27 -9 -60q0 -100 115 -100q59 0 169 87t183 87q75 0 115.5 -39t40.5 -102l-8 -60h-41q8 29 8 60q0 100 -115 100z" />
    <glyph glyph-name="hungarumlaut" unicode="&#x2dd;" horiz-adv-x="813" 
d="M117 1188h-56l349 328h55zM403 1188h-55l348 328h56z" />
    <glyph glyph-name="uni0401" unicode="&#x401;" horiz-adv-x="1351" 
d="M1208 0h-962v1434h962v-41h-921v-643h811v-41h-811v-668h921v-41zM565 1659q-41 0 -41 41t41 41t41 -41t-41 -41zM893 1659q-41 0 -41 41t41 41t41 -41t-41 -41z" />
    <glyph glyph-name="uni0402" unicode="&#x402;" horiz-adv-x="1484" 
d="M963 -82q154 0 256 116t102 324q0 213 -127 327q-128 114 -354 114h-410v-799h-41v1393h-389v41h963v-41h-533v-553h410q242 0 382 -125t140 -357q0 -226 -114 -353q-116 -128 -285 -128q-113 0 -177 25l-18 8v43q62 -35 195 -35z" />
    <glyph glyph-name="uni0403" unicode="&#x403;" horiz-adv-x="1230" 
d="M246 1434h944v-41h-903v-1393h-41v1434zM741 1556h-53l307 328h54z" />
    <glyph glyph-name="uni0404" unicode="&#x404;" horiz-adv-x="1652" 
d="M347 190q-183 208 -183 527q0 316 182 527q182 210 494 210q122 0 225.5 -30.5t171.5 -82.5q67 -52 117 -112q98 -122 141 -316l4 -32h-41q0 3 -2 13t-3 17q-3 21 -19 74q-35 117 -114 218q-50 65 -112 107.5t-156 72.5q-98 30 -212 30q-153 0 -277.5 -58t-201.5 -159
q-156 -202 -156 -459h686v-41h-686q0 -253 153 -455q72 -99 199 -160q123 -61 283 -61q156 0 279 56q124 56 184 133q124 158 147 289l8 55h41q-1 -5 -2.5 -16.5t-2.5 -15.5q-3 -18 -20 -80q-39 -130 -120 -235q-53 -69 -120 -115.5t-166 -77.5q-104 -33 -228 -33
q-312 0 -493 210z" />
    <glyph glyph-name="uni0405" unicode="&#x405;" horiz-adv-x="1443" 
d="M1219 1004h-41v40q0 182 -132 276q-134 93 -333 93q-196 0 -330 -91q-135 -92 -135 -247q0 -102 55 -171t150 -101q42 -14 100 -27.5t96.5 -21t118 -20.5t107.5 -18q105 -19 200 -52q89 -33 148 -104q57 -71 57 -181q0 -182 -156 -290q-157 -109 -397 -109
q-246 0 -399 117q-154 115 -154 333v82h41v-82q0 -196 144 -302q143 -108 368 -108q222 0 367 100q145 99 145 259q0 98 -55 162.5t-150 95.5q-54 17 -121 31t-161.5 29.5t-138.5 23.5q-111 19 -201 54q-91 35 -147 110q-58 76 -58 190q0 178 146 279q145 100 360 100
q221 0 364 -102q142 -103 142 -308v-40z" />
    <glyph glyph-name="uni0406" unicode="&#x406;" horiz-adv-x="1105" 
d="M532 1393h-409v41h860v-41h-410v-1352h410v-41h-860v41h409v1352z" />
    <glyph glyph-name="uni0407" unicode="&#x407;" horiz-adv-x="1105" 
d="M532 1393h-409v41h860v-41h-410v-1352h410v-41h-860v41h409v1352zM389 1659q-41 0 -41 41t41 41t41 -41t-41 -41zM717 1659q-41 0 -41 41t41 41t41 -41t-41 -41z" />
    <glyph glyph-name="uni0408" unicode="&#x408;" horiz-adv-x="1269" 
d="M102 451v61h41v-61q0 -197 114 -314t317 -117q202 0 316 117t114 314v942h-699v41h739v-983q0 -211 -126 -341q-127 -130 -344 -130q-218 0 -345 130t-127 341z" />
    <glyph glyph-name="uni0409" unicode="&#x409;" horiz-adv-x="2283" 
d="M82 -20l-41 4v41q14 -3 41 -5q85 0 132 63q27 37 42 66t27 75q12 50 18 78t15 81q2 15 4.5 30t4 23.5t1.5 12.5v2l137 983h756v-533h419q252 0 388 -118q135 -119 135 -332q0 -214 -135 -332q-137 -119 -388 -119h-460v1393h-678l-131 -942q-12 -93 -24 -152
q-14 -64 -34 -128q-22 -66 -51 -104q-68 -87 -178 -87zM1998 148q122 107 122 303t-122 303q-121 106 -360 106h-419v-819h419q238 0 360 107z" />
    <glyph glyph-name="uni040A" unicode="&#x40a;" horiz-adv-x="2334" 
d="M1229 799v635h41v-635h420q255 0 388.5 -101.5t133.5 -297.5t-133.5 -298t-388.5 -102h-461v758h-942v-758h-41v1434h41v-635h942zM1270 41h420q481 0 481 359q0 358 -481 358h-420v-717z" />
    <glyph glyph-name="uni040B" unicode="&#x40b;" horiz-adv-x="1515" 
d="M389 1393h-389v41h963v-41h-533v-553h348q295 4 436 -121q138 -125 138 -412v-307h-41v307q0 270 -125 381q-124 111 -408 111h-348v-799h-41v1393z" />
    <glyph glyph-name="uni040C" unicode="&#x40c;" horiz-adv-x="1280" 
d="M1239 0h-68l-884 727v-727h-41v1434h41v-707l841 727h64l-840 -725zM719 1556h-53l307 328h53z" />
    <glyph glyph-name="uni040E" unicode="&#x40e;" horiz-adv-x="1376" 
d="M923 1723q-85 -64 -224 -64q-140 0 -225 64q-85 63 -85 167v11h41v-11q0 -82 73 -136q72 -54 195 -54q122 0 196 54q73 54 73 136v11h41v-11q0 -104 -85 -167zM61 1434h45l603 -1031l548 1031h48l-605 -1139q-85 -161 -155 -228t-197 -67h-76v41h58q123 0 182 50
q58 49 141 204l35 65z" />
    <glyph glyph-name="uni040F" unicode="&#x40f;" horiz-adv-x="1576" 
d="M287 41h1003v1393h41v-1434h-522v-369h-41v369h-522v1434h41v-1393z" />
    <glyph glyph-name="uni0410" unicode="&#x410;" horiz-adv-x="1386" 
d="M1325 0h-45l-164 395h-846l-164 -395h-45l596 1434h72zM1098 436l-406 975l-405 -975h811z" />
    <glyph glyph-name="uni0411" unicode="&#x411;" horiz-adv-x="1454" 
d="M809 0h-563v1434h942v-41h-901v-553h522q254 0 388 -107.5t134 -312.5t-134 -312.5t-388 -107.5zM287 41h522q481 0 481 379t-481 379h-522v-758z" />
    <glyph glyph-name="uni0412" unicode="&#x412;" horiz-adv-x="1478" 
d="M1249 1085q0 -75 -22.5 -137t-58.5 -96q-73 -70 -128 -84l-24 -6q11 -1 34 -6q26 -6 77 -29q54 -25 97 -60q42 -36 77 -110q34 -72 34 -168q0 -195 -134.5 -292t-387.5 -97h-567v1434h588q191 0 303 -94t112 -255zM1294 389q0 153 -104 251q-104 97 -316 97h-587v-696
h526q231 0 356 87.5t125 260.5zM1208 1085q0 138 -100 223t-274 85h-547v-615h587q142 0 239 80q95 80 95 227z" />
    <glyph glyph-name="uni0413" unicode="&#x413;" horiz-adv-x="1230" 
d="M246 1434h944v-41h-903v-1393h-41v1434z" />
    <glyph glyph-name="uni0414" unicode="&#x414;" horiz-adv-x="1525" 
d="M61 -369h-41v410h103q56 0 100 82.5t62 245.5l125 1065h809v-1393h215v-410h-41v369h-1332v-369zM444 1393l-120 -1024q-16 -167 -54 -249q-32 -65 -57 -75l-8 -4h973v1352h-734z" />
    <glyph glyph-name="uni0415" unicode="&#x415;" horiz-adv-x="1351" 
d="M1208 0h-962v1434h962v-41h-921v-643h811v-41h-811v-668h921v-41z" />
    <glyph glyph-name="uni0416" unicode="&#x416;" horiz-adv-x="1875" 
d="M918 0v1434h40v-707l760 707h62l-758 -705l803 -729h-64l-803 727v-727h-40zM158 1434l760 -707l-803 -727h-64l803 729l-758 705h62z" />
    <glyph glyph-name="uni0417" unicode="&#x417;" horiz-adv-x="1372" 
d="M1219 389q0 -183 -147 -296q-149 -113 -386 -113q-243 0 -388 116q-144 116 -144 332v64h41v-64q0 -197 134 -302q133 -106 357 -106q216 0 355 104q137 104 137 265q0 153 -108 244q-110 91 -294 96h-260v41h242q175 0 275 88t100 223q0 147 -129 240q-131 92 -332 92
q-202 0 -332 -92q-129 -91 -129 -240v-51h-41v51q0 167 141 271q140 102 361 102t362 -102q140 -104 140 -271q0 -72 -24.5 -134t-62.5 -98q-71 -66 -133 -87l-26 -6v-8q4 0 32 -7q22 -7 69 -31q49 -25 88 -61t70 -104q32 -72 32 -156z" />
    <glyph glyph-name="uni0418" unicode="&#x418;" horiz-adv-x="1587" 
d="M1300 0v1399l-987 -1399h-67v1434h41v-1399l987 1399h67v-1434h-41z" />
    <glyph glyph-name="uni0419" unicode="&#x419;" horiz-adv-x="1587" 
d="M1021 1723q-85 -64 -224 -64q-140 0 -225 64q-85 63 -85 167v11h41v-11q0 -82 73 -136q74 -54 196 -54t196 54q72 54 72 136v11h41v-11q0 -104 -85 -167zM1300 0v1399l-987 -1399h-67v1434h41v-1399l987 1399h67v-1434h-41z" />
    <glyph glyph-name="uni041A" unicode="&#x41a;" horiz-adv-x="1280" 
d="M1239 0h-68l-884 727v-727h-41v1434h41v-707l837 707h64l-836 -705z" />
    <glyph glyph-name="uni041B" unicode="&#x41b;" horiz-adv-x="1505" 
d="M82 -20l-41 4v41q14 -3 41 -5q85 0 132 63q27 37 42 66t27 75q12 50 18 78t15 81q2 15 4.5 30t4 23.5t1.5 12.5v2l137 983h797v-1434h-41v1393h-719l-131 -942q-12 -93 -24 -152q-14 -64 -34 -128q-22 -66 -51 -104q-68 -87 -178 -87z" />
    <glyph glyph-name="uni041C" unicode="&#x41c;" horiz-adv-x="1818" 
d="M938 430h-57l-594 969v-1399h-41v1434h67l596 -975l596 975h68v-1434h-41v1399z" />
    <glyph glyph-name="uni041D" unicode="&#x41d;" horiz-adv-x="1576" 
d="M1331 0h-41v717h-1003v-717h-41v1434h41v-676h1003v676h41v-1434z" />
    <glyph glyph-name="uni041E" unicode="&#x41e;" horiz-adv-x="1699" 
d="M1349 1244q187 -209 187 -527q0 -319 -187 -527q-187 -210 -499 -210q-310 0 -498 210q-188 209 -188 527q0 316 188 527q188 210 498 210q312 0 499 -210zM381 1215q-176 -200 -176 -498t176 -498q175 -199 469 -199t469 199q176 200 176 498t-176 498
q-175 198 -469 198t-469 -198z" />
    <glyph glyph-name="uni041F" unicode="&#x41f;" horiz-adv-x="1576" 
d="M1331 0h-41v1393h-1003v-1393h-41v1434h1085v-1434z" />
    <glyph glyph-name="uni0420" unicode="&#x420;" horiz-adv-x="1392" 
d="M727 471h-440v-471h-41v1434h481q242 0 382 -125t140 -356q0 -232 -140 -357t-382 -125zM1081 626q127 112 127 326q0 213 -127 327t-354 114h-440v-881h440q227 0 354 114z" />
    <glyph glyph-name="uni0421" unicode="&#x421;" horiz-adv-x="1652" 
d="M347 190q-183 208 -183 527q0 316 182 527q182 210 494 210q122 0 225.5 -30.5t171.5 -82.5q67 -52 117 -112q98 -122 141 -316l4 -32h-41q0 3 -2 13t-3 17q-3 21 -19 74q-35 117 -114 218q-50 65 -112 107.5t-156 72.5q-98 30 -212 30q-293 0 -464 -198
q-171 -199 -171 -498t171 -498t464 -199q157 0 280 56q122 56 183 133q124 158 147 289l8 55h41q-1 -5 -2.5 -16.5t-2.5 -15.5q-3 -18 -20 -80q-39 -130 -120 -235q-53 -69 -120 -115.5t-166 -77.5q-104 -33 -228 -33q-312 0 -493 210z" />
    <glyph glyph-name="uni0422" unicode="&#x422;" horiz-adv-x="1269" 
d="M614 1393h-573v41h1188v-41h-574v-1393h-41v1393z" />
    <glyph glyph-name="uni0423" unicode="&#x423;" horiz-adv-x="1376" 
d="M61 1434h45l603 -1031l548 1031h48l-605 -1139q-85 -161 -155 -228t-197 -67h-76v41h58q123 0 182 50q58 49 141 204l35 65z" />
    <glyph glyph-name="uni0424" unicode="&#x424;" horiz-adv-x="1781" 
d="M1468 1162q199 -150 199 -445t-198 -444q-199 -150 -558 -150v-164h-41v164q-358 0 -556 150q-199 148 -199 444q0 295 199 445q199 149 556 149v164h41v-164q357 0 557 -149zM1439 302q187 138 187 415q0 276 -187 415q-187 138 -528 138v-1106q341 0 528 138zM343 1132
q-187 -139 -187 -415q0 -277 187 -415t527 -138v1106q-340 0 -527 -138z" />
    <glyph glyph-name="uni0425" unicode="&#x425;" horiz-adv-x="1282" 
d="M115 0h-54l553 758l-491 676h53l465 -639l465 639h53l-491 -676l553 -758h-54l-526 721z" />
    <glyph glyph-name="uni0426" unicode="&#x426;" horiz-adv-x="1576" 
d="M1444 0h-1198v1434h41v-1393h942v1393h41v-1393h215v-410h-41v369z" />
    <glyph glyph-name="uni0427" unicode="&#x427;" horiz-adv-x="1413" 
d="M205 1065v369h41v-369q0 -270 125 -381t407 -111h348v861h41v-1434h-41v532h-348q-296 -4 -435 121q-138 124 -138 412z" />
    <glyph glyph-name="uni0428" unicode="&#x428;" horiz-adv-x="2007" 
d="M1761 0h-1515v1434h41v-1393h696v1393h41v-1393h696v1393h41v-1434z" />
    <glyph glyph-name="uni0429" unicode="&#x429;" horiz-adv-x="2068" 
d="M1935 0h-1689v1434h41v-1393h696v1393h41v-1393h696v1393h41v-1393h215v-410h-41v369z" />
    <glyph glyph-name="uni042A" unicode="&#x42a;" horiz-adv-x="1607" 
d="M451 1393h-451v41h492v-533h430q253 0 387 -118q135 -119 135 -332q0 -214 -135 -332q-136 -119 -387 -119h-471v1393zM1282 148q121 106 121 303q0 196 -122 303q-121 106 -359 106h-430v-819h430q238 0 360 107z" />
    <glyph glyph-name="uni042B" unicode="&#x42b;" horiz-adv-x="1822" 
d="M246 0v1434h41v-533h399q253 0 387 -118q135 -119 135 -332q0 -214 -135 -332q-136 -119 -387 -119h-440zM1046 148q121 106 121 303t-121 303t-360 106h-399v-819h399q238 0 360 107zM1577 0h-41v1434h41v-1434z" />
    <glyph glyph-name="uni042C" unicode="&#x42c;" horiz-adv-x="1402" 
d="M246 0v1434h41v-533h430q253 0 387 -118q135 -119 135 -332q0 -214 -135 -332q-136 -119 -387 -119h-471zM1077 148q121 106 121 303q0 196 -122 303q-121 106 -359 106h-430v-819h430q238 0 360 107z" />
    <glyph glyph-name="uni042D" unicode="&#x42d;" horiz-adv-x="1652" 
d="M1317 1244q182 -211 182 -527q0 -318 -182 -527q-181 -210 -494 -210q-122 0 -225.5 30.5t-171.5 82.5q-64 48 -117 112q-98 121 -141 315l-4 33h41q0 -3 2 -12.5t3 -16.5q2 -16 20 -75q35 -117 113 -217q51 -65 113 -108t156 -73q96 -31 211 -31q160 0 283 61
q126 61 200 160q152 203 152 455h-686v41h686q0 256 -155 459q-78 101 -202.5 159t-277.5 58q-159 0 -279 -55q-122 -56 -183 -133q-59 -75 -98.5 -153.5t-49.5 -135.5l-8 -55h-41q1 4 2.5 15t2.5 18q3 21 21 80q19 65 45 118t74 116q53 69 120 115.5t166 78.5
q105 32 228 32q311 0 494 -210z" />
    <glyph glyph-name="uni042E" unicode="&#x42e;" horiz-adv-x="2023" 
d="M1823 989q37 -128 37 -272.5t-37 -272.5q-37 -129 -111 -234q-76 -108 -199 -169t-278 -61q-163 0 -287 66q-124 64 -195 173q-143 218 -143 477h-323v-696h-41v1434h41v-697h323q0 259 141 476q70 107 195 175q124 66 289 66q155 0 278 -61t199 -169q74 -107 111 -235z
M685 973q-34 -119 -34 -256t34 -256q76 -273 286 -381q114 -60 264 -60q149 0 264 60q210 108 286 381q34 119 34 256t-34 256q-76 271 -286 381q-116 59 -264 59q-149 0 -264 -59q-210 -110 -286 -381z" />
    <glyph glyph-name="uni042F" unicode="&#x42f;" horiz-adv-x="1406" 
d="M1120 573h-563l-348 -573h-45l348 578q-63 0 -181 81q-64 44 -108 134q-45 90 -45 211q0 176 123 303t297 127h563v-1434h-41v573zM219 1004q0 -160 100 -275q99 -115 259 -115h542v779h-522q-160 0 -269 -115q-110 -116 -110 -274z" />
    <glyph glyph-name="uni0430" unicode="&#x430;" horiz-adv-x="1267" 
d="M1157 -10q-66 0 -106 34q-41 33 -47 66l-9 35q-10 -9 -53 -41q-33 -24 -143 -64q-108 -40 -219 -40q-196 0 -326 76q-131 75 -131 215q0 138 131 215q131 75 326 75q116 0 218 -28q101 -28 150 -58l47 -31v211q0 110 -62 184q-64 73 -144 98q-84 26 -179 26
q-97 0 -174.5 -25t-115.5 -62q-75 -74 -87 -135l-4 -24h-43q0 33 34 100q24 49 65 87q40 37 127 69q84 31 198 31q175 0 300 -85q126 -85 126 -264v-501q0 -54 30.5 -88.5t90.5 -34.5q28 0 62 14l8 4v-41q-27 -18 -70 -18zM580 20q117 0 219 40q106 42 151 79l45 41v211
q-19 16 -49 36q-31 21 -140 58q-110 35 -226 35q-176 0 -296 -63q-120 -65 -120 -187q0 -123 120 -186q119 -64 296 -64z" />
    <glyph glyph-name="uni0431" unicode="&#x431;" horiz-adv-x="1255" 
d="M655 1229q-237 0 -358 -163q-123 -164 -123 -411v-112h6q18 171 152 286q134 113 319 113q222 0 358 -134q134 -134 134 -347t-134 -347q-136 -134 -358 -134q-233 0 -375 175q-143 176 -143 429v112q0 152 57 277.5t175 209.5q121 87 290 87q153 0 240.5 43t87.5 121h41
q0 -96 -99 -150q-100 -55 -270 -55zM651 20q205 0 328 125t123 316t-123 315q-123 125 -328 125q-184 0 -310 -128q-126 -127 -126 -312t126 -313t310 -128z" />
    <glyph glyph-name="uni0432" unicode="&#x432;" horiz-adv-x="1175" 
d="M668 0h-484v983h484q162 0 243 -61.5t80 -184.5q0 -98 -51 -153q-50 -52 -80 -60l-16 -6v-4q2 -1 9 -2t13.5 -3t20 -7t30.5 -13q35 -18 63 -42q30 -27 51.5 -76t21.5 -105q0 -266 -385 -266zM682 492h-457v-451h443q344 0 344 225q0 218 -330 226zM668 942h-443v-410h459
q266 5 266 205q0 205 -282 205z" />
    <glyph glyph-name="uni0433" unicode="&#x433;" horiz-adv-x="962" 
d="M184 0v983h738v-41h-697v-942h-41z" />
    <glyph glyph-name="uni0434" unicode="&#x434;" horiz-adv-x="1167" 
d="M61 -266h-41v307h93q103 0 137 264l88 678h625v-942h163v-307h-41v266h-1024v-266zM922 942h-547l-82 -637q-13 -100 -36.5 -168.5t-41.5 -83.5l-16 -12h723v901z" />
    <glyph glyph-name="uni0435" unicode="&#x435;" horiz-adv-x="1247" 
d="M1135 492q0 -25 -5 -62h-964q1 -14 6 -44q5 -29 34 -98q30 -72 75 -125q45 -54 140 -98q95 -45 218 -45q89 0 166 22t122 56q90 68 109 117l11 23h45q-1 -2 -4.5 -11.5t-6.5 -15.5q-7 -18 -42 -63q-34 -45 -81 -79q-45 -34 -132 -61q-84 -28 -187 -28q-230 0 -372 142
q-144 142 -144 370q0 226 142 369q141 143 364 143q222 0 365 -143q141 -144 141 -369zM1094 471v21q0 205 -127 338t-338 133t-338 -133t-127 -338v-21h930z" />
    <glyph glyph-name="uni0436" unicode="&#x436;" horiz-adv-x="1470" 
d="M715 0v983h41v-479l573 479h64l-574 -479l621 -504h-62l-622 504v-504h-41zM141 983l574 -479l-623 -504h-61l620 504l-573 479h63z" />
    <glyph glyph-name="uni0437" unicode="&#x437;" horiz-adv-x="1097" 
d="M164 737h-41v11q0 126 107 191t305 65t304.5 -65.5t106.5 -190.5q0 -88 -51 -145q-51 -58 -100 -73l-52 -14v-6q40 -9 81 -27q40 -18 71 -43q33 -27 56.5 -77.5t23.5 -106.5q0 -140 -117 -207q-117 -69 -319 -69q-203 0 -320 69q-117 67 -117 207v35h41v-35
q0 -236 396 -236q395 0 395 236q0 227 -377 236h-209v40h209q348 4 348 216q0 215 -370 215q-371 0 -371 -215v-11z" />
    <glyph glyph-name="uni0438" unicode="&#x438;" horiz-adv-x="1236" 
d="M1053 0h-41v950l-760 -950h-68v983h41v-952l762 952h66v-983z" />
    <glyph glyph-name="uni0439" unicode="&#x439;" horiz-adv-x="1236" 
d="M794 1214q-64 -49 -177 -49q-112 0 -177 50t-65 126v5h41v-5q0 -59 53.5 -97t147.5 -38q93 0 146.5 38t53.5 97v5h41v-5q0 -78 -64 -127zM1053 0h-41v950l-760 -950h-68v983h41v-952l762 952h66v-983z" />
    <glyph glyph-name="uni043A" unicode="&#x43a;" horiz-adv-x="1060" 
d="M1020 0h-70l-725 504v-504h-41v983h41v-479l676 479h72l-676 -479z" />
    <glyph glyph-name="uni043B" unicode="&#x43b;" horiz-adv-x="1183" 
d="M61 -20l-41 4v41q13 -3 41 -5q90 0 130 82q41 83 69 260l96 621h643v-983h-41v942h-565l-90 -580q-31 -207 -81 -294q-49 -88 -161 -88z" />
    <glyph glyph-name="uni043C" unicode="&#x43c;" horiz-adv-x="1392" 
d="M729 287h-65l-439 661v-948h-41v983h68l444 -672l445 672h67v-983h-41v948z" />
    <glyph glyph-name="uni043D" unicode="&#x43d;" horiz-adv-x="1239" 
d="M1055 0h-41v492h-789v-492h-41v983h41v-451h789v451h41v-983z" />
    <glyph glyph-name="uni043E" unicode="&#x43e;" horiz-adv-x="1277" 
d="M267 122q-144 142 -144 370t144 370q142 142 372 142t373 -142q143 -143 143 -370t-143 -370q-143 -142 -373 -142t-372 142zM985 830q-129 133 -346 133t-346 -133q-129 -134 -129 -338t129 -338t346 -134t346 134q129 133 129 338q0 204 -129 338z" />
    <glyph glyph-name="uni043F" unicode="&#x43f;" horiz-adv-x="1208" 
d="M1024 0h-41v942h-758v-942h-41v983h840v-983z" />
    <glyph glyph-name="uni0440" unicode="&#x440;" horiz-adv-x="1339" 
d="M225 -410h-41v1393h41v-266h4q7 20 14 32q7 15 47 68q37 49 86 87q48 38 135 69q86 31 189 31q230 0 373 -142q144 -142 144 -370q0 -227 -143 -370q-143 -142 -374 -142q-98 0 -184.5 28.5t-139.5 72.5q-100 84 -134 157l-13 28h-4v-676zM700 20q216 0 347 134
q129 133 129 338q0 204 -129 338q-129 133 -346 133q-218 0 -347 -135q-129 -136 -129 -336q0 -203 131 -337q130 -135 344 -135z" />
    <glyph glyph-name="uni0441" unicode="&#x441;" horiz-adv-x="1243" 
d="M267 123q-144 143 -144 369q0 225 144 369q143 143 366 143q121 0 220 -38q96 -37 148 -92q102 -111 121 -202l8 -37h-43q-1 10 -8 36q-5 19 -35 78q-30 55 -75 99q-44 42 -134 79q-90 36 -202 36q-211 0 -340 -134q-129 -135 -129 -337q0 -204 129 -337
q129 -135 340 -135q115 0 202 34q90 35 134 82q92 98 112 179l6 33h43q-1 -9 -8 -39q-6 -26 -39 -89q-35 -65 -83 -112q-49 -49 -147 -88q-96 -40 -220 -40q-223 0 -366 143z" />
    <glyph glyph-name="uni0442" unicode="&#x442;" horiz-adv-x="962" 
d="M932 942h-430v-942h-41v942h-430v41h901v-41z" />
    <glyph glyph-name="uni0443" unicode="&#x443;" horiz-adv-x="1064" 
d="M20 983h48l469 -940l458 940h49l-499 -1024q-64 -131 -79 -157q-28 -50 -70 -113q-44 -66 -89 -92.5t-102 -26.5q-58 0 -90 16l-13 4v41q45 -20 103 -20q95 0 184 143q34 59 107 205l16 33z" />
    <glyph glyph-name="uni0444" unicode="&#x444;" horiz-adv-x="1441" 
d="M285 116q-162 137 -162 376t166 372q165 132 411 140v430h41v-430q246 -6 412 -139t166 -373q0 -239 -162 -376q-161 -136 -416 -136v-390h-41v390q-255 0 -415 136zM741 963v-943q242 0 390 127q147 127 147 345q0 216 -147 344q-148 127 -390 127zM700 20v943
q-243 0 -389 -127q-147 -128 -147 -344q0 -218 147 -345q146 -127 389 -127z" />
    <glyph glyph-name="uni0445" unicode="&#x445;" horiz-adv-x="995" 
d="M94 983h49l355 -430l354 430h49l-379 -459l432 -524h-49l-407 494l-408 -494h-49l432 524z" />
    <glyph glyph-name="uni0446" unicode="&#x446;" horiz-adv-x="1198" 
d="M1116 0h-932v983h41v-942h727v942h41v-942h164v-307h-41v266z" />
    <glyph glyph-name="uni0447" unicode="&#x447;" horiz-adv-x="1116" 
d="M932 983v-983h-41v346h-301q-426 0 -426 338v299h41v-299q0 -154 95.5 -225.5t289.5 -71.5h301v596h41z" />
    <glyph glyph-name="uni0448" unicode="&#x448;" horiz-adv-x="1609" 
d="M1425 0h-1241v983h41v-942h559v942h41v-942h559v942h41v-983z" />
    <glyph glyph-name="uni0449" unicode="&#x449;" horiz-adv-x="1630" 
d="M1548 -266v266h-1364v983h41v-942h559v942h41v-942h559v942h41v-942h164v-307h-41z" />
    <glyph glyph-name="uni044A" unicode="&#x44a;" horiz-adv-x="1187" 
d="M328 942h-328v41h369v-348h311q197 0 301 -80.5t104 -236.5t-104.5 -237t-300.5 -81h-352v942zM369 41h311q364 0 364 277q0 276 -364 276h-311v-553z" />
    <glyph glyph-name="uni044B" unicode="&#x44b;" horiz-adv-x="1372" 
d="M184 0v983h41v-348h281q197 0 301 -80.5t104 -236.5t-104.5 -237t-300.5 -81h-322zM225 41h281q364 0 364 277q0 276 -364 276h-281v-553zM1188 0h-41v983h41v-983z" />
    <glyph glyph-name="uni044C" unicode="&#x44c;" horiz-adv-x="1044" 
d="M184 0v983h41v-348h312q197 0 301 -80.5t104 -236.5t-104.5 -237t-300.5 -81h-353zM225 41h312q364 0 364 277q0 276 -364 276h-312v-553z" />
    <glyph glyph-name="uni044D" unicode="&#x44d;" horiz-adv-x="1243" 
d="M1079 471h-495v41h495q0 174 -126 313q-126 138 -343 138q-115 0 -202 -34q-90 -35 -134 -82q-96 -103 -110 -179l-8 -33h-43q1 11 8 40q6 25 40 89q35 64 83 112q49 48 146 88q96 40 220 40q222 0 367 -143q143 -145 143 -369q0 -226 -143 -369t-367 -143
q-125 0 -220 38q-99 38 -147 92q-103 111 -122 201l-8 37h43q1 -11 8 -35q6 -23 36 -78q28 -55 74 -100q44 -43 135 -79q89 -36 201 -36q219 0 344 140t125 311z" />
    <glyph glyph-name="uni044E" unicode="&#x44e;" horiz-adv-x="1542" 
d="M225 0h-41v983h41v-459h244q-2 90 39 191.5t119 174.5q55 52 137.5 83t179.5 31q214 0 344 -142q131 -143 131 -370t-131 -370q-130 -142 -344 -142q-213 0 -344 140t-131 363h-244v-483zM626 153q115 -133 318 -133q204 0 319 133q115 131 115 339q0 206 -115 339
q-115 132 -319 132q-202 0 -318 -132q-116 -134 -116 -339q0 -206 116 -339z" />
    <glyph glyph-name="uni044F" unicode="&#x44f;" horiz-adv-x="1075" 
d="M158 0h-45l237 397q-36 8 -80 33q-38 20 -69 50q-33 31 -56.5 86.5t-23.5 119.5q0 138 90 217q91 80 244 80h436v-983h-41v389h-457zM162 686q0 -117 79 -186q77 -70 193 -70h416v512h-395q-134 0 -213 -67q-80 -68 -80 -189z" />
    <glyph glyph-name="uni0451" unicode="&#x451;" horiz-adv-x="1247" 
d="M1135 492q0 -25 -5 -62h-964q1 -14 6 -44q5 -29 34 -98q30 -72 75 -125q45 -54 140 -98q95 -45 218 -45q89 0 166 22t122 56q90 68 109 117l11 23h45q-1 -2 -4.5 -11.5t-6.5 -15.5q-7 -18 -42 -63q-34 -45 -81 -79q-45 -34 -132 -61q-84 -28 -187 -28q-230 0 -372 142
q-144 142 -144 370q0 226 142 369q141 143 364 143q222 0 365 -143q141 -144 141 -369zM1094 471v21q0 205 -127 338t-338 133t-338 -133t-127 -338v-21h930zM465 1249q-41 0 -41 41t41 41t41 -41t-41 -41zM793 1249q-41 0 -41 41t41 41t41 -41t-41 -41z" />
    <glyph glyph-name="uni0452" unicode="&#x452;" horiz-adv-x="1273" 
d="M1069 -102v573q0 208 -107 315q-108 105 -268 105q-182 0 -278 -126q-97 -125 -97 -304v-461h-40v1188h-279v41h279v205h40v-205h439v-41h-439v-508h5q7 31 44 88q26 41 65 76q36 32 108 61q69 27 153 27q180 0 298 -117t118 -344v-573q0 -172 -66.5 -250t-201.5 -78
q-39 0 -90 16l-13 6v46q43 -27 103 -27q110 0 168 63q59 65 59 224z" />
    <glyph glyph-name="uni0453" unicode="&#x453;" horiz-adv-x="962" 
d="M184 0v983h738v-41h-697v-942h-41zM588 1106h-53l307 328h53z" />
    <glyph glyph-name="uni0454" unicode="&#x454;" horiz-adv-x="1243" 
d="M164 512h495v-41h-495q0 -171 125 -311t344 -140q115 0 202 34q90 35 134 82q92 98 112 179l6 33h43q-1 -9 -8 -39q-6 -26 -39 -89q-35 -65 -83 -112q-49 -49 -147 -88q-96 -40 -220 -40q-223 0 -366 143q-144 143 -144 369q0 225 144 369q143 143 366 143q121 0 220 -38
q96 -37 148 -92q102 -111 121 -202l8 -37h-43q-1 10 -8 36q-5 19 -35 78q-30 55 -75 99q-44 42 -134 79q-90 36 -202 36q-217 0 -343 -138q-126 -139 -126 -313z" />
    <glyph glyph-name="uni0455" unicode="&#x455;" horiz-adv-x="1138" 
d="M123 317v43h41v-43q0 -144 116 -221q115 -76 289 -76q181 0 293 58q113 57 113 186q0 90 -85 138q-88 48 -207 64q-88 12 -244 37q-121 19 -207 75q-85 55 -85 157q0 125 113 197q112 72 299 72q189 0 302 -79q114 -79 114 -218h-41q0 123 -103 190q-103 66 -272 66
q-165 0 -268 -59q-103 -60 -103 -169q0 -91 85 -137t207 -63q128 -17 244 -36q119 -19 207 -76q85 -55 85 -159q0 -145 -124 -214q-124 -70 -323 -70q-196 0 -320 88q-126 87 -126 249z" />
    <glyph glyph-name="uni0456" unicode="&#x456;" horiz-adv-x="409" 
d="M184 983h41v-983h-41v983zM205 1352q-41 0 -41 41t41 41t41 -41t-41 -41z" />
    <glyph glyph-name="uni0457" unicode="&#x457;" horiz-adv-x="409" 
d="M184 983h41v-983h-41v983zM41 1249q-41 0 -41 41t41 41t41 -41t-41 -41zM369 1249q-41 0 -41 41t41 41t41 -41t-41 -41z" />
    <glyph glyph-name="uni0458" unicode="&#x458;" horiz-adv-x="432" 
d="M207 -102v1085h41v-1085q0 -172 -66.5 -250t-201.5 -78q-37 0 -91 16l-12 6v46q43 -27 103 -27q110 0 168 63q59 65 59 224zM227 1352q-41 0 -41 41t41 41t41 -41t-41 -41z" />
    <glyph glyph-name="uni0459" unicode="&#x459;" horiz-adv-x="1701" 
d="M61 -20l-41 4v41q13 -3 41 -5q90 0 130 82q41 83 69 260l96 621h572v-348h266q197 0 301 -80.5t104 -236.5t-104.5 -237t-300.5 -81h-307v942h-494l-90 -580q-31 -207 -81 -294q-49 -88 -161 -88zM928 41h266q365 0 365 277q0 276 -365 276h-266v-553z" />
    <glyph glyph-name="uni045A" unicode="&#x45a;" horiz-adv-x="1705" 
d="M1219 0h-328v512h-666v-512h-41v983h41v-430h666v430h41v-430h287q385 0 385 -276q0 -277 -385 -277zM1476 97q87 55 87 180t-87 180q-86 55 -257 55h-287v-471h287q169 0 257 56z" />
    <glyph glyph-name="uni045B" unicode="&#x45b;" horiz-adv-x="1273" 
d="M1110 0h-41v471q0 208 -107 315q-108 105 -268 105q-182 0 -278 -126q-97 -125 -97 -304v-461h-40v1188h-279v41h279v205h40v-205h439v-41h-439v-508h5q7 31 44 88q26 41 65 76q36 32 108 61q69 27 153 27q180 0 298 -117t118 -344v-471z" />
    <glyph glyph-name="uni045C" unicode="&#x45c;" horiz-adv-x="1060" 
d="M1020 0h-70l-725 504v-504h-41v983h41v-479l676 479h72l-676 -479zM561 1106h-53l307 328h53z" />
    <glyph glyph-name="uni045E" unicode="&#x45e;" horiz-adv-x="1064" 
d="M710 1214q-64 -49 -177 -49q-112 0 -177 50t-65 126v5h41v-5q0 -59 53.5 -97t147.5 -38q93 0 146.5 38t53.5 97v5h41v-5q0 -78 -64 -127zM20 983h48l469 -940l458 940h49l-499 -1024q-64 -131 -79 -157q-28 -50 -70 -113q-44 -66 -89 -92.5t-102 -26.5q-58 0 -90 16
l-13 4v41q45 -20 103 -20q95 0 184 143q34 59 107 205l16 33z" />
    <glyph glyph-name="uni045F" unicode="&#x45f;" horiz-adv-x="1208" 
d="M225 41h758v942h41v-983h-399v-266h-41v266h-400v983h41v-942z" />
    <glyph glyph-name="uni0490" unicode="&#x490;" horiz-adv-x="1230" 
d="M1149 1434v327h41v-368h-903v-1393h-41v1434h903z" />
    <glyph glyph-name="uni0491" unicode="&#x491;" horiz-adv-x="962" 
d="M184 0v983h697v266h41v-307h-697v-942h-41z" />
    <glyph glyph-name="uni1E9E" unicode="&#x1e9e;" horiz-adv-x="1570" 
d="M805 1085q0 63 21 120t53 92q59 63 116 85l21 9v2h-289q-461 0 -461 -447v-946h-41v946q0 487 502 488h481v-41q-137 0 -249 -79q-113 -80 -113 -229q0 -81 35.5 -142.5t96.5 -98.5q35 -21 75.5 -40t108.5 -46.5t87 -35.5q57 -24 99.5 -51t81.5 -67t59 -97t20 -128
q0 -173 -134 -286t-357 -113q-222 0 -347 108q-124 106 -124 281h41q0 -153 114 -250q112 -99 316 -99q202 0 327 104q123 104 123 255q0 120 -68 196q-71 75 -166 112q-33 12 -97 38t-97 38q-99 38 -166 117q-69 78 -69 205z" />
    <glyph glyph-name="endash" unicode="&#x2013;" horiz-adv-x="1320" 
d="M102 573h1117v-41h-1117v41z" />
    <glyph glyph-name="emdash" unicode="&#x2014;" horiz-adv-x="1822" 
d="M102 573h1618v-41h-1618v41z" />
    <glyph glyph-name="quoteleft" unicode="&#x2018;" horiz-adv-x="327" 
d="M205 1106q0 -41 -41 -41t-41 59q0 46 8 129q6 58 16 129l9 52h12v-246q0 -31 19 -40q18 -9 18 -42z" />
    <glyph glyph-name="quoteright" unicode="&#x2019;" horiz-adv-x="327" 
d="M123 1393q0 41 41 41t41 -60q0 -46 -8 -129q-7 -62 -17 -129l-8 -51h-12v246q0 31 -18 40q-19 9 -19 42z" />
    <glyph glyph-name="quotesinglbase" unicode="&#x201a;" horiz-adv-x="327" 
d="M123 41q0 41 41 41t41 -59q0 -46 -8 -129q-7 -57 -17 -130l-8 -51h-12v246q0 31 -18 40q-19 9 -19 42z" />
    <glyph glyph-name="quotedblleft" unicode="&#x201c;" horiz-adv-x="593" 
d="M471 1106q0 -41 -41 -41t-41 59q0 51 9 129q6 58 16 129l8 52h12v-246q0 -31 19 -40q18 -9 18 -42zM205 1106q0 -41 -41 -41t-41 59q0 46 8 129q6 58 16 129l9 52h12v-246q0 -31 19 -40q18 -9 18 -42z" />
    <glyph glyph-name="quotedblright" unicode="&#x201d;" horiz-adv-x="593" 
d="M123 1393q0 41 41 41t41 -60q0 -46 -8 -129q-7 -62 -17 -129l-8 -51h-12v246q0 31 -18 40q-19 9 -19 42zM389 1393q0 41 41 41t41 -60q0 -46 -8 -129q-7 -72 -17 -129l-8 -51h-12v246q0 31 -18 40q-19 9 -19 42z" />
    <glyph glyph-name="quotedblbase" unicode="&#x201e;" horiz-adv-x="593" 
d="M123 41q0 41 41 41t41 -59q0 -46 -8 -129q-7 -57 -17 -130l-8 -51h-12v246q0 31 -18 40q-19 9 -19 42zM389 41q0 41 41 41t41 -59q0 -46 -8 -129q-7 -70 -17 -130l-8 -51h-12v246q0 31 -18 40q-19 9 -19 42z" />
    <glyph glyph-name="dagger" unicode="&#x2020;" horiz-adv-x="999" 
d="M467 686l27 293h12l26 -293l-22 -1089h-21zM854 1016l-293 26v13l293 26q43 0 43 -32q0 -33 -43 -33zM438 1055v-13l-293 -26q-43 0 -43 33q0 32 43 32zM506 1118h-12l-27 293q0 43 33 43q32 0 32 -43z" />
    <glyph glyph-name="daggerdbl" unicode="&#x2021;" horiz-adv-x="999" 
d="M532 526l-26 -454h-12l-27 454l27 453h12zM145 35l293 -27v-12l-293 -27q-43 0 -43 33t43 33zM467 -360l27 292h12l26 -292q0 -43 -32 -43q-33 0 -33 43zM854 -31l-293 27v12l293 27q43 0 43 -33t-43 -33zM506 1118h-12l-27 293q0 43 33 43q32 0 32 -43zM438 1055v-13
l-293 -26q-43 0 -43 33q0 32 43 32zM854 1016l-293 26v13l293 26q43 0 43 -32q0 -33 -43 -33z" />
    <glyph glyph-name="bullet" unicode="&#x2022;" horiz-adv-x="655" 
d="M269 515q-23 22 -23 58.5t23 59.5q22 22 59 22q38 0 60 -22q22 -23 22 -59.5t-22 -58.5q-23 -23 -60 -23q-36 0 -59 23z" />
    <glyph glyph-name="ellipsis" unicode="&#x2026;" horiz-adv-x="962" 
d="M164 0q-41 0 -41 41t41 41t41 -41t-41 -41zM799 0q-41 0 -41 41t41 41t41 -41t-41 -41zM440 41q0 16 12 28.5t29 12.5q41 0 41 -41t-41 -41t-41 41z" />
    <glyph glyph-name="perthousand" unicode="&#x2030;" horiz-adv-x="2324" 
d="M362 0h-51l983 1434h52zM185 902q-83 88 -83 223q0 134 83 222q82 87 221 87q138 0 220 -87q83 -88 83 -222q0 -135 -83 -223q-82 -87 -220 -87t-221 87zM596 933q72 77 72 192t-72 191q-72 77 -190 77q-119 0 -191 -77q-72 -76 -72 -191t72 -192t191 -77q118 0 190 77z
M1408 531q83 -88 83 -222t-83 -222q-82 -87 -220 -87t-220 87q-83 88 -83 222t83 222q82 87 220 87t220 -87zM998 501q-72 -77 -72 -191q0 -116 72 -192q71 -77 190 -77t191 77q71 77 71 192q0 114 -71 191q-72 77 -191 77t-190 -77zM2139 531q83 -88 83 -222t-83 -222
q-83 -87 -220 -87t-220 87q-83 88 -83 222t83 222q83 87 220 87t220 -87zM1729 501q-72 -77 -72 -191q0 -116 72 -192q71 -77 190 -77t191 77q71 77 71 192q0 114 -71 191q-72 77 -191 77t-190 -77z" />
    <glyph glyph-name="guilsinglleft" unicode="&#x2039;" horiz-adv-x="497" 
d="M346 113l-285 379l285 378h49l-284 -378l284 -379h-49z" />
    <glyph glyph-name="guilsinglright" unicode="&#x203a;" horiz-adv-x="497" 
d="M102 870h50l284 -378l-284 -379h-50l285 379z" />
    <glyph glyph-name="fraction" unicode="&#x2044;" horiz-adv-x="374" 
d="M-281 0h-47l983 1434h47z" />
    <glyph glyph-name="uni2070" unicode="&#x2070;" horiz-adv-x="835" 
d="M679 1546q95 -115 95 -296q0 -183 -95 -296q-95 -114 -261 -114t-261 114q-96 112 -96 296q0 182 96 296q95 113 261 113t261 -113zM186 1515q-84 -103 -84 -266q0 -161 84 -265q84 -103 232 -103q147 0 231 103q84 104 84 265q0 163 -84 266t-231 103q-148 0 -232 -103z
" />
    <glyph glyph-name="uni2074" unicode="&#x2074;" horiz-adv-x="729" 
d="M0 1096l500 542h59v-559h129v-41h-129v-178h-41v178h-518v58zM518 1597l-481 -518h481v518z" />
    <glyph glyph-name="uni2075" unicode="&#x2075;" horiz-adv-x="798" 
d="M416 1368q160 0 246 -74q86 -75 86 -190t-86 -189q-87 -75 -246 -75q-80 0 -145.5 20.5t-99.5 52.5q-65 59 -75 111l-4 23h43q1 -1 2 -6.5t3 -10.5t7.5 -16t14.5 -24q19 -30 46 -50q31 -24 87 -41.5t121 -17.5q138 0 215 66q76 64 76 157q0 92 -76 158q-77 65 -215 65
q-57 0 -108 -13t-79 -33q-60 -41 -73 -73l-9 -12h-47v442h568v-41h-527v-331q8 12 26 29q16 16 88 45q69 28 161 28z" />
    <glyph glyph-name="uni2076" unicode="&#x2076;" horiz-adv-x="825" 
d="M723 1475l6 -21h-43q-13 35 -29 58q-18 26 -45 50q-28 23 -78 39.5t-106 16.5q-154 0 -234.5 -102t-80.5 -304v-55h4q5 69 88 142t231 73q149 0 244 -74q94 -75 94 -192q0 -118 -94 -191q-94 -75 -244 -75q-163 0 -264 98q-100 97 -100 281v20q0 195 95 308
q94 112 261 112q69 0 126.5 -20.5t90.5 -52.5q65 -63 78 -111zM436 881q131 0 214 65t83 160q0 96 -83 161q-82 64 -214 64q-120 0 -202 -66q-84 -67 -84 -159q0 -104 83 -164q82 -61 203 -61z" />
    <glyph glyph-name="uni2077" unicode="&#x2077;" horiz-adv-x="614" 
d="M582 1597h-541v41h573v-67l-395 -711h-45z" />
    <glyph glyph-name="uni2078" unicode="&#x2078;" horiz-adv-x="794" 
d="M692 1454q0 -62 -34 -106t-70 -60l-35 -14v-4q43 -16 60 -25q30 -17 51 -37q25 -24 42 -62.5t17 -80.5q0 -98 -83 -161q-82 -64 -242 -64q-161 0 -243 64q-83 63 -83 161q0 72 42 123q43 52 85 65l43 17v4q-28 11 -48 24q-25 16 -42 34q-50 48 -50 122q0 86 74 146
q74 59 222 59q147 0 221 -59q73 -60 73 -146zM184 934q71 -53 214 -53t214 53q70 52 70 131t-70 131q-71 53 -214 53t-214 -53t-71 -131t71 -131zM204 1569q-61 -49 -61 -114q0 -66 61 -115q61 -50 193 -50t194 50q60 50 60 115t-60 114q-61 49 -194 49q-134 0 -193 -49z
" />
    <glyph glyph-name="uni2079" unicode="&#x2079;" horiz-adv-x="825" 
d="M74 1024l-8 20h43q9 -23 34 -57q22 -30 51 -50q32 -23 86.5 -39.5t116.5 -16.5q154 0 235 102t81 303v55h-4q-5 -68 -88 -141q-85 -74 -232 -74q-149 0 -244 75q-94 75 -94 192q0 116 95 191q94 75 243 75q164 0 265 -98q100 -99 100 -281v-20q0 -194 -95 -307
q-96 -113 -262 -113q-75 0 -137.5 20.5t-98.5 52.5q-75 65 -87 111zM389 1618q-132 0 -214 -64q-83 -65 -83 -161t83 -161t214 -65q120 0 203 67q84 66 84 159q0 103 -83 165q-83 60 -204 60z" />
    <glyph glyph-name="uni2080" unicode="&#x2080;" horiz-adv-x="835" 
d="M679 481q95 -115 95 -296q0 -182 -95 -297q-95 -113 -261 -113t-261 113q-96 114 -96 297q0 182 96 296q95 113 261 113t261 -113zM186 450q-84 -103 -84 -265q0 -163 84 -266t232 -103q147 0 231 103t84 266q0 162 -84 265t-231 103q-148 0 -232 -103z" />
    <glyph glyph-name="uni2081" unicode="&#x2081;" horiz-adv-x="456" 
d="M211 537l-211 -203v55l190 184h62v-778h-41v742z" />
    <glyph glyph-name="uni2082" unicode="&#x2082;" horiz-adv-x="765" 
d="M723 -205h-662v41q0 110 65 178q64 65 156 94q107 31 182 50q93 23 156 70q64 48 64 130t-71 139q-73 56 -199 56t-199 -62q-72 -63 -72 -153v-21h-41v21q0 113 83 185q83 71 229 71t229 -65q82 -66 82 -171q0 -97 -64 -152q-66 -57 -156 -79q-45 -11 -182 -47
q-93 -26 -156 -83q-65 -59 -65 -161h621v-41z" />
    <glyph glyph-name="uni2083" unicode="&#x2083;" horiz-adv-x="817" 
d="M666 532h-562v41h603v-63l-443 -250h150q166 0 249 -60.5t82 -181.5q0 -117 -86.5 -180t-244.5 -63t-245 63.5t-87 179.5v48h41v-48q0 -95 76.5 -148.5t214.5 -53.5t214.5 53.5t76.5 148.5q0 97 -74 149t-217 52h-209v49z" />
    <glyph glyph-name="uni2084" unicode="&#x2084;" horiz-adv-x="729" 
d="M0 31l500 542h59v-559h129v-41h-129v-178h-41v178h-518v58zM518 532l-481 -518h481v518z" />
    <glyph glyph-name="uni2085" unicode="&#x2085;" horiz-adv-x="798" 
d="M416 303q160 0 246 -74q86 -75 86 -190t-86 -190q-88 -74 -246 -74q-80 0 -145.5 20.5t-99.5 52.5q-66 63 -75 111l-4 23h43q1 -1 2 -7t3 -11t7.5 -16t14.5 -24q17 -27 46 -50q31 -24 87 -41t121 -17q138 0 215 65q76 66 76 158t-76 158q-77 65 -215 65q-125 0 -187 -45
q-60 -42 -73 -74l-9 -12h-47v442h568v-41h-527v-331q8 12 26 29q16 16 88 45q69 28 161 28z" />
    <glyph glyph-name="uni2086" unicode="&#x2086;" horiz-adv-x="825" 
d="M723 410l6 -21h-43q-13 35 -29 58q-18 26 -45 50q-28 23 -78 39.5t-106 16.5q-154 0 -234.5 -102t-80.5 -304v-55h4q5 69 88 142t231 73q149 0 244 -74q94 -75 94 -192t-94 -192q-95 -74 -244 -74q-163 0 -264 98q-100 97 -100 281v20q0 195 95 308q94 112 261 112
q69 0 126.5 -20.5t90.5 -51.5q64 -63 78 -112zM436 -184q132 0 214 64q83 65 83 161t-83 161q-82 64 -214 64q-120 0 -202 -66q-84 -68 -84 -159q0 -103 83 -165q83 -60 203 -60z" />
    <glyph glyph-name="uni2087" unicode="&#x2087;" horiz-adv-x="614" 
d="M582 532h-541v41h573v-67l-395 -711h-45z" />
    <glyph glyph-name="uni2088" unicode="&#x2088;" horiz-adv-x="794" 
d="M692 389q0 -62 -34 -106t-70 -60l-35 -14v-4q43 -16 60 -25q30 -17 51 -37q25 -24 42 -62.5t17 -80.5q0 -97 -83 -162q-82 -63 -242 -63t-243 63q-83 65 -83 162q0 72 42 123q43 52 85 65l43 17v4q-28 11 -48 24q-25 16 -42 34q-50 48 -50 122q0 86 74 146q74 59 222 59
q147 0 221 -59q73 -60 73 -146zM184 -131q71 -53 214 -53t214 53q70 52 70 131t-70 131q-71 53 -214 53t-214 -53t-71 -131t71 -131zM204 504q-61 -49 -61 -114q0 -66 61 -115q61 -50 193 -50t194 50q60 49 60 115q0 64 -60 114q-61 49 -194 49q-134 0 -193 -49z" />
    <glyph glyph-name="uni2089" unicode="&#x2089;" horiz-adv-x="825" 
d="M74 -41l-8 21h43q10 -26 34 -58q19 -26 51 -50q32 -23 86.5 -39.5t116.5 -16.5q154 0 235 102t81 303v55h-4q-5 -68 -88 -141q-85 -74 -232 -74q-149 0 -244 75q-94 75 -94 192q0 116 95 191q94 75 243 75q164 0 265 -98q100 -99 100 -281v-20q0 -195 -95 -308
q-96 -112 -262 -112q-74 0 -137 20.5t-99 51.5q-74 66 -87 112zM389 553q-132 0 -214 -64q-83 -65 -83 -161t83 -161t214 -65q120 0 203 67q84 67 84 159q0 103 -83 165q-83 60 -204 60z" />
    <glyph glyph-name="Euro" unicode="&#x20ac;" horiz-adv-x="1714" 
d="M240 553h-199v41h192q-8 56 -8 123l8 123h-192v41h199q2 12 6 33q5 21 24 80q43 132 126 234q56 70 122 116t163 78q102 32 220 32q122 0 226 -30.5t172 -82.5q67 -53 116 -112q98 -122 141 -316l5 -32h-41q0 3 -2 13t-3 17q-7 30 -20 74q-33 116 -113 218
q-51 64 -113.5 107t-155.5 73q-97 30 -212 30q-108 0 -202.5 -28.5t-158.5 -77.5q-59 -43 -112 -103q-104 -125 -141 -295l-6 -28h559v-41h-566q-8 -59 -8 -123q0 -69 8 -123h566v-41h-559q1 -8 6 -29q6 -28 23 -75q38 -118 119 -217q53 -65 115 -108.5t153 -72.5
q93 -31 204 -31q157 0 280 56q122 56 183 133q59 76 98 153.5t49 135.5l9 55h41q-1 -5 -2.5 -16.5t-2.5 -15.5q-5 -23 -21 -80q-36 -127 -120 -235q-53 -70 -119 -116t-166 -77q-104 -33 -229 -33q-116 0 -217.5 30.5t-170.5 82.5q-64 47 -118 112q-110 137 -149 315z" />
    <glyph glyph-name="uni20B4" unicode="&#x20b4;" horiz-adv-x="1392" 
d="M393 573h-209v41h1024v-41h-743q-29 -13 -77 -47q-39 -30 -66 -58q-31 -33 -53.5 -80t-22.5 -91q0 -132 117.5 -204.5t332.5 -72.5q451 0 451 336v47h41v-47q0 -378 -492 -376q-237 0 -364 82t-127 235q0 47 19 93.5t48 78.5q55 62 101 92zM1208 819h-1024v41h723
q18 8 78 52q41 30 69 58q32 32 55.5 78.5t23.5 88.5q0 136 -115 206t-307 70q-202 0 -303 -73t-101 -234v-29h-41v29q0 186 115 267t330 81q213 0 338 -80t125 -237q0 -43 -19.5 -88.5t-50.5 -79.5q-61 -69 -107 -97l-20 -12h231v-41z" />
    <glyph glyph-name="uni20BD" unicode="&#x20bd;" horiz-adv-x="1351" 
d="M287 573h-205v41h205v820h399q240 0 381 -114t141 -316q0 -203 -141 -317t-381 -114h-358v-245h503v-41h-503v-287h-41v287h-205v41h205v245zM1039 717q128 102 128 287q0 183 -128 287q-128 102 -353 102h-358v-779h358q226 0 353 103z" />
    <glyph glyph-name="uni2116" unicode="&#x2116;" horiz-adv-x="2277" 
d="M1219 0h-68l-864 1395v-1395h-41v1434h67l865 -1395v1395h41v-1434zM2148 512h-635v41h635v-41zM2067 856q-87 -98 -236 -98q-150 0 -237 98q-87 97 -87 250q0 151 87 250q87 98 237 98q149 0 236 -98q87 -99 87 -250q0 -152 -87 -250zM2038 1325q-76 88 -207 88
t-207 -88t-76 -219t76 -219t207 -88t207 88t76 219t-76 219z" />
    <glyph glyph-name="trademark" unicode="&#x2122;" horiz-adv-x="1595" 
d="M322 1393h-261v41h562v-41h-261v-574h-40v574zM1110 1014h-63l-240 381v-576h-41v615h68l243 -394l246 394h68v-615h-41v576z" />
    <glyph glyph-name="minus" unicode="&#x2212;" horiz-adv-x="1003" 
d="M61 594h881v-41h-881v41z" />
    <glyph glyph-name="uniF6C3" unicode="&#xf6c3;" horiz-adv-x="204" 
d="M61 -266q0 41 41 41t41 -60q0 -47 -8 -109q-6 -49 -16 -87l-8 -31h-13v164q0 31 -18 40q-19 9 -19 42z" />
    <glyph glyph-name="uniF6D1" unicode="&#xf6d1;" horiz-adv-x="741" 
d="M595 1723q-85 -64 -224 -64q-140 0 -225 64q-85 63 -85 167v11h41v-11q0 -82 73 -136q74 -54 196 -54q123 0 196 54q72 54 72 136v11h41v-11q0 -104 -85 -167z" />
    <glyph glyph-name="uniF6D4" unicode="&#xf6d4;" horiz-adv-x="606" 
d="M481 1214q-64 -49 -178 -49q-112 0 -177 50t-65 126v5h41v-5q0 -59 54 -97t147 -38t147 38t54 97v5h41v-5q0 -78 -64 -127z" />
    <glyph glyph-name="uniF6F4" unicode="&#xf6f4;" horiz-adv-x="532" 
d="M246 0v1434h41v-1434h-41zM236 1946h63l276 -328h-51l-258 305l-256 -305h-51z" />
    <glyph glyph-name="uniF6F5" unicode="&#xf6f5;" horiz-adv-x="532" 
d="M246 0v1434h41v-1434h-41zM102 1700q-41 0 -41 41t41 41t41 -41t-41 -41zM430 1700q-41 0 -41 41t41 41t41 -41t-41 -41z" />
    <glyph glyph-name="uniF6F6" unicode="&#xf6f6;" horiz-adv-x="532" 
d="M246 0v1434h41v-1434h-41zM-72 1946h54l307 -328h-53z" />
    <glyph glyph-name="uniF730" unicode="&#xf730;" horiz-adv-x="1155" 
d="M249 128q-126 148 -126 364t126 364t329 148q202 0 328 -148t126 -364t-126 -364t-328 -148q-203 0 -329 148zM276 825q-112 -139 -112 -333q0 -196 112 -333q111 -139 302 -139q190 0 302 139q111 138 111 333q0 194 -111 333q-112 138 -302 138q-191 0 -302 -138z" />
    <glyph glyph-name="uniF731" unicode="&#xf731;" horiz-adv-x="518" 
d="M293 950l-252 -223v51l231 205h62v-983h-41v950z" />
    <glyph glyph-name="uniF732" unicode="&#xf732;" horiz-adv-x="1153" 
d="M1030 0h-887v41q0 123 63 204q62 81 155 116q77 29 202 65q90 26 201 55q91 22 155 80q62 57 62 146q0 127 -101 192q-101 64 -272 64q-170 0 -271 -71t-101 -206v-41h-41v41q0 158 113 238t300 80q189 0 302 -74q112 -73 112 -223q0 -85 -44.5 -145.5t-121.5 -91.5
q-35 -14 -81.5 -28.5t-79.5 -23t-95 -24t-87 -22.5q-105 -28 -173 -63.5t-110 -98.5q-46 -68 -46 -169h846v-41z" />
    <glyph glyph-name="uniF733" unicode="&#xf733;" horiz-adv-x="1042" 
d="M854 942h-760v41h797v-63l-580 -471h195q222 0 329 -116q105 -115 105 -308q0 -194 -109 -324q-110 -131 -325 -131q-213 0 -323 131q-111 131 -111 324h41q0 -171 99 -293q99 -121 294 -121q194 0 294 121q99 122 99 293q0 170 -95 277q-94 106 -298 106h-250v49z" />
    <glyph glyph-name="uniF734" unicode="&#xf734;" horiz-adv-x="1013" 
d="M41 57l678 926h59v-942h195v-41h-195v-410h-41v410h-696v57zM737 942l-659 -901h659v901z" />
    <glyph glyph-name="uniF735" unicode="&#xf735;" horiz-adv-x="1165" 
d="M618 510q203 0 319 -134t116 -331q0 -196 -116 -336q-115 -139 -319 -139q-105 0 -189 38q-82 37 -126 92q-86 109 -106 202l-7 37h41q1 -10 8 -36q5 -23 33 -78q26 -54 65 -99q36 -42 113 -79q74 -36 168 -36q184 0 289 129t105 305q0 174 -104 299q-105 125 -290 125
q-78 0 -144.5 -23t-104.5 -59q-80 -77 -99 -129l-10 -22h-49v747h772v-41h-731v-627q12 26 51 68q33 34 69 59q42 28 108.5 48t137.5 20z" />
    <glyph glyph-name="uniF736" unicode="&#xf736;" horiz-adv-x="1193" 
d="M1012 1159l10 -33h-47q-6 33 -44 101q-29 51 -64 87q-36 38 -103 69q-68 30 -150 30q-154 0 -253 -100q-99 -101 -138 -252t-39 -354v-164h6q18 171 140 286q122 113 291 113q208 0 330 -134q120 -133 120 -347t-121 -347q-122 -134 -329 -134q-213 0 -345 175
q-133 175 -133 429v164q0 295 106 491q55 102 148.5 158.5t216.5 56.5q90 0 167 -32.5t121 -83.5q93 -106 110 -179zM621 20q188 0 299 125q110 125 110 316q0 190 -110 315q-111 125 -299 125q-171 0 -283 -127q-113 -128 -113 -313t117 -312q117 -129 279 -129z" />
    <glyph glyph-name="uniF737" unicode="&#xf737;" horiz-adv-x="929" 
d="M815 942h-795v41h828v-68l-604 -1325h-45z" />
    <glyph glyph-name="uniF738" unicode="&#xf738;" horiz-adv-x="1277" 
d="M199 1092q0 152 113 257q112 105 327 105t328 -105q112 -106 112 -257q0 -67 -25.5 -129t-64.5 -100q-80 -78 -137 -99l-27 -10v-4q9 -3 34 -10q23 -8 75 -36q51 -29 93 -68q38 -35 74 -106q34 -68 34 -153q0 -177 -130 -286q-131 -111 -366 -111t-366 111
q-130 109 -130 286q0 81 31 150t79 110q97 83 169 104l31 9v4q-40 15 -89 47q-46 29 -77 63q-32 34 -60 97q-28 60 -28 131zM974 122q120 100 120 255q0 152 -119 253q-119 99 -336 99t-336 -99q-119 -101 -119 -253q0 -155 120 -255q120 -102 335 -102t335 102zM342 867
q101 -97 297 -97t297 97q102 96 102 225t-102 225t-297 96t-297 -96t-102 -225t102 -225z" />
    <glyph glyph-name="uniF739" unicode="&#xf739;" horiz-adv-x="1193" 
d="M162 -135l-10 33h47q1 -3 4.5 -14t6.5 -18q8 -20 36 -69t66 -87q37 -37 107 -69q67 -30 150 -30q439 0 441 665v164h-6q-18 -173 -139 -285q-121 -114 -292 -114q-209 0 -329 134q-121 133 -121 347t121 348q122 134 329 134q213 0 346 -175q132 -175 132 -430v-163
q0 -203 -47 -345t-154 -230q-110 -91 -281 -91q-90 0 -167 32.5t-124 83.5q-94 101 -116 179zM573 963q-188 0 -298 -125q-111 -124 -111 -315t111 -316q110 -125 298 -125q171 0 283 127q113 128 113 313q0 184 -117 313q-117 128 -279 128z" />
    <glyph glyph-name="uniF7A8" unicode="&#xf7a8;" horiz-adv-x="532" 
d="M207 -10l39 24v1420h41v-1434q-58 -31 -114 -95q-44 -50 -44 -98q0 -40 33 -67t88 -27q56 0 88.5 31.5t32.5 81.5h41q0 -63 -40 -109q-40 -45 -122 -45q-80 0 -121 41t-41 94q0 54 40 106q39 51 79 77z" />
    <glyph glyph-name="uniF7B4" unicode="&#xf7b4;" horiz-adv-x="532" 
d="M246 0v1434h41v-1434h-41zM297 1618h-53l307 328h53z" />
    <glyph glyph-name="uniF7B8" unicode="&#xf7b8;" horiz-adv-x="532" 
d="M246 0v1434h41v-1434h-41zM266 1700q-41 0 -41 41t41 41t41 -41t-41 -41z" />
    <glyph glyph-name="uniFB06" unicode="&#xfb06;" horiz-adv-x="2031" 
d="M1405 348v594h-188v41h188v41q0 238 -57 355q-59 116 -215 116q-126 0 -199 -82q-74 -83 -74 -225q0 -136 57 -276q57 -142 58 -203v-2h-41q-1 122 -105 190q-103 66 -270 66q-165 0 -268 -59q-103 -60 -103 -169q0 -91 85 -137t207 -63q128 -17 244 -36q119 -19 207 -76
q85 -55 85 -159q0 -145 -124 -214q-124 -70 -323 -70q-196 0 -320 88q-126 88 -126 249v43h41v-43q0 -144 116 -221q115 -76 289 -76q181 0 293 58q113 57 113 186q0 90 -85 138q-88 48 -207 64q-88 12 -244 37q-121 19 -207 75q-85 55 -85 157q0 125 113 197q112 72 299 72
q98 0 179 -23q79 -22 106 -45l28 -23q-53 112 -53 275q0 157 82 252q83 96 232 96q187 0 254 -146q59 -133 59 -366v-41h463v-41h-463v-586q0 -336 283 -336q62 0 118.5 17.5t79.5 40.5l23 18v-47q-86 -71 -221 -69q-162 -1 -243 91t-81 277z" />
    <glyph glyph-name="n.ss02" 
d="M1077 0h-41v948l-811 -358v-590h-41v983h41v-348l791 348h61v-983z" />
    <glyph glyph-name="r.ss02" horiz-adv-x="821" 
d="M225 635l555 369v-48l-555 -370v-586h-41v983h41v-348z" />
    <glyph glyph-name="u.ss02" 
d="M184 983h41v-948l811 358v590h41v-983h-41v348l-790 -348h-62v983z" />
    <glyph glyph-name="u.salt" horiz-adv-x="1277" 
d="M1167 -10q-73 0 -117 52t-44 144v50h-5q-8 -34 -45 -90q-30 -44 -71 -77q-39 -34 -117 -61q-75 -28 -168 -28q-199 0 -322 114q-124 112 -124 346v543h41v-543q0 -215 114 -317q112 -103 291 -103q200 0 303 123q103 122 103 308v532h41v-788q0 -164 120 -164q31 0 62 14
l8 4v-41q-27 -18 -70 -18z" />
    <glyph glyph-name="a.salt" horiz-adv-x="1386" 
d="M1114 186v80h-4q-6 -15 -13 -31q-13 -24 -47 -69q-37 -49 -86 -87q-51 -39 -136 -68q-86 -31 -189 -31q-230 0 -372 142q-144 142 -144 370t144 370q142 142 372 142q98 0 184.5 -29t140.5 -73q97 -81 134 -157l12 -28h4v266h41v-788q0 -164 121 -164q30 0 61 14l9 4v-41
q-27 -18 -70 -18q-73 0 -117.5 52t-44.5 144zM639 20q213 0 344 135q131 134 131 337q0 201 -129 336t-346 135t-346 -133q-129 -134 -129 -338t129 -338t346 -134z" />
    <glyph glyph-name="k.ss02" horiz-adv-x="1075" 
d="M1034 -20l-809 409v-389h-41v1434h41v-840l809 410v-46l-809 -409v-115l809 -409v-45z" />
    <glyph glyph-name="g.ss02" horiz-adv-x="1275" 
d="M987 881q0 -158 -48 -287q-47 -127 -116 -202q-144 -151 -254 -187l-47 -17v-4h649v-41q0 -573 -497 -573q-217 0 -353 111q-137 113 -137 319h41q0 -190 126 -290q126 -99 323 -99q457 0 456 532h-929v840h1003v-41h-219q2 -54 2 -61zM944 942h-702v-758q322 0 513 200
t191 497z" />
    <glyph glyph-name="a.ss02" horiz-adv-x="1339" 
d="M1155 0h-41v266h-4q-6 -15 -13 -31q-13 -24 -47 -69q-37 -49 -86 -87q-51 -39 -136 -68q-86 -31 -189 -31q-230 0 -372 142q-144 142 -144 370t144 370q142 142 372 142q98 0 184.5 -29t140.5 -73q97 -81 134 -157l12 -28h4v266h41v-983zM639 20q213 0 344 135
q131 134 131 337q0 201 -129 336t-346 135t-346 -133q-129 -134 -129 -338t129 -338t346 -134z" />
    <glyph glyph-name="l.salt" horiz-adv-x="477" 
d="M387 -20q-84 0 -143 50q-60 50 -60 167v1237h41v-1229q0 -183 162 -185q53 0 82 13l8 6v-45q-28 -14 -90 -14z" />
    <glyph glyph-name="I.salt" horiz-adv-x="532" 
d="M246 0v1434h41v-1434h-41z" />
    <glyph glyph-name="y.salt" horiz-adv-x="1241" 
d="M1016 -10v246h-4q-7 -31 -46 -90q-30 -44 -71 -77q-39 -34 -117 -61q-75 -28 -168 -28q-199 0 -322 114q-124 112 -124 346v543h41v-543q0 -215 114 -317q112 -103 291 -103q200 0 303 123q103 122 103 308v532h41v-993q0 -217 -122 -319q-122 -101 -314 -101
q-193 0 -315 87t-122 251h41q0 -145 112 -221t284 -76q171 0 284 89q111 89 111 290z" />
    <glyph glyph-name="g.salt" horiz-adv-x="1339" 
d="M1114 31v235h-4q-6 -15 -13 -31q-13 -24 -47 -69q-37 -49 -86 -87q-51 -39 -136 -68q-86 -31 -189 -31q-230 0 -372 142q-144 142 -144 370t144 370q142 142 372 142q98 0 184.5 -29t140.5 -73q97 -81 134 -157l12 -28h4v266h41v-952q0 -117 -41 -208.5t-114 -146.5
q-143 -106 -332 -106q-198 0 -343 89q-145 88 -145 249h41q0 -143 134 -220t313 -77q178 0 312 104q134 105 134 316zM639 20q213 0 344 135q131 134 131 337q0 201 -129 336t-346 135t-346 -133q-129 -134 -129 -338t129 -338t346 -134z" />
    <glyph glyph-name="zero.zero" horiz-adv-x="1576" 
d="M333 1242q170 212 456 212q285 0 455 -212q169 -211 169 -525t-169 -525q-170 -212 -455 -212q-286 0 -456 212q-169 211 -169 525t169 525zM205 717q0 -121 29 -231q28 -110 57 -156l28 -47l916 901q-2 4 -8 12.5t-9 13.5q-14 17 -52 54q-39 37 -87 70q-45 29 -126 55
q-79 24 -165 24q-267 0 -425 -200q-158 -202 -158 -496zM1372 717q0 122 -28 230q-28 106 -58 155l-29 49l-915 -903q5 -8 17 -24q9 -13 51 -55q39 -39 88 -69q44 -29 125 -55q75 -25 165 -25q268 0 426 201q158 202 158 496z" />
    <glyph glyph-name="one.salt" horiz-adv-x="739" 
d="M688 0h-606v41h283v1352h-246v41h287v-1393h282v-41z" />
    <glyph glyph-name="agrave.ss02" horiz-adv-x="1339" 
d="M1155 0h-41v266h-4q-6 -15 -13 -31q-13 -24 -47 -69q-37 -49 -86 -87q-51 -39 -136 -68q-86 -31 -189 -31q-230 0 -372 142q-144 142 -144 370t144 370q142 142 372 142q98 0 184.5 -29t140.5 -73q97 -81 134 -157l12 -28h4v266h41v-983zM639 20q213 0 344 135
q131 134 131 337q0 201 -129 336t-346 135t-346 -133q-129 -134 -129 -338t129 -338t346 -134zM336 1536h53l307 -328h-53z" />
    <glyph glyph-name="aacute.ss02" horiz-adv-x="1339" 
d="M1155 0h-41v266h-4q-6 -15 -13 -31q-13 -24 -47 -69q-37 -49 -86 -87q-51 -39 -136 -68q-86 -31 -189 -31q-230 0 -372 142q-144 142 -144 370t144 370q142 142 372 142q98 0 184.5 -29t140.5 -73q97 -81 134 -157l12 -28h4v266h41v-983zM639 20q213 0 344 135
q131 134 131 337q0 201 -129 336t-346 135t-346 -133q-129 -134 -129 -338t129 -338t346 -134zM672 1208h-54l308 328h53z" />
    <glyph glyph-name="abreve.ss02" horiz-adv-x="1339" 
d="M1155 0h-41v266h-4q-6 -15 -13 -31q-13 -24 -47 -69q-37 -49 -86 -87q-51 -39 -136 -68q-86 -31 -189 -31q-230 0 -372 142q-144 142 -144 370t144 370q142 142 372 142q98 0 184.5 -29t140.5 -73q97 -81 134 -157l12 -28h4v266h41v-983zM639 20q213 0 344 135
q131 134 131 337q0 201 -129 336t-346 135t-346 -133q-129 -134 -129 -338t129 -338t346 -134zM837 1278q-64 -49 -177 -49t-177 49q-65 50 -65 127v4h41v-4q0 -59 53.5 -97t147.5 -38q93 0 146.5 38t53.5 97v4h41v-4q0 -78 -64 -127z" />
    <glyph glyph-name="acircumflex.ss02" horiz-adv-x="1339" 
d="M1155 0h-41v266h-4q-6 -15 -13 -31q-13 -24 -47 -69q-37 -49 -86 -87q-51 -39 -136 -68q-86 -31 -189 -31q-230 0 -372 142q-144 142 -144 370t144 370q142 142 372 142q98 0 184.5 -29t140.5 -73q97 -81 134 -157l12 -28h4v266h41v-983zM639 20q213 0 344 135
q131 134 131 337q0 201 -129 336t-346 135t-346 -133q-129 -134 -129 -338t129 -338t346 -134zM629 1536h63l277 -328h-51l-259 305l-256 -305h-51z" />
    <glyph glyph-name="adieresis.ss02" horiz-adv-x="1339" 
d="M1155 0h-41v266h-4q-6 -15 -13 -31q-13 -24 -47 -69q-37 -49 -86 -87q-51 -39 -136 -68q-86 -31 -189 -31q-230 0 -372 142q-144 142 -144 370t144 370q142 142 372 142q98 0 184.5 -29t140.5 -73q97 -81 134 -157l12 -28h4v266h41v-983zM639 20q213 0 344 135
q131 134 131 337q0 201 -129 336t-346 135t-346 -133q-129 -134 -129 -338t129 -338t346 -134zM496 1290q-41 0 -41 41t41 41t41 -41t-41 -41zM823 1290q-41 0 -41 41t41 41t41 -41t-41 -41z" />
    <glyph glyph-name="amacron.ss02" horiz-adv-x="1339" 
d="M1155 0h-41v266h-4q-6 -15 -13 -31q-13 -24 -47 -69q-37 -49 -86 -87q-51 -39 -136 -68q-86 -31 -189 -31q-230 0 -372 142q-144 142 -144 370t144 370q142 142 372 142q98 0 184.5 -29t140.5 -73q97 -81 134 -157l12 -28h4v266h41v-983zM639 20q213 0 344 135
q131 134 131 337q0 201 -129 336t-346 135t-346 -133q-129 -134 -129 -338t129 -338t346 -134zM905 1311h-491v41h491v-41z" />
    <glyph glyph-name="aogonek.ss02" horiz-adv-x="1339" 
d="M1075 -8l39 22v252h-4q-6 -15 -13 -31q-13 -24 -47 -69q-37 -49 -86 -87q-51 -39 -136 -68q-86 -31 -189 -31q-230 0 -372 142q-144 142 -144 370t144 370q142 142 372 142q98 0 184.5 -29t140.5 -73q97 -81 134 -157l12 -28h4v266h41v-983q-23 -13 -44 -27
q-28 -18 -70 -66q-44 -50 -44 -100q0 -40 33 -67t89 -27t88 31.5t32 81.5h41q0 -63 -40 -109q-40 -45 -122 -45q-80 0 -121 41t-41 94q0 58 40 108q39 51 79 77zM639 20q213 0 344 135q131 134 131 337q0 201 -129 336t-346 135t-346 -133q-129 -134 -129 -338t129 -338
t346 -134z" />
    <glyph glyph-name="aring.ss02" horiz-adv-x="1339" 
d="M1155 0h-41v266h-4q-6 -15 -13 -31q-13 -24 -47 -69q-37 -49 -86 -87q-51 -39 -136 -68q-86 -31 -189 -31q-230 0 -372 142q-144 142 -144 370t144 370q142 142 372 142q98 0 184.5 -29t140.5 -73q97 -81 134 -157l12 -28h4v266h41v-983zM639 20q213 0 344 135
q131 134 131 337q0 201 -129 336t-346 135t-346 -133q-129 -134 -129 -338t129 -338t346 -134zM788 1235q-47 -47 -128 -47t-128 47t-47 121t47 121t128 47t128 -47q46 -46 46 -121t-46 -121zM758 1445q-35 38 -98 38q-64 0 -99 -38t-35 -89t35 -89t99 -38q63 0 98 38t35 89
t-35 89z" />
    <glyph glyph-name="atilde.ss02" horiz-adv-x="1339" 
d="M1155 0h-41v266h-4q-6 -15 -13 -31q-13 -24 -47 -69q-37 -49 -86 -87q-51 -39 -136 -68q-86 -31 -189 -31q-230 0 -372 142q-144 142 -144 370t144 370q142 142 372 142q98 0 184.5 -29t140.5 -73q97 -81 134 -157l12 -28h4v266h41v-983zM639 20q213 0 344 135
q131 134 131 337q0 201 -129 336t-346 135t-346 -133q-129 -134 -129 -338t129 -338t346 -134zM836 1423q-40 0 -87 -27q-53 -32 -82 -59q-35 -31 -86 -60q-50 -28 -98 -28q-76 0 -115.5 38.5t-39.5 103.5l8 59h41q-8 -29 -8 -59q0 -99 114 -101q59 0 169 87t184 87
q75 0 115 -39t40 -102l-8 -59h-41q8 29 8 59q1 50 -27.5 75t-86.5 25z" />
    <glyph glyph-name="gbreve.ss02" horiz-adv-x="1275" 
d="M987 881q0 -158 -48 -287q-47 -127 -116 -202q-144 -151 -254 -187l-47 -17v-4h649v-41q0 -573 -497 -573q-217 0 -353 111q-137 113 -137 319h41q0 -190 126 -290q126 -99 323 -99q457 0 456 532h-929v840h1003v-41h-219q2 -54 2 -61zM944 942h-702v-758q322 0 513 200
t191 497zM810 1278q-64 -49 -177 -49t-177 49q-65 50 -65 127v4h41v-4q0 -59 54 -97t147 -38t147 38t54 97v4h40v-4q0 -78 -64 -127z" />
    <glyph glyph-name="uni0123.ss02" horiz-adv-x="1275" 
d="M719 1270q0 -41 -41 -41t-41 59q0 47 8 109q7 53 17 88l8 31h12v-164q0 -31 19 -40q18 -9 18 -42zM987 881q0 -158 -48 -287q-47 -127 -116 -202q-144 -151 -254 -187l-47 -17v-4h649v-41q0 -573 -497 -573q-217 0 -353 111q-137 113 -137 319h41q0 -190 126 -290
q126 -99 323 -99q457 0 456 532h-929v840h1003v-41h-219q2 -54 2 -61zM944 942h-702v-758q322 0 513 200t191 497z" />
    <glyph glyph-name="uni0137.ss02" horiz-adv-x="1075" 
d="M1034 -20l-809 409v-389h-41v1434h41v-840l809 410v-46l-809 -409v-115l809 -409v-45zM563 -266q0 41 41 41t41 -60q0 -47 -8 -109q-6 -49 -16 -87l-9 -31h-12v164q0 31 -18 40q-19 9 -19 42z" />
    <glyph glyph-name="nacute.ss02" 
d="M1077 0h-41v948l-811 -358v-590h-41v983h41v-348l791 348h61v-983zM641 1208h-53l307 328h53z" />
    <glyph glyph-name="ncaron.ss02" 
d="M1077 0h-41v948l-811 -358v-590h-41v983h41v-348l791 348h61v-983zM887 1536h51l-276 -328h-64l-276 328h51l256 -305z" />
    <glyph glyph-name="uni0146.ss02" 
d="M1077 0h-41v948l-811 -358v-590h-41v983h41v-348l791 348h61v-983zM592 -266q0 41 41 41t41 -60q0 -47 -8 -109q-8 -52 -17 -87l-8 -31h-12v164q0 31 -18 40q-19 9 -19 42z" />
    <glyph glyph-name="ntilde.ss02" 
d="M1077 0h-41v948l-811 -358v-590h-41v983h41v-348l791 348h61v-983zM809 1423q-41 0 -87 -27q-49 -30 -82 -59q-35 -31 -86 -60q-49 -28 -97 -28q-76 0 -116 39t-40 103l8 59h41q-8 -29 -8 -59q0 -100 115 -101q59 0 169 87t183 87q75 0 115.5 -39t40.5 -102l-9 -59h-41
q7 27 9 59q0 100 -115 100z" />
    <glyph glyph-name="racute.ss02" horiz-adv-x="821" 
d="M225 635l555 369v-48l-555 -370v-586h-41v983h41v-348zM489 1208h-53l307 328h54z" />
    <glyph glyph-name="rcaron.ss02" horiz-adv-x="821" 
d="M225 635l555 369v-48l-555 -370v-586h-41v983h41v-348zM735 1536h51l-276 -328h-64l-276 328h51l256 -305z" />
    <glyph glyph-name="uni0157.ss02" horiz-adv-x="821" 
d="M225 635l555 369v-48l-555 -370v-586h-41v983h41v-348zM164 -266q0 41 41 41t41 -60q0 -47 -8 -109q-8 -52 -17 -87l-8 -31h-12v164q0 31 -18 40q-19 9 -19 42z" />
    <glyph glyph-name="ugrave.ss02" 
d="M184 983h41v-948l811 358v590h41v-983h-41v348l-790 -348h-62v983zM311 1536h54l307 -328h-54z" />
    <glyph glyph-name="ucircumflex.ss02" 
d="M184 983h41v-948l811 358v590h41v-983h-41v348l-790 -348h-62v983zM600 1536h64l276 -328h-51l-258 305l-256 -305h-51z" />
    <glyph glyph-name="uacute.ss02" 
d="M184 983h41v-948l811 358v590h41v-983h-41v348l-790 -348h-62v983zM639 1208h-53l307 328h53z" />
    <glyph glyph-name="udieresis.ss02" 
d="M184 983h41v-948l811 358v590h41v-983h-41v348l-790 -348h-62v983zM467 1290q-41 0 -41 41t41 41t41 -41t-41 -41zM795 1290q-41 0 -41 41t41 41t41 -41t-41 -41z" />
    <glyph glyph-name="uhungarumlaut.ss02" 
d="M184 983h41v-948l811 358v590h41v-983h-41v348l-790 -348h-62v983zM500 1208h-56l349 328h55zM786 1208h-55l348 328h56z" />
    <glyph glyph-name="umacron.ss02" 
d="M184 983h41v-948l811 358v590h41v-983h-41v348l-790 -348h-62v983zM877 1311h-492v41h492v-41z" />
    <glyph glyph-name="uogonek.ss02" 
d="M997 -10l39 24v334l-790 -348h-62v983h41v-948l811 358v590h41v-983q-56 -30 -113 -95q-44 -50 -44 -98q0 -40 32.5 -67t88.5 -27t88 31.5t32 81.5h41q0 -63 -40 -109q-40 -45 -122 -45q-79 0 -120 41t-41 94q0 56 40 106q38 51 78 77z" />
    <glyph glyph-name="uring.ss02" 
d="M184 983h41v-948l811 358v590h41v-983h-41v348l-790 -348h-62v983zM759 1235q-47 -47 -128 -47t-128 47q-46 46 -46 121t46 121q47 47 128 47t128 -47q46 -46 46 -121t-46 -121zM729 1445q-35 38 -98 38t-98 -38t-35 -89t35 -89t98 -38t98 38t35 89t-35 89z" />
    <glyph glyph-name="c_t.dlig" horiz-adv-x="2150" 
d="M1524 348v594h-189v41h189v41q0 238 -57 355q-59 116 -216 116q-125 0 -198 -82q-74 -83 -74 -225q0 -107 38 -226q34 -108 76 -205q37 -86 37 -122h-43q-1 10 -8 36q-5 19 -35 78q-30 55 -75 99q-44 42 -134 79q-90 36 -202 36q-211 0 -340 -134q-129 -135 -129 -337
q0 -204 129 -337q129 -135 340 -135q115 0 202 34q90 35 134 82q92 98 112 179l6 33h43q-1 -9 -8 -39q-6 -26 -39 -89q-35 -65 -83 -112q-49 -49 -147 -88q-96 -40 -220 -40q-223 0 -366 143q-144 143 -144 369q0 225 144 369q143 143 366 143q114 0 208 -35q91 -34 130 -68
l35 -35q-68 148 -68 322q0 157 82 252q82 96 231 96q188 0 255 -146q59 -133 59 -366v-41h463v-41h-463v-586q0 -336 282 -336q62 0 118 17.5t81 40.5l22 18v-47q-86 -71 -221 -69q-161 -1 -242 91.5t-81 276.5z" />
    <glyph glyph-name="c_h.dlig" horiz-adv-x="2527" 
d="M2363 0h-41v543q0 214 -113 318q-114 102 -292 102q-195 0 -298 -117t-108 -297v-549h-41v1393q-385 0 -385 -482q0 -49 12 -117q11 -69 21 -114l12 -45h-43q-1 10 -8 36q-5 19 -35 78q-30 55 -75 99q-44 42 -134 79q-90 36 -202 36q-211 0 -340 -134
q-129 -135 -129 -337q0 -204 129 -337q129 -135 340 -135q115 0 202 34q90 35 134 82q92 98 112 179l6 33h43q-1 -9 -8 -39q-6 -26 -39 -89q-35 -65 -83 -112q-49 -49 -147 -88q-96 -40 -220 -40q-223 0 -366 143q-144 143 -144 369q0 225 144 369q143 143 366 143
q86 0 162.5 -19.5t124.5 -50.5q97 -63 122 -107l13 -20q-9 40 -11 104q0 521 426 523h41v-686h5q7 32 46 89q27 42 70 78q39 32 117 61q75 28 168 28q199 0 323 -114q123 -114 123 -347v-543z" />
    <glyph glyph-name="c_k.dlig" horiz-adv-x="2347" 
d="M1470 0v1393q-385 0 -385 -482q0 -49 12 -117q11 -69 21 -114l12 -45h-43q-1 10 -8 36q-5 19 -35 78q-30 55 -75 99q-44 42 -134 79q-90 36 -202 36q-211 0 -340 -134q-129 -135 -129 -337q0 -204 129 -337q129 -135 340 -135q115 0 202 34q90 35 134 82q92 98 112 179
l6 33h43q-1 -9 -8 -39q-6 -26 -39 -89q-35 -65 -83 -112q-49 -49 -147 -88q-96 -40 -220 -40q-223 0 -366 143q-144 143 -144 369q0 225 144 369q143 143 366 143q86 0 162.5 -19.5t124.5 -50.5q97 -63 122 -107l13 -20q-9 40 -11 104q0 521 426 523h41v-922l676 471h72
l-676 -471l723 -512h-70l-725 512v-512h-41z" />
    <glyph glyph-name="aacute.salt" horiz-adv-x="1386" 
d="M1114 186v80h-4q-6 -15 -13 -31q-13 -24 -47 -69q-37 -49 -86 -87q-51 -39 -136 -68q-86 -31 -189 -31q-230 0 -372 142q-144 142 -144 370t144 370q142 142 372 142q98 0 184.5 -29t140.5 -73q97 -81 134 -157l12 -28h4v266h41v-788q0 -164 121 -164q30 0 61 14l9 4v-41
q-27 -18 -70 -18q-73 0 -117.5 52t-44.5 144zM639 20q213 0 344 135q131 134 131 337q0 201 -129 336t-346 135t-346 -133q-129 -134 -129 -338t129 -338t346 -134zM674 1188h-53l307 328h53z" />
    <glyph glyph-name="abreve.salt" horiz-adv-x="1386" 
d="M1114 186v80h-4q-6 -15 -13 -31q-13 -24 -47 -69q-37 -49 -86 -87q-51 -39 -136 -68q-86 -31 -189 -31q-230 0 -372 142q-144 142 -144 370t144 370q142 142 372 142q98 0 184.5 -29t140.5 -73q97 -81 134 -157l12 -28h4v266h41v-788q0 -164 121 -164q30 0 61 14l9 4v-41
q-27 -18 -70 -18q-73 0 -117.5 52t-44.5 144zM639 20q213 0 344 135q131 134 131 337q0 201 -129 336t-346 135t-346 -133q-129 -134 -129 -338t129 -338t346 -134zM829 1257q-64 -49 -177 -49q-112 0 -177 50t-65 126v5h41v-5q0 -59 53.5 -97t147.5 -38q93 0 146.5 38
t53.5 97v5h41v-5q0 -78 -64 -127z" />
    <glyph glyph-name="acircumflex.salt" horiz-adv-x="1386" 
d="M1114 186v80h-4q-6 -15 -13 -31q-13 -24 -47 -69q-37 -49 -86 -87q-51 -39 -136 -68q-86 -31 -189 -31q-230 0 -372 142q-144 142 -144 370t144 370q142 142 372 142q98 0 184.5 -29t140.5 -73q97 -81 134 -157l12 -28h4v266h41v-788q0 -164 121 -164q30 0 61 14l9 4v-41
q-27 -18 -70 -18q-73 0 -117.5 52t-44.5 144zM639 20q213 0 344 135q131 134 131 337q0 201 -129 336t-346 135t-346 -133q-129 -134 -129 -338t129 -338t346 -134zM621 1516h63l277 -328h-52l-258 305l-256 -305h-51z" />
    <glyph glyph-name="adieresis.salt" horiz-adv-x="1386" 
d="M1114 186v80h-4q-6 -15 -13 -31q-13 -24 -47 -69q-37 -49 -86 -87q-51 -39 -136 -68q-86 -31 -189 -31q-230 0 -372 142q-144 142 -144 370t144 370q142 142 372 142q98 0 184.5 -29t140.5 -73q97 -81 134 -157l12 -28h4v266h41v-788q0 -164 121 -164q30 0 61 14l9 4v-41
q-27 -18 -70 -18q-73 0 -117.5 52t-44.5 144zM639 20q213 0 344 135q131 134 131 337q0 201 -129 336t-346 135t-346 -133q-129 -134 -129 -338t129 -338t346 -134zM481 1270q-41 0 -41 41t41 41t41 -41t-41 -41zM809 1270q-41 0 -41 41t41 41t41 -41t-41 -41z" />
    <glyph glyph-name="agrave.salt" horiz-adv-x="1386" 
d="M1114 186v80h-4q-6 -15 -13 -31q-13 -24 -47 -69q-37 -49 -86 -87q-51 -39 -136 -68q-86 -31 -189 -31q-230 0 -372 142q-144 142 -144 370t144 370q142 142 372 142q98 0 184.5 -29t140.5 -73q97 -81 134 -157l12 -28h4v266h41v-788q0 -164 121 -164q30 0 61 14l9 4v-41
q-27 -18 -70 -18q-73 0 -117.5 52t-44.5 144zM639 20q213 0 344 135q131 134 131 337q0 201 -129 336t-346 135t-346 -133q-129 -134 -129 -338t129 -338t346 -134zM336 1516h53l307 -328h-53z" />
    <glyph glyph-name="amacron.salt" horiz-adv-x="1386" 
d="M1114 186v80h-4q-6 -15 -13 -31q-13 -24 -47 -69q-37 -49 -86 -87q-51 -39 -136 -68q-86 -31 -189 -31q-230 0 -372 142q-144 142 -144 370t144 370q142 142 372 142q98 0 184.5 -29t140.5 -73q97 -81 134 -157l12 -28h4v266h41v-788q0 -164 121 -164q30 0 61 14l9 4v-41
q-27 -18 -70 -18q-73 0 -117.5 52t-44.5 144zM639 20q213 0 344 135q131 134 131 337q0 201 -129 336t-346 135t-346 -133q-129 -134 -129 -338t129 -338t346 -134zM893 1290h-492v41h492v-41z" />
    <glyph glyph-name="aogonek.salt" horiz-adv-x="1386" 
d="M1114 186v80h-4q-6 -15 -13 -31q-13 -24 -47 -69q-37 -49 -86 -87q-51 -39 -136 -68q-86 -31 -189 -31q-230 0 -372 142q-144 142 -144 370t144 370q142 142 372 142q98 0 184.5 -29t140.5 -73q97 -81 134 -157l12 -28h4v266h41v-788q0 -164 121 -164q30 0 61 14l9 4v-41
q-34 -18 -49 -27q-30 -17 -77 -69q-49 -52 -49 -105q0 -40 33 -67t89 -27t88 31.5t32 81.5h41q0 -63 -40 -109q-40 -45 -122 -45q-80 0 -121 41t-41 94q0 49 31 95q32 48 62 69l30 21q-20 0 -47 13q-24 11 -42 30q-21 20 -35.5 60.5t-14.5 90.5zM639 20q213 0 344 135
q131 134 131 337q0 201 -129 336t-346 135t-346 -133q-129 -134 -129 -338t129 -338t346 -134z" />
    <glyph glyph-name="aring.salt" horiz-adv-x="1386" 
d="M1114 186v80h-4q-6 -15 -13 -31q-13 -24 -47 -69q-37 -49 -86 -87q-51 -39 -136 -68q-86 -31 -189 -31q-230 0 -372 142q-144 142 -144 370t144 370q142 142 372 142q98 0 184.5 -29t140.5 -73q97 -81 134 -157l12 -28h4v266h41v-788q0 -164 121 -164q30 0 61 14l9 4v-41
q-27 -18 -70 -18q-73 0 -117.5 52t-44.5 144zM639 20q213 0 344 135q131 134 131 337q0 201 -129 336t-346 135t-346 -133q-129 -134 -129 -338t129 -338t346 -134zM775 1215q-47 -48 -128 -48t-128 48q-46 46 -46 121q0 74 46 120q47 47 128 47t128 -47q46 -46 46 -120
q0 -75 -46 -121zM746 1424q-35 38 -98 38q-64 0 -99 -38t-35 -89t35 -89t99 -38q63 0 98 38q34 38 34 89t-34 89z" />
    <glyph glyph-name="atilde.salt" horiz-adv-x="1386" 
d="M1114 186v80h-4q-6 -15 -13 -31q-13 -24 -47 -69q-37 -49 -86 -87q-51 -39 -136 -68q-86 -31 -189 -31q-230 0 -372 142q-144 142 -144 370t144 370q142 142 372 142q98 0 184.5 -29t140.5 -73q97 -81 134 -157l12 -28h4v266h41v-788q0 -164 121 -164q30 0 61 14l9 4v-41
q-27 -18 -70 -18q-73 0 -117.5 52t-44.5 144zM639 20q213 0 344 135q131 134 131 337q0 201 -129 336t-346 135t-346 -133q-129 -134 -129 -338t129 -338t346 -134zM848 1403q-72 0 -169 -87q-37 -32 -86 -59q-49 -28 -97 -28q-75 0 -115.5 39t-40.5 102l8 60h41
q-8 -29 -8 -60q0 -100 115 -100q60 0 169 87t183 87q75 0 115.5 -39t40.5 -102l-9 -60h-41q8 27 9 60q0 100 -115 100z" />
    <glyph glyph-name="yacute.salt" horiz-adv-x="1241" 
d="M1016 -10v246h-4q-7 -31 -46 -90q-30 -44 -71 -77q-39 -34 -117 -61q-75 -28 -168 -28q-199 0 -322 114q-124 112 -124 346v543h41v-543q0 -215 114 -317q112 -103 291 -103q200 0 303 123q103 122 103 308v532h41v-993q0 -217 -122 -319q-122 -101 -314 -101
q-193 0 -315 87t-122 251h41q0 -145 112 -221t284 -76q171 0 284 89q111 89 111 290zM637 1188h-53l307 328h53z" />
    <glyph glyph-name="ydieresis.salt" horiz-adv-x="1241" 
d="M1016 -10v246h-4q-7 -31 -46 -90q-30 -44 -71 -77q-39 -34 -117 -61q-75 -28 -168 -28q-199 0 -322 114q-124 112 -124 346v543h41v-543q0 -215 114 -317q112 -103 291 -103q200 0 303 123q103 122 103 308v532h41v-993q0 -217 -122 -319q-122 -101 -314 -101
q-193 0 -315 87t-122 251h41q0 -145 112 -221t284 -76q171 0 284 89q111 89 111 290zM453 1270q-41 0 -41 41t41 41t41 -41t-41 -41zM780 1270q-41 0 -41 41t41 41t41 -41t-41 -41z" />
    <glyph glyph-name="lacute.salt" horiz-adv-x="477" 
d="M387 -20q-84 0 -143 50q-60 50 -60 167v1237h41v-1229q0 -183 162 -185q53 0 82 13l8 6v-45q-28 -14 -90 -14zM233 1597h-53l307 328h54z" />
    <glyph glyph-name="lcaron.salt" horiz-adv-x="512" 
d="M387 -20q-84 0 -143 50q-60 50 -60 167v1237h41v-1229q0 -183 162 -185q53 0 82 13l8 6v-45q-28 -14 -90 -14zM430 1393q0 41 41 41t41 -60q0 -47 -8 -108q-7 -55 -17 -88l-8 -31h-12v164q0 31 -18 40q-19 9 -19 42z" />
    <glyph glyph-name="uni013C.salt" horiz-adv-x="477" 
d="M387 -20q-84 0 -143 50q-60 50 -60 167v1237h41v-1229q0 -183 162 -185q53 0 82 13l8 6v-45q-28 -14 -90 -14zM287 -266q0 41 41 41t41 -60q0 -47 -8 -109q-8 -52 -17 -87l-8 -31h-12v164q0 31 -18 40q-19 9 -19 42z" />
    <glyph glyph-name="lslash.salt" horiz-adv-x="620" 
d="M469 -20q-84 0 -143 50q-60 50 -60 167v444l-205 -109v43l205 109v750h41v-729l215 116v-43l-215 -116v-457q0 -183 162 -185q53 0 82 13l8 6v-45q-28 -14 -90 -14z" />
    <glyph glyph-name="gbreve.salt" horiz-adv-x="1339" 
d="M1114 31v235h-4q-6 -15 -13 -31q-13 -24 -47 -69q-37 -49 -86 -87q-51 -39 -136 -68q-86 -31 -189 -31q-230 0 -372 142q-144 142 -144 370t144 370q142 142 372 142q98 0 184.5 -29t140.5 -73q97 -81 134 -157l12 -28h4v266h41v-952q0 -117 -41 -208.5t-114 -146.5
q-143 -106 -332 -106q-198 0 -343 89q-145 88 -145 249h41q0 -143 134 -220t313 -77q178 0 312 104q134 105 134 316zM639 20q213 0 344 135q131 134 131 337q0 201 -129 336t-346 135t-346 -133q-129 -134 -129 -338t129 -338t346 -134zM817 1257q-64 -49 -178 -49
q-112 0 -177 50t-65 126v5h41v-5q0 -59 54 -97t147 -38t147 38t54 97v5h41v-5q0 -78 -64 -127z" />
    <glyph glyph-name="uni0123.salt" horiz-adv-x="1339" 
d="M688 1249q0 -41 -41 -41t-41 60q0 50 9 109q6 49 16 87l8 31h12v-164q0 -31 19 -40q18 -9 18 -42zM1114 31v235h-4q-6 -15 -13 -31q-13 -24 -47 -69q-37 -49 -86 -87q-51 -39 -136 -68q-86 -31 -189 -31q-230 0 -372 142q-144 142 -144 370t144 370q142 142 372 142
q98 0 184.5 -29t140.5 -73q97 -81 134 -157l12 -28h4v266h41v-952q0 -117 -41 -208.5t-114 -146.5q-143 -106 -332 -106q-198 0 -343 89q-145 88 -145 249h41q0 -143 134 -220t313 -77q178 0 312 104q134 105 134 316zM639 20q213 0 344 135q131 134 131 337q0 201 -129 336
t-346 135t-346 -133q-129 -134 -129 -338t129 -338t346 -134z" />
    <glyph glyph-name="uacute.salt" horiz-adv-x="1308" 
d="M1198 -10q-73 0 -117.5 52t-44.5 144v50h-4q-8 -34 -46 -90q-30 -44 -71 -77q-39 -33 -116 -61q-75 -28 -168 -28q-198 0 -323 114q-124 112 -124 346v543h41v-543q0 -215 114 -317q113 -103 292 -103q198 0 302 123q103 122 103 308v532h41v-788q0 -164 121 -164
q28 0 62 14l8 4v-41q-27 -18 -70 -18zM666 1188h-54l308 328h53z" />
    <glyph glyph-name="ucircumflex.salt" horiz-adv-x="1308" 
d="M1198 -10q-73 0 -117.5 52t-44.5 144v50h-4q-8 -34 -46 -90q-30 -44 -71 -77q-39 -33 -116 -61q-75 -28 -168 -28q-198 0 -323 114q-124 112 -124 346v543h41v-543q0 -215 114 -317q113 -103 292 -103q198 0 302 123q103 122 103 308v532h41v-788q0 -164 121 -164
q28 0 62 14l8 4v-41q-27 -18 -70 -18zM600 1516h64l276 -328h-51l-258 305l-256 -305h-51z" />
    <glyph glyph-name="udieresis.salt" horiz-adv-x="1308" 
d="M1198 -10q-73 0 -117.5 52t-44.5 144v50h-4q-8 -34 -46 -90q-30 -44 -71 -77q-39 -33 -116 -61q-75 -28 -168 -28q-198 0 -323 114q-124 112 -124 346v543h41v-543q0 -215 114 -317q113 -103 292 -103q198 0 302 123q103 122 103 308v532h41v-788q0 -164 121 -164
q28 0 62 14l8 4v-41q-27 -18 -70 -18zM469 1270q-41 0 -41 41t41 41t41 -41t-41 -41zM797 1270q-41 0 -41 41t41 41t41 -41t-41 -41z" />
    <glyph glyph-name="uhungarumlaut.salt" horiz-adv-x="1308" 
d="M1198 -10q-73 0 -117.5 52t-44.5 144v50h-4q-8 -34 -46 -90q-30 -44 -71 -77q-39 -33 -116 -61q-75 -28 -168 -28q-198 0 -323 114q-124 112 -124 346v543h41v-543q0 -215 114 -317q113 -103 292 -103q198 0 302 123q103 122 103 308v532h41v-788q0 -164 121 -164
q28 0 62 14l8 4v-41q-27 -18 -70 -18zM506 1188h-55l348 328h55zM793 1188h-56l348 328h56z" />
    <glyph glyph-name="ugrave.salt" horiz-adv-x="1308" 
d="M1198 -10q-73 0 -117.5 52t-44.5 144v50h-4q-8 -34 -46 -90q-30 -44 -71 -77q-39 -33 -116 -61q-75 -28 -168 -28q-198 0 -323 114q-124 112 -124 346v543h41v-543q0 -215 114 -317q113 -103 292 -103q198 0 302 123q103 122 103 308v532h41v-788q0 -164 121 -164
q28 0 62 14l8 4v-41q-27 -18 -70 -18zM328 1516h53l307 -328h-53z" />
    <glyph glyph-name="umacron.salt" horiz-adv-x="1308" 
d="M1198 -10q-73 0 -117.5 52t-44.5 144v50h-4q-8 -34 -46 -90q-30 -44 -71 -77q-39 -33 -116 -61q-75 -28 -168 -28q-198 0 -323 114q-124 112 -124 346v543h41v-543q0 -215 114 -317q113 -103 292 -103q198 0 302 123q103 122 103 308v532h41v-788q0 -164 121 -164
q28 0 62 14l8 4v-41q-27 -18 -70 -18zM877 1290h-492v41h492v-41z" />
    <glyph glyph-name="uogonek.salt" horiz-adv-x="1308" 
d="M1268 49v-41q-61 -25 -126 -95q-48 -53 -48 -106q0 -40 32.5 -67t88.5 -27t88 31.5t32 81.5h41q0 -63 -40 -109q-40 -45 -122 -45q-79 0 -120 41t-41 94q0 51 31 97q31 49 61 67l31 21q-21 0 -48 13q-24 11 -42 30q-21 20 -35.5 60.5t-14.5 90.5v50h-4q-8 -34 -46 -90
q-30 -44 -71 -77q-39 -33 -116 -61q-75 -28 -168 -28q-198 0 -323 114q-124 112 -124 346v543h41v-543q0 -215 114 -317q113 -103 292 -103q198 0 302 123q103 122 103 308v532h41v-788q0 -164 121 -164q28 0 62 14z" />
    <glyph glyph-name="uring.salt" horiz-adv-x="1308" 
d="M1198 -10q-73 0 -117.5 52t-44.5 144v50h-4q-8 -34 -46 -90q-30 -44 -71 -77q-39 -33 -116 -61q-75 -28 -168 -28q-198 0 -323 114q-124 112 -124 346v543h41v-543q0 -215 114 -317q113 -103 292 -103q198 0 302 123q103 122 103 308v532h41v-788q0 -164 121 -164
q28 0 62 14l8 4v-41q-27 -18 -70 -18zM759 1215q-47 -48 -128 -48t-128 48q-46 46 -46 121q0 74 46 120q47 47 128 47t128 -47q46 -46 46 -120q0 -75 -46 -121zM729 1424q-35 38 -98 38t-98 -38t-35 -89t35 -89t98 -38t98 38t35 89t-35 89z" />
    <glyph glyph-name="Imacron.salt" horiz-adv-x="532" 
d="M246 0v1434h41v-1434h-41zM512 1700h-492v41h492v-41z" />
    <glyph glyph-name="uni0406.salt" horiz-adv-x="532" 
d="M246 0v1434h41v-1434h-41z" />
    <glyph glyph-name="uni0407.salt" horiz-adv-x="532" 
d="M246 0v1434h41v-1434h-41zM102 1638q-41 0 -41 41t41 41t41 -41t-41 -41zM430 1638q-41 0 -41 41t41 41t41 -41t-41 -41z" />
    <glyph glyph-name="glyph529" horiz-adv-x="3149" 
d="M205 942h364v-63h-147v-408h-72v408h-145v63zM1063 811q65 0 112 -51q46 -50 46 -121q0 -75 -46 -124q-47 -50 -112 -50q-59 0 -96 43v-162h-70v459h49l19 -39q39 45 98 45zM1057 528q39 0 67.5 33t28.5 78q0 43 -28.5 74.5t-67.5 31.5t-67.5 -31.5t-28.5 -74.5
q0 -46 27.5 -78.5t68.5 -32.5zM592 805l90 -238l90 238h76l-158 -389q-33 -70 -100 -70q-11 0 -21 2v58q48 0 64 40l12 33l-129 326h76zM1323 761q47 50 113 50q65 0 110 -50q45 -49 45 -120l-2 -31h-243q4 -36 29.5 -60t60.5 -24q55 0 75 35h72q-18 -45 -58 -70.5
t-89 -25.5q-66 0 -113 50t-47 124q0 72 47 122zM1346 666h180q-2 34 -29.5 58t-60.5 24q-34 0 -60 -23t-30 -59zM1559 942h364v-63h-147v-408h-72v408h-145v63zM2417 811q65 0 112 -51q45 -51 45 -121q0 -75 -46 -124q-47 -50 -111 -50q-60 0 -97 43v-162h-69v459h49l18 -39
q40 45 99 45zM2410 528q40 0 68 33q29 34 29 78q0 43 -29 75q-28 31 -67 31q-40 0 -68 -31q-29 -32 -29 -75q0 -46 27.5 -78.5t68.5 -32.5zM1946 805l90 -238l90 238h76l-158 -389q-33 -70 -100 -70q-11 0 -21 2v58q48 0 64 40l12 33l-129 326h76zM2677 761q47 50 113 50
q65 0 110 -50q45 -49 45 -120l-2 -31h-244q4 -35 30 -59.5t60 -24.5q55 0 76 35h72q-18 -45 -57.5 -70.5t-90.5 -25.5q-65 0 -112 50t-47 124q0 72 47 122zM2699 666h180q-2 34 -29 58t-60 24q-34 0 -60.5 -23t-30.5 -59z" />
    <glyph glyph-name="uni0430.salt" horiz-adv-x="1386" 
d="M1114 186v80h-4q-6 -15 -13 -31q-13 -24 -47 -69q-37 -49 -86 -87q-51 -39 -136 -68q-86 -31 -189 -31q-230 0 -372 142q-144 142 -144 370t144 370q142 142 372 142q98 0 184.5 -29t140.5 -73q97 -81 134 -157l12 -28h4v266h41v-788q0 -164 121 -164q30 0 61 14l9 4v-41
q-27 -18 -70 -18q-73 0 -117.5 52t-44.5 144zM639 20q213 0 344 135q131 134 131 337q0 201 -129 336t-346 135t-346 -133q-129 -134 -129 -338t129 -338t346 -134z" />
    <glyph glyph-name="m.ss02" horiz-adv-x="1826" 
d="M1642 0h-40v948l-668 -358v-590h-41v948l-668 -358v-590h-41v983h41v-348l647 348h62v-348l647 348h61v-983z" />
    <glyph glyph-name="h.ss02" 
d="M1077 0h-41v948l-811 -358v-590h-41v1434h41v-799l791 348h61v-983z" />
    <glyph glyph-name="c_h.dlig.ss02" horiz-adv-x="2547" 
d="M1470 1434h41v-799l791 348h61v-983h-41v948l-811 -358v-590h-41v1393q-385 0 -385 -482q0 -49 12 -117q11 -69 21 -114l12 -45h-43q-1 10 -8 36q-5 19 -35 78q-30 55 -75 99q-44 42 -134 79q-90 36 -202 36q-211 0 -340 -134q-129 -135 -129 -337q0 -204 129 -337
q129 -135 340 -135q115 0 202 34q90 35 134 82q92 98 112 179l6 33h43q-1 -9 -8 -39q-6 -26 -39 -89q-35 -65 -83 -112q-49 -49 -147 -88q-96 -40 -220 -40q-223 0 -366 143q-144 143 -144 369q0 225 144 369q143 143 366 143q86 0 162.5 -19.5t124.5 -50.5q97 -63 122 -107
l13 -20q-9 40 -11 104q0 521 426 523z" />
    <glyph glyph-name="c_k.dlig.ss02" horiz-adv-x="2361" 
d="M1470 1434h41v-840l809 410v-46l-809 -409v-115l809 -409v-45l-809 409v-389h-41v1393q-385 0 -385 -482q0 -49 12 -117q11 -69 21 -114l12 -45h-43q-1 10 -8 36q-5 19 -35 78q-30 55 -75 99q-44 42 -134 79q-90 36 -202 36q-211 0 -340 -134q-129 -135 -129 -337
q0 -204 129 -337q129 -135 340 -135q115 0 202 34q90 35 134 82q92 98 112 179l6 33h43q-1 -9 -8 -39q-6 -26 -39 -89q-35 -65 -83 -112q-49 -49 -147 -88q-96 -40 -220 -40q-223 0 -366 143q-144 143 -144 369q0 225 144 369q143 143 366 143q86 0 162.5 -19.5t124.5 -50.5
q97 -63 122 -107l13 -20q-9 40 -11 104q0 521 426 523z" />
    <glyph glyph-name="f_k.liga.ss02" horiz-adv-x="1742" 
d="M893 1065v-471l809 410v-46l-809 -409v-115l809 -409v-45l-809 409v-389h-41v942h-561v-942h-41v942h-189v41h189v82q0 193 89 291t233 98q143 0 232 -98t89 -291zM291 1065v-82h561v82q0 175 -79 261q-79 87 -201 87t-202 -87q-79 -86 -79 -261z" />
    <glyph glyph-name="one.tnum" horiz-adv-x="1331" 
d="M1174 0h-955v41h457v1352h-379v41h420v-1393h457v-41z" />
    <glyph glyph-name="seven.tnum" horiz-adv-x="1331" 
d="M1169 1393h-1040v41h1073v-68l-788 -1366h-47z" />
    <glyph glyph-name="two.tnum" horiz-adv-x="1331" 
d="M1219 0h-1108v41q0 119 56 214t153 158q26 17 53.5 33t61 33t57.5 29t66 30.5t61.5 27t67.5 29.5t63 27q111 47 205 102q91 54 150 138q58 83 58 193q0 169 -135 264q-134 94 -340 94t-340 -94q-135 -95 -135 -264v-41h-41v41q0 193 147 296q145 103 369 103t370 -103
q146 -104 146 -296q0 -111 -56.5 -200.5t-152.5 -149.5q-30 -19 -66 -38.5t-65 -34t-75.5 -35.5t-70.5 -31.5t-78.5 -34t-73.5 -31.5q-131 -57 -217 -114t-139 -139q-58 -88 -58 -206h1067v-41z" />
    <glyph glyph-name="three.tnum" horiz-adv-x="1331" 
d="M1114 1393h-913v41h952v-64l-717 -500h230q236 0 381 -114q145 -115 145 -326t-146 -330q-147 -120 -380 -120q-234 0 -380 120q-147 118 -147 330v41h41v-41q0 -190 137 -300t349 -110t349 110q136 109 136 300q0 188 -135 294q-135 105 -350 105h-291v50z" />
    <glyph glyph-name="four.tnum" horiz-adv-x="1331" 
d="M86 446l893 988h59v-1004h205v-41h-205v-389h-41v389h-911v57zM997 1391l-872 -961h872v961z" />
    <glyph glyph-name="five.tnum" horiz-adv-x="1331" 
d="M705 942q231 0 379 -130q147 -130 147 -351t-147 -351q-148 -130 -379 -130q-208 0 -328 81q-52 34 -92 79q-80 92 -101 227l-2 22h43q0 -18 15 -72q23 -82 82 -151q76 -90 211 -125q76 -21 172 -21q213 0 349 121t136 320q0 198 -136 319t-349 121q-92 0 -175 -25.5
t-133 -64.5q-92 -72 -125 -139l-12 -27h-41v789h911v-41h-870v-664q10 22 63 74q37 37 84 66q50 31 130.5 52t167.5 21z" />
    <glyph glyph-name="six.tnum" horiz-adv-x="1331" 
d="M1155 1122l12 -37h-49q-1 4 -4.5 16t-6.5 20q-9 26 -41 78q-34 55 -78 99q-43 43 -126 79q-82 36 -180 36q-253 0 -378 -197q-124 -197 -124 -509v-164h6q29 175 171 287q140 112 327 112q231 0 379 -130q147 -130 147 -351t-144 -351q-143 -130 -382 -130
q-250 0 -397 174q-148 173 -148 430v164q0 416 233 605q127 101 310 101q109 0 202 -38q91 -37 141 -92q109 -117 130 -202zM684 20q218 0 351 120q134 120 134 321q0 199 -136 320q-137 120 -349 120q-188 0 -325 -129q-138 -129 -138 -311q0 -185 134 -313t329 -128z" />
    <glyph glyph-name="eight.tnum" horiz-adv-x="1331" 
d="M1223 375q0 -195 -151 -295t-406 -100q-254 0 -405 100q-152 101 -152 295q0 85 34.5 157t88.5 112q102 76 190 97l37 9v4q-10 1 -32 8q-22 6 -74 33q-53 25 -94 60t-72 98q-33 63 -33 139q0 167 140 265q139 97 372 97q232 0 372 -97q140 -98 140 -265q0 -73 -31 -137
t-78 -101q-93 -73 -164 -92l-33 -8v-4q11 -1 38 -8q22 -7 85 -33q57 -26 106 -65q46 -37 84 -109q38 -73 38 -160zM291 638q-141 -92 -141 -263q0 -172 141 -263q142 -92 375 -92q232 0 375 92q141 91 141 263q0 171 -141 263q-142 91 -375 91q-235 0 -375 -91zM325 1325
q-130 -88 -130 -233q0 -146 130 -234t341 -88t341 88t130 234q0 145 -130 233t-341 88t-341 -88z" />
    <glyph glyph-name="nine.tnum" horiz-adv-x="1331" 
d="M158 311l-13 37h50q7 -21 12 -35q6 -19 43 -78q33 -55 80 -100q44 -43 129 -79q84 -36 186 -36q259 0 383 198q125 199 125 509v164h-6q-28 -173 -170 -286t-328 -113q-232 0 -378 130q-148 130 -148 351t145 351q143 130 381 130q249 0 398 -174q147 -174 147 -430v-164
q0 -419 -235 -605q-128 -101 -314 -101q-115 0 -206 38q-94 38 -145 92q-109 114 -136 201zM649 1413q-217 0 -351 -119q-134 -120 -134 -321q0 -199 136 -320t349 -121q189 0 326 130q137 129 137 311q0 185 -134 313q-133 127 -329 127z" />
    <glyph glyph-name="zero.tnum" horiz-adv-x="1331" 
d="M210 1242q170 212 456 212q285 0 455 -212q169 -211 169 -525t-169 -525q-170 -212 -455 -212q-286 0 -456 212q-169 211 -169 525t169 525zM1092 221q157 200 157 496t-157 496q-158 200 -426 200t-426 -200q-158 -202 -158 -496t158 -496q158 -201 426 -201t426 201z
" />
    <glyph glyph-name="ordfeminine.salt" horiz-adv-x="923" 
d="M834 922q-121 0 -121 163v23q-12 -27 -43 -64q-27 -32 -59 -56q-36 -27 -94 -46.5t-120 -19.5q-164 0 -260 107t-96 262t96 262q96 106 260 106q63 0 121 -19t94 -47q68 -57 93 -102l8 -18v165h41v-553q0 -61 20 -92t60 -30l49 8v-41q-19 -8 -49 -8zM397 963
q143 0 230 94q86 95 86 233q0 136 -86 233q-86 95 -230 95q-145 0 -230 -97t-85 -231q0 -133 85 -230t230 -97z" />
    <glyph glyph-name="zero.numr" horiz-adv-x="835" 
d="M679 1341q95 -115 95 -296q0 -183 -95 -296q-95 -114 -261 -114t-261 114q-96 113 -96 296q0 182 96 296q95 113 261 113t261 -113zM186 1310q-84 -104 -84 -265t84 -265t232 -104q147 0 231 104t84 265t-84 265q-84 103 -231 103q-148 0 -232 -103z" />
    <glyph glyph-name="one.numr" horiz-adv-x="456" 
d="M211 1397l-211 -203v55l190 185h62v-779h-41v742z" />
    <glyph glyph-name="two.numr" horiz-adv-x="765" 
d="M723 655h-662v41q0 110 65 178q64 65 156 94q107 31 182 50q93 23 156 71q64 48 64 130q0 81 -71 138q-73 56 -199 56t-199 -62q-72 -63 -72 -153v-20h-41v20q0 113 83 185q83 71 229 71t229 -65q82 -66 82 -170q0 -97 -64 -152q-64 -56 -156 -79q-83 -20 -182 -48
q-93 -26 -156 -83q-65 -59 -65 -161h621v-41z" />
    <glyph glyph-name="three.numr" horiz-adv-x="817" 
d="M666 1393h-562v41h603v-64l-443 -250h150q166 0 249 -60t82 -181q0 -117 -86.5 -180.5t-244.5 -63.5t-245 63.5t-87 180.5v47h41v-47q0 -95 76.5 -149t214.5 -54q139 0 215 53.5t76 149.5q0 97 -73.5 148.5t-217.5 51.5h-209v49z" />
    <glyph glyph-name="four.numr" horiz-adv-x="729" 
d="M0 891l500 543h59v-560h129v-40h-129v-179h-41v179h-518v57zM518 1393l-481 -519h481v519z" />
    <glyph glyph-name="five.numr" horiz-adv-x="798" 
d="M416 1163q160 0 246 -74q86 -75 86 -190t-86 -189q-87 -75 -246 -75q-80 0 -145.5 20.5t-99.5 52.5q-65 59 -75 111l-4 23h43q1 -1 2 -6.5t3 -10.5t7.5 -16t14.5 -24q19 -30 46 -50q31 -24 87 -41.5t121 -17.5q138 0 215 66q76 64 76 157q0 92 -76 158q-77 65 -215 65
q-125 0 -187 -45q-60 -42 -73 -73l-9 -13h-47v443h568v-41h-527v-332q8 12 26 29q16 16 88 45q69 28 161 28z" />
    <glyph glyph-name="six.numr" horiz-adv-x="825" 
d="M723 1270l6 -21h-43q-13 35 -29 58q-18 26 -45 50q-28 23 -78 39.5t-106 16.5q-153 0 -234 -102.5t-81 -302.5v-56h4q5 69 88 142t231 73q149 0 244 -74q94 -75 94 -192q0 -118 -94 -191q-94 -75 -244 -75q-163 0 -264 98q-100 97 -100 281v20q0 195 95 308
q94 112 261 112q69 0 126.5 -20.5t90.5 -51.5q64 -63 78 -112zM436 676q131 0 214 65t83 160q0 96 -83 161q-82 64 -214 64q-120 0 -202 -66q-84 -68 -84 -159q0 -104 83 -164q82 -61 203 -61z" />
    <glyph glyph-name="seven.numr" horiz-adv-x="614" 
d="M582 1393h-541v41h573v-68l-395 -711h-45z" />
    <glyph glyph-name="eight.numr" horiz-adv-x="794" 
d="M692 1249q0 -62 -34 -106t-70 -60l-35 -14v-4q43 -16 60 -25q30 -17 51 -37q25 -24 42 -62.5t17 -80.5q0 -98 -83 -161q-82 -64 -242 -64q-161 0 -243 64q-83 63 -83 161q0 72 42 123t85 66l43 16v4q-28 11 -48 24q-25 16 -42 34q-50 48 -50 122q0 86 74 146
q74 59 222 59q147 0 221 -59q73 -60 73 -146zM184 729q71 -53 214 -53t214 53q70 52 70 131t-70 131q-71 53 -214 53t-214 -53t-71 -131t71 -131zM204 1364q-61 -49 -61 -114q0 -66 61 -115q61 -50 193 -50t194 50q60 49 60 115q0 64 -60 114q-61 49 -194 49
q-134 0 -193 -49z" />
    <glyph glyph-name="nine.numr" horiz-adv-x="825" 
d="M74 819l-8 21h43q9 -24 34 -57q22 -30 51 -50q32 -24 87 -40.5t116 -16.5q154 0 235 102.5t81 302.5v56h-4q-5 -68 -88 -141q-85 -74 -232 -74q-149 0 -244 75q-94 73 -94 191q0 117 95 192q95 74 243 74q164 0 265 -98q100 -99 100 -281v-20q0 -194 -95 -307
q-96 -113 -262 -113q-75 0 -137.5 20.5t-98.5 52.5q-74 64 -87 111zM389 1413q-132 0 -214 -64q-83 -65 -83 -161q0 -95 83 -160t214 -65q120 0 203 67q84 66 84 158q0 103 -83 165q-83 60 -204 60z" />
    <glyph glyph-name="zero.dnom" horiz-adv-x="835" 
d="M679 685q95 -115 95 -296q0 -182 -95 -295q-95 -114 -261 -114t-261 114q-96 112 -96 295q0 182 96 296q95 114 261 114t261 -114zM186 655q-84 -103 -84 -266q0 -161 84 -265t232 -104q147 0 231 104q84 103 84 265q0 163 -84 266t-231 103q-148 0 -232 -103z" />
    <glyph glyph-name="one.dnom" horiz-adv-x="456" 
d="M211 741l-211 -202v55l190 184h62v-778h-41v741z" />
    <glyph glyph-name="two.dnom" horiz-adv-x="765" 
d="M723 0h-662v41q0 110 65 178q64 65 156 94q107 31 182 50q93 23 156 70q64 48 64 130t-71 139q-73 56 -199 56t-199 -62q-72 -63 -72 -153v-21h-41v21q0 113 83 185q83 71 229 71t229 -65q82 -66 82 -171q0 -97 -64 -152q-64 -56 -156 -79q-45 -11 -182 -47
q-93 -26 -156 -83q-65 -59 -65 -161h621v-41z" />
    <glyph glyph-name="three.dnom" horiz-adv-x="817" 
d="M666 737h-562v41h603v-63l-443 -250h150q166 0 249 -60.5t82 -181.5q0 -117 -86.5 -180t-244.5 -63t-245 63t-87 180v47h41v-47q0 -95 76.5 -149t214.5 -54t214.5 54t76.5 149q0 97 -74 149t-217 52h-209v49z" />
    <glyph glyph-name="four.dnom" horiz-adv-x="729" 
d="M0 236l500 542h59v-559h129v-41h-129v-178h-41v178h-518v58zM518 737l-481 -518h481v518z" />
    <glyph glyph-name="five.dnom" horiz-adv-x="798" 
d="M416 508q160 0 246 -75t86 -189q0 -115 -86 -189q-87 -75 -246 -75q-80 0 -145.5 20.5t-99.5 52.5q-66 60 -75 111l-4 22h43q13 -36 27 -57q19 -30 46 -50q31 -24 87 -41.5t121 -17.5q138 0 215 66q76 66 76 158t-76 158q-77 65 -215 65q-123 0 -187 -46q-60 -42 -73 -73
l-9 -12h-47v442h568v-41h-527v-331q8 12 26 29q16 16 88 45q69 28 161 28z" />
    <glyph glyph-name="six.dnom" horiz-adv-x="825" 
d="M723 614l6 -20h-43q-13 35 -29 58q-18 26 -45 50q-28 23 -78 39.5t-106 16.5q-154 0 -234.5 -102t-80.5 -304v-55h4q5 69 88 142t231 73q150 0 244 -75t94 -191q0 -118 -94 -191q-94 -75 -244 -75q-163 0 -264 98q-100 97 -100 280v21q0 195 95 308q94 112 261 112
q69 0 126.5 -20.5t90.5 -52.5q66 -64 78 -112zM436 20q131 0 214 65t83 161t-83 161q-82 64 -214 64q-120 0 -202 -66q-84 -67 -84 -159q0 -103 83 -165q82 -61 203 -61z" />
    <glyph glyph-name="seven.dnom" horiz-adv-x="614" 
d="M582 737h-541v41h573v-67l-395 -711h-45z" />
    <glyph glyph-name="eight.dnom" horiz-adv-x="794" 
d="M692 594q0 -62 -34 -106q-34 -46 -70 -60l-35 -14v-4q37 -14 60 -26q29 -15 51 -36q25 -24 42 -62.5t17 -80.5q0 -98 -83 -161q-82 -64 -242 -64t-243 63t-83 162q0 72 42 123q43 52 85 65l43 17v4q-28 11 -48 24q-24 15 -42 33q-21 20 -35.5 53t-14.5 70q0 86 74 146
q74 59 222 59q147 0 221 -59q73 -60 73 -146zM184 74q70 -54 214 -54t214 54q70 52 70 131t-70 131q-71 53 -214 53t-214 -53t-71 -131t71 -131zM204 709q-61 -49 -61 -115t61 -115q59 -49 193 -49q133 0 194 49q60 49 60 115t-60 115q-61 49 -194 49q-134 0 -193 -49z" />
    <glyph glyph-name="nine.dnom" horiz-adv-x="825" 
d="M74 164l-8 20h43q9 -23 34 -57q22 -30 51 -50q32 -24 87 -40.5t116 -16.5q154 0 235 102.5t81 303.5v55h-4q-5 -68 -88 -141q-85 -74 -232 -74q-149 0 -244 75q-94 75 -94 192q0 116 95 191q94 75 243 75q164 0 265 -98q100 -99 100 -281v-21q0 -194 -95 -307
q-96 -112 -262 -112q-75 0 -137.5 20.5t-98.5 52.5q-75 65 -87 111zM389 758q-132 0 -214 -64q-83 -65 -83 -161t83 -161t214 -65q120 0 203 67q84 66 84 158q0 103 -83 165q-82 61 -204 61z" />
    <glyph glyph-name="at.case" horiz-adv-x="1986" 
d="M1004 -328q-392 0 -616 243q-224 244 -224 649q0 406 223 648q224 242 617 242q392 0 616 -242q223 -242 223 -649q0 -236 -83 -343t-206 -107q-102 0 -163 64q-62 64 -62 171h-4q-1 -1 -4 -9t-6 -14.5t-12 -21t-23 -32.5q-28 -37 -65 -66q-41 -31 -106 -53.5t-136 -22.5
q-188 0 -293 126t-105 304t105 304q104 126 293 126q73 0 137 -21.5t103 -54.5q78 -68 100 -118l10 -23h6v197h41v-621q0 -94 50 -144t134 -50q248 17 248 409q0 377 -209 613q-208 235 -589 235q-382 0 -590 -235q-209 -236 -209 -613q0 -375 209 -613q208 -235 590 -235
q102 0 191 19q91 20 132 39l43 18v-49q-140 -70 -366 -70zM1237 832q-92 116 -264 116t-264 -116q-93 -117 -93 -273q0 -157 93 -272q91 -117 264 -117q167 0 262 116q94 115 94 273q0 155 -92 273z" />
    <glyph glyph-name="parenleft.case" horiz-adv-x="788" 
d="M342 -39q-178 308 -178 776q0 467 178 777q178 309 426 309v-41q-154 0 -284 -142t-204 -383q-75 -241 -75 -519q0 -279 75 -520q73 -240 204 -383q130 -142 284 -142v-41q-248 0 -426 309z" />
    <glyph glyph-name="parenright.case" horiz-adv-x="788" 
d="M447 1514q178 -310 178 -777q0 -468 -178 -776q-178 -309 -427 -309v41q154 0 284 142t205 383t75 520q0 278 -75 519q-75 242 -205 383q-130 142 -284 142v41q249 0 427 -309z" />
    <glyph glyph-name="bracketleft.case" horiz-adv-x="675" 
d="M287 -307h368v-41h-409v2171h409v-41h-368v-2089z" />
    <glyph glyph-name="bracketright.case" horiz-adv-x="675" 
d="M430 -348h-410v41h369v2089h-369v41h410v-2171z" />
    <glyph glyph-name="braceleft.case" horiz-adv-x="731" 
d="M666 -328h45v-41h-45q-379 0 -379 389v482q0 100 -49 157.5t-136 57.5v41h9q84 4 130 60t46 155v481q0 389 379 389h45v-41h-45q-165 0 -251.5 -88.5t-86.5 -259.5v-481q0 -84 -31 -142q-32 -59 -59 -75l-31 -17v-4q33 -20 42 -27q19 -16 37 -41q42 -67 42 -165v-482
q0 -171 86.5 -259.5t251.5 -88.5z" />
    <glyph glyph-name="braceright.case" horiz-adv-x="731" 
d="M20 -369v41h46q165 0 251 88.5t86 259.5v482q0 107 43 166q37 52 66 61l12 6v4q-26 15 -41 28q-21 15 -37 41q-43 63 -43 165v481q0 171 -86.5 259.5t-250.5 88.5h-46v41h46q380 0 378 -389v-481q0 -98 46.5 -154.5t130.5 -60.5h8v-41q-87 0 -136 -57.5t-49 -157.5v-482
q0 -389 -378 -389h-46z" />
    <glyph glyph-name="exclamdown.case" horiz-adv-x="532" 
d="M287 0h-41v1085h41v-1085zM266 1352q-41 0 -41 41t41 41t41 -41t-41 -41z" />
    <glyph glyph-name="questiondown.case" horiz-adv-x="1310" 
d="M674 1434q41 0 41 -41t-41 -41t-41 41t41 41zM489 811v-33h-40v33q0 188 225 188q114 0 181 -49t67 -139q0 -100 -74 -154q-72 -54 -179 -74q-38 -7 -109 -20.5t-102 -19.5q-105 -21 -179 -81q-74 -62 -74 -169q0 -132 130 -202q131 -71 329 -71q194 0 319 83
q123 82 123 233v51h41v-51q0 -172 -135 -264q-136 -92 -348 -92q-220 0 -359 79q-141 78 -141 234q0 121 74 189q73 67 179 91q108 23 211 42q106 18 179 63q74 45 74 133q0 70 -57 108.5t-150 38.5q-185 0 -185 -147z" />
    <glyph glyph-name="guillemotleft.case" horiz-adv-x="784" 
d="M346 297l-285 379l285 379h49l-284 -379l284 -379h-49zM633 297l-285 379l285 379h49l-285 -379l285 -379h-49z" />
    <glyph glyph-name="guillemotright.case" horiz-adv-x="784" 
d="M389 1055h49l285 -379l-285 -379h-49l285 379zM102 1055h50l284 -379l-284 -379h-50l285 379z" />
    <glyph glyph-name="guilsinglleft.case" horiz-adv-x="497" 
d="M346 297l-285 379l285 379h49l-284 -379l284 -379h-49z" />
    <glyph glyph-name="guilsinglright.case" horiz-adv-x="497" 
d="M102 1055h50l284 -379l-284 -379h-50l285 379z" />
    <glyph glyph-name="hyphen.case" horiz-adv-x="552" 
d="M61 655l431 179v-43l-431 -179v43z" />
    <glyph glyph-name="endash.case" horiz-adv-x="1320" 
d="M102 737h1117v-41h-1117v41z" />
    <glyph glyph-name="emdash.case" horiz-adv-x="1822" 
d="M102 737h1618v-41h-1618v41z" />
    <glyph glyph-name="periodcentered.case" horiz-adv-x="471" 
d="M236 676q-41 0 -41 41t41 41q40 0 40 -41t-40 -41z" />
    <glyph glyph-name="glyph584" horiz-adv-x="1570" 
d="M805 1085q0 63 21 120t53 92q59 63 116 85l21 9v2h-289q-461 0 -461 -447v-946h-41v946q0 487 502 488h481v-41q-137 0 -249 -79q-113 -80 -113 -229q0 -81 35.5 -142.5t96.5 -98.5q35 -21 75.5 -40t108.5 -46.5t87 -35.5q57 -24 99.5 -51t81.5 -67t59 -97t20 -128
q0 -173 -134 -286t-357 -113q-222 0 -347 108q-124 106 -124 281h41q0 -153 114 -250q112 -99 316 -99q202 0 327 104q123 104 123 255q0 120 -68 196q-71 75 -166 112q-33 12 -97 38t-97 38q-99 38 -166 117q-69 78 -69 205z" />
    <glyph glyph-name="uni0443.salt" horiz-adv-x="1241" 
d="M1016 -10v246h-4q-7 -31 -46 -90q-30 -44 -71 -77q-39 -34 -117 -61q-75 -28 -168 -28q-199 0 -322 114q-124 112 -124 346v543h41v-543q0 -215 114 -317q112 -103 291 -103q200 0 303 123q103 122 103 308v532h41v-993q0 -217 -122 -319q-122 -101 -314 -101
q-193 0 -315 87t-122 251h41q0 -145 112 -221t284 -76q171 0 284 89q111 89 111 290z" />
    <glyph glyph-name="uni045E.salt" horiz-adv-x="1241" 
d="M1016 -10v246h-4q-7 -31 -46 -90q-30 -44 -71 -77q-39 -34 -117 -61q-75 -28 -168 -28q-199 0 -322 114q-124 112 -124 346v543h41v-543q0 -215 114 -317q112 -103 291 -103q200 0 303 123q103 122 103 308v532h41v-993q0 -217 -122 -319q-122 -101 -314 -101
q-193 0 -315 87t-122 251h41q0 -145 112 -221t284 -76q171 0 284 89q111 89 111 290zM788 1214q-64 -49 -177 -49q-112 0 -177 50t-65 126v5h41v-5q0 -59 53.5 -97t147.5 -38q93 0 146.5 38t53.5 97v5h41v-5q0 -78 -64 -127z" />
    <glyph glyph-name="Q.ss02" horiz-adv-x="1699" 
d="M1290 -328h-760v41l203 275q-262 39 -415 242q-154 202 -154 487q0 316 188 527q188 210 498 210q312 0 499 -210q187 -209 187 -527q0 -319 -187 -527q-187 -210 -499 -210q-32 0 -72 4l-198 -271h710v-41zM205 717q0 -275 150 -468q149 -194 405 -224l209 282h49
l-211 -287h43q294 0 469 199q176 200 176 498t-176 498q-175 198 -469 198t-469 -198q-176 -200 -176 -498z" />
    <glyph glyph-name="uni0423.ss02" horiz-adv-x="1406" 
d="M395 41h201q132 0 211 62q78 61 123 216l67 236h-614l-260 879h43l248 -838h596l241 838h43l-327 -1139q-45 -154 -129 -224.5t-224 -70.5h-219v41z" />
    <glyph glyph-name="y.ss02" horiz-adv-x="1060" 
d="M51 983h43l250 -942h344l268 942h43l-290 -1024q-27 -91 -39 -132q-14 -41 -39 -102q-27 -61 -54 -88q-71 -67 -171 -67q-55 0 -95 16l-14 4v41q51 -20 109 -20q83 0 145 58q23 23 46 76q24 60 35 93q10 29 34 121l12 41h-367z" />
    <glyph glyph-name="yacute.ss02" horiz-adv-x="1060" 
d="M51 983h43l250 -942h344l268 942h43l-290 -1024q-27 -91 -39 -132q-14 -41 -39 -102q-27 -61 -54 -88q-71 -67 -171 -67q-55 0 -95 16l-14 4v41q51 -20 109 -20q83 0 145 58q23 23 46 76q24 60 35 93q10 29 34 121l12 41h-367zM541 1208h-54l308 328h53z" />
    <glyph glyph-name="ydieresis.ss02" horiz-adv-x="1060" 
d="M51 983h43l250 -942h344l268 942h43l-290 -1024q-27 -91 -39 -132q-14 -41 -39 -102q-27 -61 -54 -88q-71 -67 -171 -67q-55 0 -95 16l-14 4v41q51 -20 109 -20q83 0 145 58q23 23 46 76q24 60 35 93q10 29 34 121l12 41h-367zM373 1290q-41 0 -41 41t41 41t41 -41
t-41 -41zM700 1290q-41 0 -41 41t41 41t41 -41t-41 -41z" />
    <glyph glyph-name="uni0443.ss02" horiz-adv-x="1060" 
d="M51 983h43l250 -942h344l268 942h43l-290 -1024q-27 -91 -39 -132q-14 -41 -39 -102q-27 -61 -54 -88q-71 -67 -171 -67q-55 0 -95 16l-14 4v41q51 -20 109 -20q83 0 145 58q23 23 46 76q24 60 35 93q10 29 34 121l12 41h-367z" />
    <glyph glyph-name="uni045E.ss02" horiz-adv-x="1060" 
d="M706 1214q-64 -49 -177 -49q-112 0 -177 50t-65 126v5h41v-5q0 -59 53.5 -97t147.5 -38q93 0 146.5 38t53.5 97v5h41v-5q0 -78 -64 -127zM51 983h43l250 -942h344l268 942h43l-290 -1024q-27 -91 -39 -132q-14 -41 -39 -102q-27 -61 -54 -88q-71 -67 -171 -67
q-55 0 -95 16l-14 4v41q51 -20 109 -20q83 0 145 58q23 23 46 76q24 60 35 93q10 29 34 121l12 41h-367z" />
    <glyph glyph-name="uni040E.ss02" horiz-adv-x="1406" 
d="M949 1723q-85 -64 -224 -64t-224 64q-85 63 -85 167v11h41v-11q0 -82 73 -136q72 -54 195 -54t196 54q72 54 72 136v11h41v-11q0 -104 -85 -167zM395 41h201q132 0 211 62q78 61 123 216l67 236h-614l-260 879h43l248 -838h596l241 838h43l-327 -1139
q-45 -154 -129 -224.5t-224 -70.5h-219v41z" />
    </font>
</defs>
</svg>
